<?xml version="1.0" encoding="UTF-8"?>
<svg id="Layer_1" xmlns="http://www.w3.org/2000/svg" version="1.1" xmlns:xlink="http://www.w3.org/1999/xlink" viewBox="0 0 665.38 246.15">
  <!-- Generator: Adobe Illustrator 30.0.0, SVG Export Plug-In . SVG Version: 2.1.1 Build 123)  -->
  <defs>
    <style>
      .st0 {
        fill: url(#linear-gradient2);
      }

      .st1 {
        fill: url(#linear-gradient1);
      }

      .st2 {
        fill: none;
      }

      .st3 {
        clip-path: url(#clippath-1);
      }

      .st4 {
        fill: #430f68;
      }

      .st5 {
        clip-path: url(#clippath-2);
      }

      .st6 {
        fill: url(#linear-gradient);
      }

      .st7 {
        clip-path: url(#clippath);
      }
    </style>
    <clipPath id="clippath">
      <path class="st2" d="M47.52,67.14l76.11,105.71,85.24-36.68c-17.28-2.03-30.38-11.7-30.38-23.34,0-4.74,2.18-9.16,5.93-12.87-.02-.02-.04-.04-.06-.07l-38.87-16.94,18.28-8.17c-11.53-14.16-23.94-30.5-29.76-37.53l-86.51,29.9h.02Z"/>
    </clipPath>
    <linearGradient id="linear-gradient" x1="-653.89" y1="44.82" x2="-652.59" y2="44.82" gradientTransform="translate(-10194.32 -150339.64) rotate(-90) scale(230.31)" gradientUnits="userSpaceOnUse">
      <stop offset="0" stop-color="#6a3996"/>
      <stop offset=".24" stop-color="#6a3996"/>
      <stop offset=".37" stop-color="#7d56a2"/>
      <stop offset=".44" stop-color="#8663a8"/>
      <stop offset=".67" stop-color="#6a3996"/>
      <stop offset="1" stop-color="#6a3996"/>
    </linearGradient>
    <clipPath id="clippath-1">
      <ellipse class="st2" cx="212.6" cy="112.08" rx="22.66" ry="16.11"/>
    </clipPath>
    <linearGradient id="linear-gradient1" x1="-659.97" y1="45.8" x2="-658.67" y2="45.8" gradientTransform="translate(-3459.29 -52739.63) rotate(-90) scale(80.18)" gradientUnits="userSpaceOnUse">
      <stop offset="0" stop-color="#542b77"/>
      <stop offset=".24" stop-color="#542b77"/>
      <stop offset=".27" stop-color="#5d3580"/>
      <stop offset=".38" stop-color="#7a569d"/>
      <stop offset=".44" stop-color="#8663a8"/>
      <stop offset=".5" stop-color="#79559b"/>
      <stop offset=".67" stop-color="#542b77"/>
      <stop offset="1" stop-color="#542b77"/>
    </linearGradient>
    <clipPath id="clippath-2">
      <path class="st2" d="M14.79,56.77l101.16,142.85,3.89-1.73c10.6-4.72,103.66-46.13,107.5-48.16,2.92-1.54,4.56-1.12,6.06,1.54,2.99,5.28,2.08,15.3-2.89,18.57l-120.59,54.96L19.22,96.56H6.43l100.03,141.23,128.67-58.65.53-.28c10.61-6.42,12.36-22.86,6.78-32.72-4.28-7.55-12.11-9.76-19.95-5.61-2.94,1.53-61.76,27.78-102.98,46.12L31.46,62.36l105.65-34.94,38.4,49.45-11.98,5.8,35.86,13.08-4.49-28.12-9.81,4.63-44.46-56.86L14.79,56.77Z"/>
    </clipPath>
    <linearGradient id="linear-gradient2" x1="-651.21" y1="46.51" x2="-649.91" y2="46.51" gradientTransform="translate(298982.36 -21240.37) scale(459.4)" gradientUnits="userSpaceOnUse">
      <stop offset="0" stop-color="#542b77"/>
      <stop offset=".24" stop-color="#542b77"/>
      <stop offset=".27" stop-color="#5d3580"/>
      <stop offset=".38" stop-color="#7a569d"/>
      <stop offset=".44" stop-color="#8663a8"/>
      <stop offset=".5" stop-color="#79559b"/>
      <stop offset=".67" stop-color="#542b77"/>
      <stop offset="1" stop-color="#542b77"/>
    </linearGradient>
  </defs>
  <g class="st7">
    <rect class="st6" x="27.49" y=".49" width="201.42" height="209.1" transform="translate(-29.56 155.84) rotate(-57.18)"/>
  </g>
  <g class="st3">
    <rect class="st1" x="185.69" y="84.37" width="53.82" height="55.44" transform="translate(-9.91 202.94) rotate(-50.01)"/>
  </g>
  <g class="st5">
    <rect class="st0" x="-18.63" y="-24.99" width="291.71" height="303.17" transform="translate(-35.3 202.74) rotate(-69.96)"/>
  </g>
  <path class="st4" d="M325.76,19.47c-4.5-2.85-9.41-4.28-14.72-4.28h-34.7c-2.2,0-4.03.73-5.48,2.18s-2.18,3.28-2.18,5.48v89.82c0,2.2.68,4.03,2.03,5.48,1.35,1.45,3.08,2.18,5.18,2.18s3.98-.73,5.33-2.18c1.35-1.45,2.03-3.28,2.03-5.48v-32.14h27.79c5.31,0,10.21-1.48,14.72-4.43s8.11-6.91,10.81-11.87c2.7-4.96,4.06-10.44,4.06-16.45s-1.35-11.77-4.06-16.67c-2.7-4.9-6.31-8.79-10.81-11.64M323.43,56.8c-1.35,2.81-3.11,5.06-5.26,6.76-2.15,1.7-4.53,2.55-7.13,2.55h-27.79V29.61h27.79c2.6,0,4.98.83,7.13,2.48,2.15,1.65,3.91,3.83,5.26,6.53s2.03,5.76,2.03,9.16c0,3.21-.68,6.21-2.03,9.01"/>
  <path class="st4" d="M450.28,15.04c-2.5,0-4.56,1.15-6.16,3.45l-35.73,53.12-34.86-53.12c-.7-1-1.7-1.83-3-2.48s-2.55-.98-3.76-.98c-2.1,0-3.93.78-5.48,2.33-1.55,1.55-2.33,3.33-2.33,5.33v89.97c0,2.2.68,4.03,2.03,5.48,1.35,1.45,3.08,2.18,5.18,2.18s3.98-.73,5.33-2.18c1.35-1.45,2.03-3.28,2.03-5.48V43.93l28.24,43.95c.7.9,1.63,1.68,2.78,2.33s2.28.98,3.38.98,2.23-.32,3.38-.98c1.15-.65,2.08-1.43,2.78-2.33l28.24-43v67.78c0,2.2.73,4.03,2.18,5.48,1.45,1.45,3.33,2.18,5.63,2.18s4.18-.73,5.63-2.18,2.18-3.28,2.18-5.48V22.7c0-2.2-.78-4.03-2.33-5.48-1.55-1.45-3.33-2.18-5.33-2.18"/>
  <path class="st4" d="M525.68,19.7c-.6-1.6-1.55-2.85-2.85-3.75s-2.76-1.35-4.36-1.35c-1.6-.1-3.08.3-4.43,1.2-1.35.9-2.33,2.2-2.93,3.9l-38.15,92.22c-.3.9-.45,1.7-.45,2.4,0,1.9.55,3.48,1.65,4.73s2.8,1.88,5.11,1.88c1.5,0,2.85-.45,4.05-1.35,1.2-.9,2.1-2.15,2.7-3.76l8.9-21.33h46.07l9.02,21.33c.6,1.5,1.53,2.73,2.78,3.68s2.63,1.43,4.13,1.43c1.8,0,3.43-.68,4.88-2.03s2.18-3.13,2.18-5.33c0-1-.2-2-.6-3l-37.7-90.87h0ZM500.95,80.08l16.87-40.41,17.08,40.41h-33.95Z"/>
  <path class="st4" d="M659.66,110.57l-37.7-90.87c-.6-1.6-1.55-2.85-2.85-3.75s-2.76-1.35-4.36-1.35c-1.6-.1-3.08.3-4.43,1.2-1.35.9-2.33,2.2-2.93,3.9l-38.15,92.22c-.3.9-.45,1.7-.45,2.4,0,1.9.55,3.48,1.65,4.73,1.1,1.25,2.8,1.88,5.11,1.88,1.5,0,2.85-.45,4.05-1.35s2.1-2.15,2.7-3.76l8.9-21.33h46.07l9.02,21.33c.6,1.5,1.53,2.73,2.78,3.68s2.63,1.43,4.13,1.43c1.8,0,3.43-.68,4.88-2.03s2.18-3.13,2.18-5.33c0-1-.2-2-.6-3M597.23,80.08l16.87-40.41,17.08,40.41h-33.95Z"/>
  <path class="st4" d="M286.73,182.59h-15.62v-11.6h14.31c.32,0,.57-.09.74-.26s.26-.41.26-.7v-.66c0-.32-.09-.57-.26-.74s-.42-.26-.74-.26h-14.31v-11.16h15.27c.32,0,.57-.09.74-.26.18-.17.26-.41.26-.7v-.66c0-.32-.09-.57-.26-.74s-.42-.26-.74-.26h-17.06c-.29,0-.52.09-.7.26-.17.18-.26.42-.26.74v28.66c0,.29.09.53.26.7.18.18.41.26.7.26h17.41c.32,0,.57-.09.74-.26.18-.17.26-.41.26-.7v-.66c0-.32-.09-.57-.26-.74s-.42-.26-.74-.26"/>
  <path class="st4" d="M315.93,159.95c-.74-1.76-1.99-3.1-3.74-4s-4.17-1.36-7.26-1.36h-9.32c-.29,0-.52.09-.7.26-.18.17-.26.42-.26.74v28.66c0,.29.09.52.26.7.18.17.41.26.7.26h9.54c3,0,5.37-.43,7.09-1.29s2.94-2.17,3.68-3.92c.73-1.75,1.12-3.97,1.18-6.65.03-1.31.04-2.47.04-3.48s-.02-2.17-.04-3.48c-.03-2.54-.42-4.69-1.16-6.45M314.38,170.84c0,.66-.02,1.42-.04,2.3-.03,2.28-.34,4.1-.94,5.49-.6,1.38-1.58,2.39-2.93,3.02-1.36.63-3.2.94-5.53.94h-7.53v-25.38h7.31c3.5,0,5.96.76,7.39,2.3,1.43,1.53,2.17,3.9,2.23,7.11.03.87.04,1.63.04,2.27v1.95h0Z"/>
  <path class="st4" d="M345.97,154.59h-.79c-.29,0-.53.09-.72.26-.19.18-.28.42-.28.74v17.9c0,3.27-.77,5.67-2.3,7.22s-3.6,2.32-6.19,2.32-4.7-.77-6.23-2.32-2.3-3.95-2.3-7.22v-17.9c0-.32-.09-.57-.26-.74-.18-.18-.42-.26-.75-.26h-.79c-.29,0-.52.09-.7.26-.18.18-.26.42-.26.74v17.76c0,2.83.45,5.15,1.36,6.96.9,1.81,2.19,3.15,3.87,4.03,1.68.87,3.7,1.31,6.06,1.31s4.42-.44,6.08-1.31c1.66-.88,2.94-2.22,3.83-4.03.89-1.81,1.33-4.13,1.33-6.96v-17.76c0-.32-.09-.57-.26-.74-.18-.18-.41-.26-.7-.26"/>
  <path class="st4" d="M359.34,159.03c1.56-1.5,3.67-2.25,6.32-2.25,2.33,0,4.27.48,5.8,1.44s2.57,2.74,3.13,5.34c.06.35.18.59.35.72s.38.2.61.2h.88c.26,0,.49-.08.68-.24s.27-.37.24-.64c-.06-1.05-.31-2.12-.77-3.22-.45-1.09-1.14-2.11-2.06-3.06-.92-.95-2.11-1.71-3.57-2.3-1.46-.58-3.22-.87-5.29-.87-2.65,0-4.82.51-6.5,1.53s-2.92,2.43-3.74,4.22c-.82,1.79-1.27,3.83-1.36,6.1-.03,1.25-.04,2.57-.04,3.94s.01,2.66.04,3.85c.09,2.28.54,4.3,1.36,6.08.82,1.78,2.06,3.19,3.74,4.22,1.68,1.04,3.84,1.55,6.5,1.55,2.07,0,3.83-.29,5.29-.88,1.46-.58,2.65-1.35,3.57-2.3s1.61-1.97,2.06-3.06.71-2.17.77-3.22c.03-.26-.05-.48-.24-.64s-.42-.24-.68-.24h-.88c-.23,0-.44.06-.61.2-.18.13-.29.37-.35.72-.55,2.6-1.6,4.38-3.13,5.34-1.53.96-3.46,1.44-5.8,1.44-2.65,0-4.76-.75-6.32-2.25s-2.4-3.9-2.52-7.2c-.09-2.51-.09-4.96,0-7.35.12-3.3.96-5.69,2.52-7.2"/>
  <path class="st4" d="M396.29,155.46c-.12-.29-.27-.51-.46-.66-.19-.15-.46-.22-.81-.22h-1.49c-.35,0-.62.07-.81.22s-.34.36-.46.66l-11.07,28.4c-.06.17-.09.34-.09.48,0,.23.09.44.26.61.18.18.38.26.61.26h.87c.29,0,.52-.08.68-.24s.25-.3.28-.42l2.71-7h15.49l2.71,7c.06.12.16.26.31.42s.36.24.66.24h.88c.23,0,.44-.09.61-.26s.26-.38.26-.61c0-.15-.03-.31-.09-.48l-11.07-28.4h.02ZM387.58,174.93l6.69-17.24,6.69,17.24h-13.39.01Z"/>
  <path class="st4" d="M431.07,154.59h-20.04c-.29,0-.52.09-.7.26-.17.18-.26.42-.26.74v.66c0,.29.09.53.26.7.18.18.41.26.7.26h8.66v27.04c0,.29.09.53.26.7s.41.26.7.26h.79c.32,0,.57-.09.74-.26.18-.17.26-.41.26-.7v-27.04h8.62c.32,0,.57-.09.74-.26.18-.17.26-.41.26-.7v-.66c0-.32-.09-.57-.26-.74-.18-.18-.42-.26-.74-.26"/>
  <path class="st4" d="M439.56,154.59h-.83c-.29,0-.52.09-.7.26-.17.18-.26.41-.26.7v28.7c0,.29.09.53.26.7s.41.26.7.26h.83c.29,0,.52-.09.7-.26.18-.17.26-.41.26-.7v-28.7c0-.29-.09-.52-.26-.7-.18-.18-.41-.26-.7-.26"/>
  <path class="st4" d="M469.51,159.47c-.98-1.79-2.32-3.13-4.03-4-1.71-.88-3.7-1.31-5.97-1.31s-4.27.44-5.97,1.31c-1.71.88-3.04,2.21-4,4s-1.49,4.05-1.58,6.76c-.03,1.31-.04,2.54-.04,3.68s.01,2.36.04,3.68c.09,2.74.58,5.01,1.49,6.8.9,1.79,2.2,3.12,3.89,3.98s3.75,1.29,6.17,1.29,4.48-.43,6.17-1.29,3-2.19,3.92-3.98,1.41-4.06,1.47-6.8c.06-1.31.09-2.54.09-3.68s-.03-2.36-.09-3.68c-.06-2.71-.58-4.97-1.55-6.76M468.31,173.36c-.12,3.41-.99,5.88-2.6,7.39-1.62,1.52-3.68,2.28-6.19,2.28s-4.54-.76-6.17-2.28-2.51-3.98-2.63-7.39c-.03-1.31-.04-2.46-.04-3.46s.01-2.14.04-3.46c.09-2.28.52-4.13,1.29-5.56.77-1.43,1.81-2.47,3.11-3.13s2.76-.98,4.4-.98,3.14.33,4.44.98c1.3.66,2.33,1.7,3.11,3.13.77,1.43,1.19,3.28,1.25,5.56.06,1.31.09,2.46.09,3.46s-.03,2.14-.09,3.46"/>
  <path class="st4" d="M499.2,154.59h-.79c-.29,0-.53.09-.7.26-.17.18-.26.42-.26.74v24.2l-16.14-24.68c-.03-.06-.12-.16-.26-.31-.15-.15-.37-.22-.66-.22h-.92c-.29,0-.53.09-.7.26-.18.18-.26.42-.26.74v28.66c0,.29.09.53.26.7.17.18.41.26.7.26h.79c.32,0,.57-.09.74-.26.18-.17.26-.41.26-.7v-24.15l16.1,24.59c.06.06.15.16.28.31s.34.22.64.22h.96c.29,0,.52-.09.7-.28.18-.19.26-.43.26-.72v-28.61c0-.32-.09-.57-.26-.74-.18-.18-.42-.26-.74-.26"/>
  <path class="st4" d="M541.81,168.98h-9.36c-.29,0-.52.09-.7.26s-.26.42-.26.74v.61c0,.29.09.53.26.72.18.19.41.28.7.28h7.61v2.23c0,2.1-.39,3.83-1.18,5.18-.79,1.36-1.87,2.36-3.24,3.02s-2.92.98-4.64.98c-2.6,0-4.7-.71-6.32-2.14s-2.49-3.78-2.6-7.04c-.09-2.63-.09-5.25,0-7.88.12-3.3.98-5.65,2.6-7.07,1.62-1.41,3.73-2.12,6.32-2.12,1.75,0,3.2.27,4.35.81,1.15.54,2.07,1.23,2.76,2.06s1.17,1.7,1.47,2.6c.12.32.23.55.35.68.12.13.31.2.57.2h.96c.29,0,.53-.08.7-.24s.25-.37.22-.63c-.03-.61-.26-1.37-.7-2.28s-1.11-1.8-2.01-2.69c-.91-.89-2.07-1.63-3.5-2.23-1.43-.6-3.15-.9-5.16-.9-2.48,0-4.58.49-6.3,1.46-1.72.98-3.03,2.33-3.92,4.07-.89,1.74-1.38,3.76-1.46,6.06-.03,1.31-.05,2.7-.05,4.16s.01,2.84.05,4.16c.09,2.28.57,4.29,1.46,6.04s2.19,3.11,3.89,4.09c1.71.98,3.81,1.47,6.32,1.47s4.65-.5,6.41-1.49c1.76-.99,3.11-2.38,4.03-4.16.92-1.78,1.38-3.83,1.38-6.17v-3.85c0-.32-.09-.57-.26-.74-.18-.18-.42-.26-.74-.26"/>
  <path class="st4" d="M564.56,171.87c2.07-.49,3.69-1.44,4.86-2.84s1.75-3.27,1.75-5.6c0-2.98-.91-5.19-2.73-6.65-1.82-1.46-4.27-2.19-7.33-2.19h-10.2c-.29,0-.52.09-.7.26-.17.18-.26.42-.26.74v28.66c0,.29.09.53.26.7.18.18.41.26.7.26h.79c.32,0,.57-.09.74-.26.18-.17.26-.41.26-.7v-11.99h9.01l6.96,11.77c.18.29.38.56.61.81s.58.37,1.05.37h.53c.23,0,.44-.09.61-.26.18-.17.26-.38.26-.61,0-.15-.04-.31-.13-.48l-7.05-11.99h.01ZM560.89,169.64h-8.18v-12.43h8.18c2.54,0,4.43.52,5.67,1.55,1.24,1.04,1.86,2.59,1.86,4.66s-.62,3.62-1.86,4.66c-1.24,1.04-3.13,1.55-5.67,1.55"/>
  <path class="st4" d="M598.71,159.47c-.98-1.79-2.32-3.13-4.03-4-1.71-.88-3.7-1.31-5.97-1.31s-4.27.44-5.97,1.31c-1.71.88-3.04,2.21-4,4s-1.49,4.05-1.58,6.76c-.03,1.31-.04,2.54-.04,3.68s.01,2.36.04,3.68c.09,2.74.58,5.01,1.49,6.8.9,1.79,2.2,3.12,3.89,3.98s3.75,1.29,6.17,1.29,4.48-.43,6.17-1.29,3-2.19,3.92-3.98,1.41-4.06,1.47-6.8c.06-1.31.09-2.54.09-3.68s-.03-2.36-.09-3.68c-.06-2.71-.58-4.97-1.55-6.76M597.51,173.36c-.12,3.41-.99,5.88-2.6,7.39-1.62,1.52-3.68,2.28-6.19,2.28s-4.54-.76-6.17-2.28-2.51-3.98-2.63-7.39c-.03-1.31-.04-2.46-.04-3.46s.01-2.14.04-3.46c.09-2.28.52-4.13,1.29-5.56.77-1.43,1.81-2.47,3.11-3.13s2.76-.98,4.4-.98,3.14.33,4.44.98c1.3.66,2.33,1.7,3.11,3.13.77,1.43,1.19,3.28,1.25,5.56.06,1.31.09,2.46.09,3.46s-.03,2.14-.09,3.46"/>
  <path class="st4" d="M629.01,154.59h-.79c-.29,0-.53.09-.72.26-.19.18-.28.42-.28.74v17.9c0,3.27-.77,5.67-2.3,7.22-1.53,1.55-3.6,2.32-6.19,2.32s-4.7-.77-6.23-2.32c-1.53-1.55-2.3-3.95-2.3-7.22v-17.9c0-.32-.09-.57-.26-.74-.18-.18-.42-.26-.75-.26h-.79c-.29,0-.52.09-.7.26-.18.18-.26.42-.26.74v17.76c0,2.83.45,5.15,1.36,6.96.9,1.81,2.19,3.15,3.87,4.03,1.68.87,3.7,1.31,6.06,1.31s4.42-.44,6.08-1.31c1.66-.88,2.94-2.22,3.83-4.03s1.33-4.13,1.33-6.96v-17.76c0-.32-.09-.57-.26-.74-.18-.18-.41-.26-.7-.26"/>
  <path class="st4" d="M658.74,158.66c-.83-1.34-2-2.36-3.5-3.04s-3.27-1.03-5.32-1.03h-10.63c-.29,0-.52.09-.7.26s-.26.42-.26.74v28.66c0,.29.09.52.26.7.18.18.41.26.7.26h.79c.32,0,.57-.09.74-.26.18-.18.26-.41.26-.7v-11.55h8.84c2.04,0,3.81-.34,5.32-1.03,1.5-.68,2.67-1.7,3.5-3.04s1.25-3,1.25-4.99-.42-3.65-1.25-4.99M655.37,168.41c-1.24,1.11-3.13,1.66-5.67,1.66h-8.62v-12.86h8.62c2.54,0,4.43.55,5.67,1.66s1.86,2.7,1.86,4.77-.62,3.66-1.86,4.77"/>
</svg>