<?xml version="1.0" encoding="UTF-8"?>
<svg id="Layer_1" xmlns="http://www.w3.org/2000/svg" version="1.1" viewBox="0 0 512 512">
  <!-- Generator: Adobe Illustrator 30.0.0, SVG Export Plug-In . SVG Version: 2.1.1 Build 123)  -->
  <defs>
    <style>
      .st0 {
        fill: #430f68;
      }
    </style>
  </defs>
  <path class="st0" d="M263.09,0c8.95,2.36,16.78,5.56,24,11.49l212.94,212.99c6.64,7.47,9.64,16.01,11.97,25.52v12c-3.42,17.01-13.16,31.42-29.73,37.76-1.98.76-9.27,3.24-10.76,3.24h-14.5l.04,158.54c-2.51,26.18-22.41,46.1-48.02,50.46h-91.97c-6.51-2.91-11.15-6.92-12-14.5-2.55-39.77,3.4-83.78.04-123.04-.93-10.89-8.01-19.56-18.64-22.36-8.4-2.21-54.33-2.19-62.36.4s-14.67,9.8-16.77,18.23l-.25,125.75c-.83,8.26-4.67,12.29-11.98,15.51h-91.97c-25.61-4.36-45.51-24.29-48.02-50.46l.04-158.54h-14.5c-2.12,0-10.39-3.07-12.85-4.14-15.18-6.58-23.96-20.08-27.63-35.86.4-4.45-.55-9.68,0-14,.58-4.55,4.66-14.27,7.17-18.32C80.59,155.16,155.28,80.44,230.77,7.18c4.05-2.51,13.77-6.6,18.32-7.18h14Z"/>
</svg>