<?xml version="1.0" encoding="UTF-8"?>
<svg id="Layer_1" xmlns="http://www.w3.org/2000/svg" version="1.1" viewBox="0 0 675.09 675.09">
  <!-- Generator: Adobe Illustrator 30.1.0, SVG Export Plug-In . SVG Version: 2.1.1 Build 136)  -->
  <defs>
    <style>
      .st0 {
        fill: none;
        stroke: #f89b5a;
        stroke-miterlimit: 10;
        stroke-width: 8px;
      }

      .st1 {
        fill: #fff;
      }

      .st2 {
        fill: #f89b5a;
      }
    </style>
  </defs>
  <g>
    <path class="st1" d="M336.54,43.13v-.04l-.02-.04h-.01c162.03,0,293.91,131.86,293.91,293.9s-131.87,293.91-293.91,293.91c-29.79,0-59.33-4.44-87.76-13.22-82.54-25.88-149.31-86.42-183.06-166.08-15.32-36.31-23.06-74.9-23.06-114.52,0-162.03,131.87-293.91,293.91-293.91h0Z"/>
    <path class="st2" d="M5.48,336.95v.04C5.48,154.12,153.64,5.96,336.51,5.96s331.03,148.16,331.03,331.03-148.16,331.04-331.05,331.06c-34.42,0-67.59-5.32-98.79-14.95-93.17-29.16-168.59-98.18-206.24-187.13-16.66-39.71-26-83.24-26-129.02h.02,0ZM48.6,458.81c35.94,84.73,106.82,149.12,194.64,176.62,30.2,9.33,61.56,14.11,93.23,14.11v-.11h.04c172.33.01,312.45-140.15,312.45-312.44S508.8,24.55,336.51,24.55,24.06,164.71,24.06,337c0,42.19,8.29,83.17,24.54,121.81Z"/>
    <path class="st0" d="M336.54,43.13v-.04l-.02-.04h-.01c162.03,0,293.91,131.86,293.91,293.9s-131.87,293.91-293.91,293.91c-29.79,0-59.33-4.44-87.76-13.22-82.54-25.88-149.31-86.42-183.06-166.08-15.32-36.31-23.06-74.9-23.06-114.52,0-162.03,131.87-293.91,293.91-293.91h0Z"/>
  </g>
  <polygon class="st2" points="344.1 384.93 316.86 487 184.21 175.09 477.88 311.18 375.81 346.34 477.88 457.46 441.6 487 344.1 384.93"/>
</svg>