<?xml version="1.0" encoding="UTF-8"?>
<svg id="Layer_2" data-name="Layer 2" xmlns="http://www.w3.org/2000/svg" xmlns:xlink="http://www.w3.org/1999/xlink" viewBox="0 0 123.13 181.64">
  <defs>
    <style>
      .cls-1 {
        fill: none;
      }

      .cls-2 {
        fill: #d1d3d4;
      }

      .cls-3 {
        fill: #6d6e71;
      }

      .cls-4 {
        fill: #231f20;
      }

      .cls-5 {
        fill: #00b4eb;
      }

      .cls-6 {
        fill: #002b64;
      }

      .cls-7 {
        fill: #bcbec0;
      }

      .cls-8 {
        fill: #f1f2f2;
      }

      .cls-9 {
        fill: #fff;
      }

      .cls-10 {
        fill: #006dad;
      }

      .cls-11 {
        fill: #6dcff6;
      }

      .cls-12 {
        fill: #939598;
      }

      .cls-13 {
        fill: #e6e7e8;
      }

      .cls-14 {
        clip-path: url(#clippath);
      }

      .cls-15 {
        fill: #a7a9ac;
      }
    </style>
    <clipPath id="clippath">
      <rect class="cls-1" width="123.13" height="181.64"/>
    </clipPath>
  </defs>
  <g id="Layer_1-2" data-name="Layer 1">
    <g class="cls-14">
      <path class="cls-2" d="M17.08,71.67c-1.83,1.1-3.59,2.32-5.2,3.69-1.83,1.57-10.56,10.94-4.39,12.08.54.1,1.08.14,1.61.14,2.67,0,5.32-1.09,7.83-1.86l.14-.04v-14.02ZM67.8,153.49c-28.44,0-50.72-10.3-50.72-23.44v-42.08c-2.45.85-5.43,1.83-8.07,1.83-2.16,0-4.1-.66-5.35-2.57-2.28-3.49,2.68-9.59,4.97-11.79,2.54-2.43,5.41-4.44,8.45-6.19v-20.55c-2.26-2.8-3.45-5.82-3.45-8.95,0-6.95,5.83-13.36,16.43-18.04,10.11-4.47,23.52-6.93,37.74-6.93s27.63,2.46,37.74,6.93c10.6,4.68,16.43,11.09,16.43,18.04,0,3.13-1.19,6.15-3.45,8.95v81.34c0,13.15-22.28,23.44-50.72,23.44"/>
      <path class="cls-2" d="M84.27,182.18c-4.82,0-8.59-2.29-8.59-5.22s3.77-5.22,8.59-5.22,8.59,2.29,8.59,5.22-3.77,5.22-8.59,5.22"/>
      <path class="cls-2" d="M108.17,172.8c-8.39,0-14.96-3.42-14.96-7.79s6.57-7.79,14.96-7.79,14.96,3.42,14.96,7.79-6.57,7.79-14.96,7.79"/>
      <path class="cls-4" d="M66.21,151.37c-28.44,0-50.72-10.3-50.72-23.44V37.63c0-1.03.83-1.86,1.86-1.86h97.72c1.02,0,1.86.83,1.86,1.86v90.29c0,13.15-22.28,23.44-50.72,23.44"/>
      <path class="cls-13" d="M17.35,37.63v90.29c0,11.92,21.88,21.58,48.86,21.58s48.86-9.66,48.86-21.58V37.63H17.35Z"/>
      <path class="cls-7" d="M66.21,145.79c-26.6,0-45.14-9.42-45.14-17.87V41.35h90.29v86.57c0,8.45-18.54,17.87-45.15,17.87"/>
      <path class="cls-13" d="M28.06,141.41c5.19,2.86,12.01,5.13,19.83,6.53V37.63h-19.83v103.77Z"/>
      <path class="cls-12" d="M105.95,123.58c-1.06,7.26-1.28,11.93-7.88,15.23-6.11,3.05-13.8,4.95-20.05,5.71-7.28.89-15.93.93-20.4.57-7.97-.62-18.79-2.99-26.03-6.55-7.05-3.47-13.72-10.8-14.25-19.07v8.44c0,11.92,21.88,21.58,48.86,21.58s48.86-9.66,48.86-21.58V37.63h-8.53c.1,26.07.2,80.55-.59,85.95"/>
      <path class="cls-4" d="M95.07,89.22c-2.8,0-3.89-3.8-5.16-8.21-.18-.63-.37-1.28-.56-1.92-.26-.86-.49-1.65-.69-2.38-1.05-3.67-1.53-5.18-2.85-5.58-.52.07-1.56,2.16-2.06,3.17-.94,1.88-1.82,3.66-3.14,4.36-.48.26-.96.39-1.43.39-2.63,0-3.62-3.78-4.35-6.54-.79-2.99-.52-9.43-.42-11.43l-12.27-8.69c-.34-.24-.51-.66-.43-1.06.08-.41.39-.73.79-.83l27.26-6.73c.09-.02.17-.03.26-.03.21,0,.42.06.6.19l13.46,9.21c.29.2.46.53.46.88,0,.12,0,3.08-.18,5.05-.04.5-.09,1.1-.14,1.82-.16,2.08-.39,5.23-.92,9.72-.19,1.59-1.96,15.6-6.56,18.15-.57.32-1.13.47-1.66.47"/>
      <path class="cls-11" d="M62.76,51.53l12.75,9.03s-.53,8.32.35,11.68c.89,3.36,1.95,6.73,4.25,5.49,2.3-1.24,3.72-8.32,6.02-7.61,2.3.71,2.65,3.36,4.25,8.68,1.6,5.31,2.66,10.8,5.84,9.03,3.19-1.77,5.31-11.33,6.02-17.35.71-6.02.88-9.56,1.06-11.51.18-1.95.18-4.96.18-4.96l-13.45-9.21-27.26,6.73Z"/>
      <path class="cls-5" d="M95.16,85.98c-.73-.77-1.63-3.92-2.18-5.84-.18-.64-.37-1.3-.57-1.95-.25-.85-.48-1.63-.68-2.34-1.17-4.11-1.95-6.82-4.98-7.76-.31-.09-.63-.14-.95-.14-2.45,0-3.7,2.51-4.91,4.93-.43.87-1.12,2.25-1.61,2.8-.38-.6-.84-1.93-1.38-3.98-.65-2.48-.43-8.79-.29-11.01.05-.74-.29-1.44-.89-1.87l-8.96-6.35,21.83-5.39,11.73,8.03c-.01,1.02-.06,2.54-.16,3.65-.05.51-.09,1.13-.15,1.86-.16,2.06-.39,5.16-.91,9.59-.98,8.32-3.34,14.85-4.94,15.74h-.03Z"/>
      <path class="cls-10" d="M63.08,51.45c0,.11.02.22.03.33l12.39,8.78s-.08,1.34-.13,3.16c5.32-.31,10.61-1,15.84-2.16,3.15-.7,6.14-1.67,9.07-2.79-.18,2.45-.43,4.9-.66,7.32-.4,4.04-.86,8.15-1.62,12.14-.42,2.19-1.44,4.5-3.3,5.83-1.09.78-2.21-.03-3.1-1.1,1.1,3.57,2.29,6.17,4.63,4.87,3.19-1.77,5.31-11.33,6.02-17.35.71-6.02.88-9.56,1.06-11.51.18-1.95.18-4.95.18-4.95l-13.46-9.21-26.94,6.65Z"/>
      <path class="cls-10" d="M86.01,69.14c-2.38-.99-3.83.83-4.95,2.7-.92,1.52-1.87,3.13-3.75,1.61-.65-.53-1.18-1.23-1.62-2.02.05.29.11.57.17.81.88,3.36,1.95,6.73,4.25,5.49,2.3-1.24,3.72-8.32,6.02-7.61,1.62.5,2.27,1.96,3.07,4.62,0-2.43-.63-4.53-3.19-5.6"/>
      <path class="cls-4" d="M66.21,62.6c-14.23,0-27.63-2.46-37.74-6.93-10.6-4.68-16.43-11.09-16.43-18.04s5.83-13.36,16.43-18.04c10.11-4.47,23.52-6.93,37.74-6.93s27.63,2.46,37.74,6.93c10.6,4.68,16.43,11.09,16.43,18.04s-5.83,13.36-16.43,18.04c-10.12,4.47-23.52,6.93-37.74,6.93"/>
      <path class="cls-9" d="M118.52,37.63c0,12.76-23.42,23.11-52.31,23.11S13.89,50.4,13.89,37.63s23.42-23.11,52.32-23.11,52.31,10.35,52.31,23.11"/>
      <path class="cls-8" d="M118.52,37.63c0-3.64-1.91-7.09-5.31-10.15-9.11-6.8-25.87-11.36-45.06-11.36-28.89,0-52.31,10.35-52.31,23.11,0,3.64,1.91,7.09,5.31,10.15,9.11,6.8,25.87,11.36,45.06,11.36,28.89,0,52.31-10.34,52.31-23.11"/>
      <path class="cls-4" d="M75.41,61.45c-.35,0-.68-.17-.88-.47-.21-.32-.24-.72-.07-1.07.22-.45.88-1.8.61-2.47-.11-.26-.4-.48-.88-.65-2.22-.78-4.59-.85-7.04-.85h-.94c-1.03,0-1.85-.67-2.05-1.68-.15-.79.12-1.58.68-2.07,1.7-8.04,9.69-12.28,23.16-12.28,2.26,0,4.61.12,7,.37,1.12.11,1.94,1.03,1.97,2.16.05.28.05.58-.01.86-.45,2.08-.83,4.1-.44,5.86.43,1.97,1.33,2.76,3.68,3.26,1.1.23,2.01.52,2.77.88.38.18.62.56.61.98,0,.42-.26.79-.65.96-7.62,3.24-17.1,5.39-27.43,6.2h-.08Z"/>
      <path class="cls-11" d="M102.51,54.27c-.74-.35-1.6-.6-2.53-.8-2.51-.52-3.93-1.47-4.5-4.07-.45-2.04,0-4.32.44-6.32.04-.19.03-.37-.01-.52.02-.55-.32-1.15-1.01-1.22-9.69-.99-26.89-.76-29.09,11.5-.94.38-.81,2.05.41,2.04,2.8,0,5.66-.04,8.33.9,2.29.81,1.82,2.66.87,4.59,10.43-.82,19.78-3,27.09-6.11"/>
      <path class="cls-4" d="M66.21,56.75c-24.1,0-42.98-8.4-42.98-19.12s18.88-19.12,42.98-19.12,42.98,8.4,42.98,19.12-18.88,19.12-42.98,19.12"/>
      <path class="cls-3" d="M107.86,37.63c0,9.83-18.65,17.79-41.65,17.79s-41.65-7.97-41.65-17.79,18.65-17.79,41.65-17.79,41.65,7.97,41.65,17.79"/>
      <path class="cls-4" d="M27.63,73.2c-.54,0-1.35-.15-2.44-.37-.4-.08-.96-.19-1.11-.2h0c-2.98,0-5.35-3.36-5.35-7.64s2.36-7.64,5.38-7.64c.12-.01.67-.12,1.08-.2,1.08-.22,1.89-.37,2.44-.37,3.22,0,5.75,3.61,5.75,8.21s-2.52,8.21-5.75,8.21"/>
      <path class="cls-15" d="M27.63,58.1c-.8,0-3.05.57-3.51.57-2.24,0-4.05,2.83-4.05,6.32s1.82,6.31,4.05,6.31c.46,0,2.71.57,3.51.57,2.44,0,4.42-3.08,4.42-6.88s-1.98-6.89-4.42-6.89"/>
      <path class="cls-4" d="M24.11,72.36c-2.87,0-5.11-3.24-5.11-7.38s2.25-7.38,5.11-7.38,5.11,3.24,5.11,7.38-2.24,7.38-5.11,7.38"/>
      <path class="cls-9" d="M28.17,64.99c0,3.49-1.81,6.32-4.05,6.32s-4.05-2.83-4.05-6.32,1.81-6.32,4.05-6.32,4.05,2.83,4.05,6.32"/>
      <path class="cls-8" d="M25,59.82c-2.24,0-4.05,2.83-4.05,6.32,0,1.62.4,3.1,1.04,4.22.62.59,1.34.94,2.12.94,2.24,0,4.05-2.83,4.05-6.31,0-1.63-.4-3.1-1.04-4.22-.62-.59-1.34-.94-2.12-.94"/>
      <path class="cls-4" d="M25.31,64.99c0,1.32-.69,2.39-1.54,2.39s-1.54-1.07-1.54-2.39.69-2.39,1.54-2.39,1.54,1.07,1.54,2.39"/>
      <path class="cls-4" d="M66.21,56.49c-18.7,0-35.04-5.21-40.65-12.97-.34-.47-.24-1.12.21-1.47,8.59-6.59,23.71-10.53,40.44-10.53s31.85,3.94,40.44,10.53c.46.35.55,1,.21,1.47-5.62,7.75-21.96,12.97-40.65,12.97"/>
      <path class="cls-11" d="M66.21,32.59c-16.94,0-31.75,4.14-39.79,10.31,5.25,7.26,21.08,12.53,39.79,12.53s34.54-5.27,39.79-12.53c-8.04-6.17-22.85-10.31-39.79-10.31"/>
      <path class="cls-5" d="M66.21,55.43c17.78,0,32.96-4.76,38.93-11.47-8.41-5.9-22.53-9.78-38.53-9.78s-30.67,4.03-39.01,10.13c6.18,6.52,21.14,11.12,38.61,11.12"/>
      <path class="cls-4" d="M17.35,82.97c-.67.22-1.33.43-2,.63-3.02.92-6.23,2.31-9.45,1.72-6.17-1.14,2.56-10.51,4.39-12.08,3.92-3.37,8.73-5.79,13.44-7.86,1.25-.55.17-2.38-1.07-1.83-5.63,2.48-11.14,5.5-15.61,9.78-2.3,2.2-7.25,8.3-4.97,11.79,3.19,4.89,10.89,1.56,15.28.11v-2.24Z"/>
      <path class="cls-10" d="M90.43,47.1c-8.2,4.13-16.83,6.03-25.82,5.67-7.4-.29-17.53-1.86-24.64-7.39-2.57-2-3.86-5.09-3.01-8.05-4.19,1.56-7.77,3.44-10.54,5.57,5.25,7.26,21.08,12.53,39.79,12.53s34.54-5.27,39.79-12.53c-1.78-1.37-3.89-2.63-6.28-3.77-2.3,3.31-5.39,6.01-9.29,7.97"/>
      <path class="cls-6" d="M82.67,180.06c-4.81,0-8.59-2.29-8.59-5.22s3.77-5.22,8.59-5.22,8.59,2.29,8.59,5.22-3.77,5.22-8.59,5.22"/>
      <path class="cls-11" d="M90.2,174.84c0,2.3-3.37,4.16-7.52,4.16s-7.52-1.86-7.52-4.16,3.37-4.16,7.52-4.16,7.52,1.86,7.52,4.16"/>
      <path class="cls-5" d="M82.67,177.93c-3.81,0-6.46-1.63-6.46-3.1s2.65-3.1,6.46-3.1,6.46,1.63,6.46,3.1-2.65,3.1-6.46,3.1"/>
      <path class="cls-10" d="M87.66,171.73c.77,2.54.01,4.79-3.5,5.54-3.07.65-7.01-.13-8.99-2.7-.01.09-.03.18-.03.27,0,2.3,3.37,4.16,7.52,4.16s7.53-1.86,7.53-4.16c0-1.24-.98-2.34-2.53-3.11"/>
      <path class="cls-6" d="M106.57,170.68c-8.39,0-14.96-3.42-14.96-7.79s6.57-7.79,14.96-7.79,14.96,3.42,14.96,7.79-6.57,7.79-14.96,7.79"/>
      <path class="cls-11" d="M120.47,162.89c0,3.72-6.22,6.73-13.9,6.73s-13.9-3.01-13.9-6.73,6.22-6.73,13.9-6.73,13.9,3.01,13.9,6.73"/>
      <path class="cls-5" d="M106.57,168.02c-7.04,0-12.3-2.71-12.3-5.13s5.26-5.13,12.3-5.13,12.3,2.71,12.3,5.13-5.26,5.13-12.3,5.13"/>
      <path class="cls-10" d="M115.31,157.66c2.2,2.45,2.97,5.24-.84,7.68-3.04,1.95-6.57,2.24-10.02,2.06-4.07-.21-8.91-1.52-11.76-4.46v-.05c0,3.71,6.22,6.72,13.89,6.72s13.9-3.01,13.9-6.73c0-2.11-2.01-4-5.16-5.23"/>
    </g>
  </g>
</svg>