<?xml version="1.0" encoding="UTF-8"?>
<svg id="Layer_2" data-name="Layer 2" xmlns="http://www.w3.org/2000/svg" xmlns:xlink="http://www.w3.org/1999/xlink" viewBox="0 0 124.95 170.87">
  <defs>
    <style>
      .cls-1 {
        fill: none;
      }

      .cls-2 {
        fill: #ba131d;
      }

      .cls-3 {
        fill: #d1d3d4;
      }

      .cls-4 {
        fill: #6d6e71;
      }

      .cls-5 {
        fill: #231f20;
      }

      .cls-6 {
        fill: #bcbec0;
      }

      .cls-7 {
        fill: #f1f2f2;
      }

      .cls-8 {
        fill: #670000;
      }

      .cls-9 {
        fill: #fff;
      }

      .cls-10 {
        fill: #f58e84;
      }

      .cls-11 {
        fill: #939598;
      }

      .cls-12 {
        fill: #f04e45;
      }

      .cls-13 {
        fill: #e6e7e8;
      }

      .cls-14 {
        fill: #f48473;
      }

      .cls-15 {
        clip-path: url(#clippath);
      }

      .cls-16 {
        fill: #a7a9ac;
      }
    </style>
    <clipPath id="clippath">
      <rect class="cls-1" width="124.95" height="170.87"/>
    </clipPath>
  </defs>
  <g id="Layer_1-2" data-name="Layer 1">
    <g class="cls-15">
      <path class="cls-3" d="M19.17,61.51c-1.81,1.09-3.56,2.29-5.14,3.66-1.82,1.56-10.45,10.82-4.34,11.95.53.1,1.06.14,1.6.14,2.64,0,5.26-1.08,7.75-1.84l.14-.04v-13.87ZM69.36,142.47c-28.14,0-50.19-10.19-50.19-23.2v-41.63c-2.43.84-5.37,1.81-7.98,1.81-2.14,0-4.06-.65-5.3-2.54-2.25-3.46,2.65-9.49,4.92-11.67,2.51-2.4,5.36-4.39,8.36-6.12v-20.33c-2.24-2.77-3.42-5.76-3.42-8.86,0-6.88,5.78-13.22,16.26-17.85,10-4.42,23.27-6.86,37.35-6.86s27.34,2.43,37.35,6.86c10.48,4.63,16.26,10.97,16.26,17.85,0,3.1-1.17,6.08-3.42,8.86v80.49c0,13.01-22.05,23.2-50.19,23.2"/>
      <path class="cls-3" d="M85.65,170.87c-4.76,0-8.5-2.27-8.5-5.17s3.73-5.17,8.5-5.17,8.5,2.27,8.5,5.17-3.73,5.17-8.5,5.17"/>
      <path class="cls-3" d="M109.3,161.58c-8.3,0-14.8-3.39-14.8-7.71s6.5-7.71,14.8-7.71,14.8,3.39,14.8,7.71-6.5,7.71-14.8,7.71"/>
      <path class="cls-5" d="M67.78,140.37c-28.14,0-50.19-10.19-50.19-23.2V27.83c0-1.01.82-1.84,1.84-1.84h96.7c1.01,0,1.84.82,1.84,1.84v89.34c0,13.01-22.05,23.2-50.19,23.2"/>
      <path class="cls-13" d="M19.43,27.83v89.34c0,11.8,21.65,21.36,48.35,21.36s48.35-9.56,48.35-21.36V27.83H19.43Z"/>
      <path class="cls-6" d="M67.78,134.85c-26.32,0-44.67-9.32-44.67-17.68V31.51h89.35v85.67c0,8.36-18.35,17.68-44.67,17.68"/>
      <path class="cls-13" d="M30.03,130.52c5.14,2.83,11.88,5.08,19.62,6.46V27.83h-19.62v102.69Z"/>
      <path class="cls-11" d="M107.11,112.88c-1.05,7.19-1.27,11.81-7.8,15.07-6.04,3.02-13.65,4.89-19.84,5.65-7.2.88-15.76.92-20.19.57-7.88-.62-18.59-2.96-25.75-6.48-6.98-3.44-13.58-10.69-14.1-18.87v8.35c0,11.8,21.65,21.36,48.35,21.36s48.35-9.56,48.35-21.36V27.83h-8.44c.1,25.8.2,79.71-.58,85.05"/>
      <path class="cls-5" d="M96.34,78.88c-2.77,0-3.85-3.76-5.1-8.12-.18-.62-.36-1.26-.55-1.9-.25-.85-.48-1.64-.68-2.35-1.04-3.63-1.51-5.12-2.82-5.53-.51.07-1.54,2.14-2.04,3.13-.93,1.86-1.8,3.62-3.11,4.32-.48.25-.95.39-1.42.39-2.6,0-3.58-3.74-4.3-6.47-.78-2.96-.52-9.33-.42-11.31l-12.14-8.6c-.34-.24-.5-.65-.43-1.05.08-.4.38-.73.78-.83l26.98-6.66c.08-.02.17-.03.25-.03.21,0,.42.06.59.18l13.31,9.11c.29.2.46.52.46.87,0,.12,0,3.05-.18,5-.04.49-.09,1.09-.14,1.8-.15,2.06-.39,5.17-.91,9.62-.18,1.57-1.94,15.43-6.49,17.96-.56.31-1.11.47-1.65.47"/>
      <path class="cls-10" d="M64.36,41.58l12.61,8.93s-.53,8.23.35,11.56c.88,3.33,1.93,6.66,4.21,5.43,2.28-1.23,3.68-8.23,5.96-7.53,2.28.7,2.63,3.33,4.2,8.58,1.58,5.26,2.63,10.69,5.78,8.93,3.15-1.75,5.26-11.21,5.96-17.17.7-5.96.88-9.46,1.05-11.39.17-1.93.17-4.9.17-4.9l-13.31-9.11-26.98,6.66Z"/>
      <path class="cls-12" d="M96.43,75.67c-.72-.77-1.61-3.88-2.16-5.78-.18-.64-.37-1.29-.56-1.93-.25-.84-.47-1.61-.67-2.32-1.16-4.07-1.93-6.75-4.93-7.67-.31-.09-.62-.14-.93-.14-2.42,0-3.66,2.48-4.86,4.88-.43.86-1.11,2.23-1.59,2.77-.38-.59-.83-1.91-1.37-3.94-.65-2.46-.43-8.7-.29-10.89.05-.73-.29-1.43-.88-1.85l-8.86-6.28,21.6-5.33,11.61,7.94c-.01,1.01-.06,2.51-.16,3.61-.04.51-.09,1.11-.15,1.85-.15,2.03-.38,5.1-.9,9.49-.97,8.23-3.31,14.7-4.89,15.58h-.02Z"/>
      <path class="cls-2" d="M64.68,41.5c0,.11.02.22.03.32l12.26,8.69s-.08,1.33-.13,3.13c5.27-.31,10.5-.99,15.67-2.14,3.12-.7,6.08-1.66,8.97-2.77-.17,2.42-.43,4.85-.66,7.24-.39,4-.85,8.07-1.6,12.01-.41,2.17-1.42,4.46-3.27,5.77-1.08.77-2.18-.03-3.07-1.1,1.09,3.53,2.27,6.11,4.58,4.82,3.15-1.75,5.26-11.21,5.96-17.17.7-5.96.88-9.46,1.05-11.39.17-1.93.17-4.9.17-4.9l-13.31-9.11-26.66,6.58Z"/>
      <path class="cls-2" d="M87.37,59c-2.36-.98-3.79.82-4.9,2.67-.91,1.51-1.85,3.1-3.71,1.6-.64-.52-1.16-1.22-1.6-2,.05.29.11.56.17.8.88,3.33,1.93,6.66,4.21,5.43,2.28-1.23,3.68-8.23,5.96-7.53,1.6.49,2.25,1.94,3.04,4.57,0-2.41-.62-4.48-3.15-5.54"/>
      <path class="cls-5" d="M67.78,52.54c-14.08,0-27.34-2.43-37.35-6.86-10.48-4.63-16.26-10.97-16.26-17.85s5.78-13.22,16.26-17.85c10.01-4.42,23.27-6.85,37.35-6.85s27.34,2.43,37.35,6.85c10.48,4.63,16.26,10.97,16.26,17.85s-5.77,13.22-16.26,17.85c-10.01,4.42-23.27,6.86-37.35,6.86"/>
      <path class="cls-9" d="M119.55,27.83c0,12.63-23.18,22.87-51.77,22.87s-51.77-10.24-51.77-22.87S39.19,4.96,67.78,4.96s51.77,10.24,51.77,22.87"/>
      <path class="cls-7" d="M119.55,27.83c0-3.6-1.89-7.01-5.26-10.05-9.01-6.73-25.6-11.24-44.59-11.24-28.59,0-51.77,10.24-51.77,22.87,0,3.61,1.89,7.01,5.26,10.05,9.01,6.73,25.6,11.24,44.58,11.24,28.59,0,51.77-10.24,51.77-22.87"/>
      <path class="cls-5" d="M76.89,51.39c-.35,0-.67-.17-.87-.46-.21-.31-.24-.71-.07-1.05.22-.44.88-1.78.6-2.45-.1-.26-.4-.47-.88-.64-2.19-.77-4.55-.84-6.96-.84h-.93c-1.02,0-1.83-.67-2.03-1.66-.15-.79.12-1.56.67-2.04,1.68-7.95,9.59-12.15,22.92-12.15,2.23,0,4.56.12,6.92.36,1.11.11,1.92,1.02,1.95,2.14.05.28.05.57-.01.86-.45,2.06-.82,4.05-.44,5.8.43,1.95,1.32,2.73,3.64,3.22,1.09.23,1.99.51,2.74.87.38.18.61.56.6.97,0,.41-.26.78-.64.95-7.54,3.21-16.92,5.33-27.14,6.13h-.08Z"/>
      <path class="cls-14" d="M103.7,44.3c-.74-.35-1.58-.6-2.5-.79-2.49-.52-3.89-1.45-4.45-4.02-.44-2.02,0-4.28.44-6.25.04-.19.03-.36-.01-.52.02-.54-.31-1.14-1-1.21-9.59-.98-26.61-.75-28.78,11.38-.93.38-.8,2.03.4,2.02,2.77,0,5.6-.04,8.24.89,2.27.8,1.8,2.63.86,4.54,10.32-.81,19.57-2.97,26.81-6.05"/>
      <path class="cls-5" d="M67.78,46.75c-23.85,0-42.53-8.31-42.53-18.92s18.68-18.92,42.53-18.92,42.53,8.31,42.53,18.92-18.68,18.92-42.53,18.92"/>
      <path class="cls-4" d="M108.99,27.83c0,9.72-18.45,17.61-41.21,17.61s-41.21-7.88-41.21-17.61,18.45-17.61,41.21-17.61,41.21,7.88,41.21,17.61"/>
      <path class="cls-5" d="M29.6,63.02c-.54,0-1.34-.15-2.41-.36-.4-.08-.95-.19-1.1-.2h0c-2.95,0-5.29-3.32-5.29-7.56s2.34-7.56,5.32-7.56c.12-.01.67-.12,1.06-.2,1.07-.21,1.87-.36,2.41-.36,3.19,0,5.68,3.57,5.68,8.13s-2.5,8.13-5.68,8.13"/>
      <path class="cls-16" d="M29.6,48.08c-.79,0-3.02.56-3.48.56-2.21,0-4.01,2.8-4.01,6.25s1.8,6.25,4.01,6.25c.46,0,2.68.56,3.48.56,2.41,0,4.37-3.05,4.37-6.81s-1.96-6.81-4.37-6.81"/>
      <path class="cls-5" d="M26.13,62.19c-2.84,0-5.06-3.2-5.06-7.3s2.22-7.3,5.06-7.3,5.06,3.2,5.06,7.3-2.22,7.3-5.06,7.3"/>
      <path class="cls-9" d="M30.14,54.89c0,3.45-1.79,6.25-4.01,6.25s-4.01-2.8-4.01-6.25,1.8-6.25,4.01-6.25,4.01,2.8,4.01,6.25"/>
      <path class="cls-7" d="M27,49.79c-2.21,0-4.01,2.8-4.01,6.25,0,1.61.39,3.07,1.03,4.18.61.59,1.33.93,2.1.93,2.21,0,4.01-2.8,4.01-6.25,0-1.61-.39-3.07-1.03-4.18-.61-.59-1.33-.93-2.1-.93"/>
      <path class="cls-5" d="M27.31,54.89c0,1.31-.68,2.37-1.52,2.37s-1.52-1.06-1.52-2.37.68-2.37,1.52-2.37,1.52,1.06,1.52,2.37"/>
      <path class="cls-5" d="M67.78,46.49c-18.5,0-34.67-5.16-40.23-12.83-.33-.46-.24-1.1.21-1.45,8.5-6.52,23.46-10.42,40.01-10.42s31.51,3.89,40.02,10.42c.45.35.54.99.21,1.45-5.56,7.67-21.73,12.83-40.23,12.83"/>
      <path class="cls-10" d="M67.78,22.84c-16.76,0-31.42,4.1-39.38,10.2,5.2,7.18,20.86,12.39,39.38,12.39s34.18-5.22,39.38-12.39c-7.96-6.11-22.61-10.2-39.38-10.2"/>
      <path class="cls-12" d="M67.78,45.44c17.6,0,32.61-4.71,38.52-11.35-8.32-5.84-22.29-9.68-38.13-9.68s-30.35,3.99-38.6,10.02c6.11,6.45,20.92,11,38.21,11"/>
      <path class="cls-5" d="M19.43,72.69c-.66.21-1.32.42-1.98.62-2.99.91-6.17,2.29-9.35,1.7-6.11-1.13,2.53-10.4,4.34-11.96,3.89-3.33,8.64-5.73,13.3-7.78,1.24-.55.17-2.36-1.06-1.81-5.57,2.45-11.03,5.44-15.45,9.68-2.27,2.18-7.17,8.21-4.92,11.66,3.16,4.84,10.77,1.55,15.12.11v-2.21Z"/>
      <path class="cls-2" d="M91.75,37.2c-8.11,4.08-16.65,5.96-25.54,5.61-7.33-.29-17.34-1.84-24.39-7.31-2.54-1.98-3.82-5.04-2.98-7.97-4.15,1.54-7.69,3.41-10.43,5.51,5.2,7.18,20.86,12.39,39.38,12.39s34.18-5.22,39.38-12.39c-1.76-1.35-3.85-2.6-6.22-3.74-2.27,3.28-5.33,5.95-9.19,7.89"/>
      <path class="cls-8" d="M84.07,168.77c-4.76,0-8.5-2.27-8.5-5.17s3.73-5.17,8.5-5.17,8.5,2.27,8.5,5.17-3.73,5.17-8.5,5.17"/>
      <path class="cls-10" d="M91.52,163.6c0,2.27-3.33,4.12-7.44,4.12s-7.45-1.84-7.45-4.12,3.33-4.12,7.45-4.12,7.44,1.84,7.44,4.12"/>
      <path class="cls-12" d="M84.07,166.66c-3.77,0-6.4-1.62-6.4-3.07s2.63-3.07,6.4-3.07,6.39,1.61,6.39,3.07-2.63,3.07-6.39,3.07"/>
      <path class="cls-2" d="M89.01,160.52c.76,2.51.01,4.74-3.47,5.48-3.04.64-6.94-.13-8.89-2.67,0,.09-.02.18-.02.27,0,2.27,3.33,4.12,7.45,4.12s7.44-1.84,7.44-4.12c0-1.22-.97-2.32-2.51-3.07"/>
      <path class="cls-8" d="M107.72,159.48c-8.3,0-14.8-3.39-14.8-7.71s6.5-7.71,14.8-7.71,14.8,3.39,14.8,7.71-6.5,7.71-14.8,7.71"/>
      <path class="cls-10" d="M121.47,151.77c0,3.68-6.16,6.66-13.75,6.66s-13.75-2.98-13.75-6.66,6.16-6.66,13.75-6.66,13.75,2.98,13.75,6.66"/>
      <path class="cls-12" d="M107.72,156.85c-6.97,0-12.17-2.68-12.17-5.08s5.21-5.08,12.17-5.08,12.18,2.68,12.18,5.08-5.21,5.08-12.18,5.08"/>
      <path class="cls-2" d="M116.37,146.6c2.18,2.42,2.94,5.18-.83,7.6-3.01,1.93-6.51,2.22-9.92,2.04-4.02-.21-8.81-1.51-11.64-4.41v-.05c0,3.67,6.15,6.65,13.74,6.65s13.75-2.98,13.75-6.66c0-2.09-1.99-3.95-5.11-5.17"/>
    </g>
  </g>
</svg>