<?xml version="1.0" encoding="UTF-8"?>
<svg id="Layer_2" data-name="Layer 2" xmlns="http://www.w3.org/2000/svg" viewBox="0 0 107.92 110.1">
  <defs>
    <style>
      .cls-1 {
        fill: #11fb06;
        opacity: .6;
      }
    </style>
  </defs>
  <g id="Layer_8_copy_3" data-name="Layer 8 copy 3">
    <path class="cls-1" d="M10.06,110.1c-2.88-1.89-6.14-2.33-8.18-5.5-5.86-9.08,3.18-23.14,9.99-29.43,1.19-1.1,6.75-4.7,7.03-5.16.57-.93-1.38-4.46.23-5.8,4.48-1.77,4.02,1.71,5.32,2.81,3.46,2.94,17.61,2.94,22.21,2.23,7.08-1.1,15.69-3.41,16.83-11.73,1.18-8.7-4.27-12.93-12.38-13.64-4.11-.36-21.16,1.93-22.87-.22-.83-1.14-.83-2.63,0-3.76,1.36-1.71,6.93-.49,9.17-.86-5.84-13.28-1.36-28.53,11.14-35.93,7.66-4.53,16.22-5.06,18.97,4.93,3.15,11.43-4.33,23.56-12.49,30.99l6.23,1.73c3.22-2.04,5.67-4.85,8.77-7.07,8.32-5.96,34.17-18.63,37.61-1.97,3.35,16.23-25.76,27.23-38.63,25.55-1.01.77.08,1.11.9,1.22,2.37.31,4.43-.68,6.69-.67,5.91.04,14.35,2.27,19.1,5.88,13.1,9.94,8.14,24.42-5.81,29.92-16.12,6.35-32.97-3.05-34.26-20.56l-11.55,1.83c3.65,11.05-4.08,20.42-12.15,27.03-5.1,4.18-10.83,6.26-17.03,8.19h-4.86ZM58.41,5.29c-7.99-.58-17.04,11.6-17.88,18.94-.44,3.79.65,17.89,7.23,13.9.6-.36.88-1.63,1.49-2.15,5.98-5.11,10.52-9.13,12.58-17.19.86-3.36,1.78-13.13-3.42-13.5ZM69.11,51.71c8.96,1.73,32.9-6.96,33.31-17.28.37-9.3-13.53-4.34-18.19-2.37-6.52,2.77-13.46,7.59-18.18,12.83l3.06,6.81ZM61.26,70.14c-.44.74-.14,2.23-.06,3.14,1.39,15.59,19.65,21.87,31.54,12.23,4.72-3.83,7.09-8.44,3.03-13.97-5.73-7.81-18.1-8.79-26.91-7.43-2.38.37-3.85,2.88-5.59,4.73-.57.6-1.89,1.1-2.01,1.31ZM37.86,75.64c-1.36-1.12-11.42-1.16-14-2.49-6.8,4.83-15.4,12.2-17.73,20.56-3.34,11.97,7.84,11.84,15.89,7.99,6.16-2.95,18.4-14.15,17.69-21.53-.06-.65-1.47-4.22-1.85-4.53Z"/>
  </g>
</svg>