<?xml version="1.0" encoding="UTF-8"?>
<svg xmlns="http://www.w3.org/2000/svg" xmlns:xlink="http://www.w3.org/1999/xlink" viewBox="0 0 124.95 169.19">
  <defs>
    <style>
      .cls-1 {
        fill: none;
      }

      .cls-2 {
        fill: #d1d3d4;
      }

      .cls-3 {
        fill: #6d6e71;
      }

      .cls-4 {
        fill: #231f20;
      }

      .cls-5 {
        fill: #bcbec0;
      }

      .cls-6 {
        isolation: isolate;
      }

      .cls-7 {
        mix-blend-mode: multiply;
      }

      .cls-8 {
        fill: #f1f2f2;
      }

      .cls-9 {
        clip-path: url(#clippath-1);
      }

      .cls-10 {
        clip-path: url(#clippath-2);
      }

      .cls-11 {
        fill: #670000;
      }

      .cls-12 {
        fill: #fff;
      }

      .cls-13 {
        fill: #939598;
      }

      .cls-14 {
        fill: #e6e7e8;
      }

      .cls-15 {
        clip-path: url(#clippath);
      }

      .cls-16 {
        fill: #a7a9ac;
      }
    </style>
    <clipPath id="clippath">
      <rect class="cls-1" width="124.95" height="169.19"/>
    </clipPath>
    <clipPath id="clippath-1">
      <rect class="cls-1" x="5.85" y="4.28" width="118.27" height="164.91"/>
    </clipPath>
    <clipPath id="clippath-2">
      <rect class="cls-1" x="5.85" y="4.28" width="118.27" height="164.91"/>
    </clipPath>
  </defs>
  <g class="cls-6">
    <g id="Layer_2" data-name="Layer 2">
      <g id="Layer_1-2" data-name="Layer 1">
        <g class="cls-15">
          <g class="cls-7">
            <g class="cls-9">
              <g class="cls-10">
                <path class="cls-2" d="M119.58,117.82V37.69c2.23-2.76,3.4-5.73,3.4-8.82,0-6.85-5.75-13.16-16.19-17.77-9.96-4.4-23.17-6.83-37.18-6.83s-27.22,2.42-37.18,6.83c-10.44,4.61-16.19,10.92-16.19,17.77,0,3.08,1.17,6.06,3.4,8.82v20.24c-2.99,1.72-5.82,3.7-8.32,6.1-2.26,2.17-7.14,8.17-4.9,11.61,2.74,4.2,8.83,2.25,13.22.73v41.45c0,12.95,21.95,23.1,49.97,23.1s49.97-10.14,49.97-23.1M19.51,74.16c-2.98.91-6.14,2.28-9.31,1.69-6.08-1.12,2.52-10.35,4.33-11.9,1.58-1.36,3.31-2.55,5.12-3.64v13.81s-.09.03-.14.04"/>
                <path class="cls-2" d="M85.83,158.9c-4.74,0-8.46,2.26-8.46,5.14s3.72,5.15,8.46,5.15,8.46-2.26,8.46-5.15-3.72-5.14-8.46-5.14"/>
                <path class="cls-2" d="M109.38,144.59c-8.27,0-14.74,3.37-14.74,7.67s6.47,7.67,14.74,7.67,14.74-3.37,14.74-7.67-6.47-7.67-14.74-7.67"/>
              </g>
            </g>
          </g>
          <path class="cls-4" d="M68.04,138.83c-28.02,0-49.97-10.14-49.97-23.1V26.78c0-1.01.82-1.83,1.83-1.83h96.27c1.01,0,1.83.82,1.83,1.83v88.95c0,12.95-21.95,23.1-49.97,23.1"/>
          <path class="cls-14" d="M19.91,26.78v88.95c0,11.74,21.55,21.27,48.14,21.27s48.14-9.52,48.14-21.27V26.78H19.91Z"/>
          <path class="cls-5" d="M68.04,133.33c-26.21,0-44.47-9.28-44.47-17.6V30.45h88.95v85.28c0,8.33-18.27,17.6-44.48,17.6"/>
          <path class="cls-14" d="M30.46,129.02c5.12,2.82,11.83,5.05,19.53,6.43V26.78h-19.53v102.23Z"/>
          <path class="cls-13" d="M107.2,111.45c-1.05,7.15-1.26,11.75-7.76,15-6.02,3.01-13.59,4.87-19.75,5.62-7.17.88-15.69.91-20.1.57-7.85-.61-18.51-2.94-25.64-6.45-6.95-3.42-13.52-10.64-14.04-18.78v8.32c0,11.74,21.55,21.26,48.13,21.26s48.14-9.52,48.14-21.26V26.78h-8.4c.1,25.68.2,79.36-.58,84.67"/>
          <path class="cls-4" d="M96.48,77.61c-2.76,0-3.83-3.75-5.08-8.08-.18-.62-.36-1.26-.55-1.89-.25-.85-.48-1.63-.68-2.34-1.03-3.62-1.5-5.1-2.81-5.5-.51.07-1.54,2.13-2.03,3.12-.92,1.85-1.8,3.6-3.09,4.3-.47.25-.95.38-1.41.38-2.59,0-3.57-3.72-4.28-6.45-.78-2.95-.52-9.29-.42-11.26l-12.08-8.56c-.33-.24-.5-.65-.42-1.05.08-.4.38-.72.78-.82l26.86-6.63c.08-.02.17-.03.25-.03.21,0,.42.06.59.18l13.26,9.07c.29.19.45.52.45.86,0,.12,0,3.03-.18,4.98-.04.49-.09,1.08-.14,1.79-.15,2.05-.39,5.15-.91,9.58-.18,1.57-1.93,15.37-6.46,17.89-.56.31-1.11.46-1.64.46"/>
          <path d="M64.64,40.47l12.56,8.89s-.52,8.2.35,11.51c.87,3.31,1.92,6.63,4.19,5.41,2.27-1.22,3.66-8.2,5.93-7.5,2.27.7,2.62,3.31,4.19,8.55,1.57,5.23,2.61,10.64,5.75,8.9,3.14-1.74,5.23-11.16,5.93-17.09.7-5.93.87-9.42,1.05-11.34.17-1.92.17-4.88.17-4.88l-13.25-9.07-26.86,6.63Z"/>
          <path d="M64.96,40.4c0,.11.02.21.03.32l12.21,8.65s-.08,1.32-.13,3.12c5.25-.31,10.46-.98,15.6-2.13,3.1-.69,6.05-1.65,8.93-2.75-.17,2.41-.42,4.83-.66,7.21-.39,3.98-.84,8.03-1.59,11.96-.41,2.16-1.41,4.44-3.25,5.74-1.08.76-2.17-.03-3.06-1.09,1.08,3.52,2.26,6.08,4.56,4.8,3.14-1.74,5.23-11.16,5.93-17.09.7-5.93-.82,10.93-.64,9.02.17-1.92,1.86-25.24,1.86-25.24l-13.25-9.07-26.54,6.55Z"/>
          <path class="cls-4" d="M68.04,51.38c-14.01,0-27.22-2.42-37.18-6.82-10.44-4.61-16.19-10.92-16.19-17.77s5.75-13.16,16.19-17.77c9.96-4.4,23.17-6.82,37.18-6.82s27.22,2.42,37.18,6.82c10.44,4.61,16.18,10.92,16.18,17.77s-5.75,13.16-16.18,17.77c-9.96,4.4-23.17,6.82-37.18,6.82"/>
          <path class="cls-12" d="M119.58,26.78c0,12.58-23.07,22.77-51.54,22.77s-51.54-10.19-51.54-22.77S39.58,4.02,68.04,4.02s51.54,10.19,51.54,22.77"/>
          <path class="cls-8" d="M119.58,26.78c0-3.59-1.88-6.98-5.23-10-8.97-6.7-25.49-11.19-44.39-11.19-28.46,0-51.54,10.19-51.54,22.77,0,3.59,1.88,6.98,5.23,10,8.97,6.7,25.49,11.19,44.39,11.19,28.46,0,51.54-10.19,51.54-22.77"/>
          <path class="cls-4" d="M77.11,50.24c-.35,0-.67-.17-.86-.46-.21-.31-.24-.71-.07-1.05.21-.44.87-1.77.6-2.44-.1-.26-.4-.47-.87-.64-2.18-.77-4.53-.83-6.93-.83h-.93c-1.02,0-1.83-.66-2.02-1.65-.15-.78.12-1.56.67-2.04,1.67-7.92,9.55-12.1,22.82-12.1,2.22,0,4.54.12,6.89.36,1.1.11,1.91,1.01,1.94,2.13.05.28.05.57-.01.85-.45,2.05-.82,4.03-.43,5.77.43,1.94,1.31,2.72,3.63,3.2,1.08.23,1.98.51,2.73.86.37.17.61.55.6.97,0,.41-.26.78-.64.94-7.5,3.19-16.85,5.31-27.02,6.1-.03,0-.05,0-.08,0"/>
          <path d="M103.8,43.18c-.73-.35-1.58-.6-2.49-.79-2.48-.52-3.87-1.45-4.43-4-.44-2.01,0-4.26.43-6.22.04-.19.03-.36-.01-.52.02-.54-.31-1.13-1-1.2-9.55-.97-26.5-.74-28.66,11.33-.93.37-.79,2.02.4,2.01,2.76,0,5.57-.04,8.21.89,2.26.8,1.8,2.62.86,4.52,10.27-.81,19.49-2.96,26.69-6.02"/>
          <path class="cls-4" d="M68.04,45.62c-23.74,0-42.34-8.27-42.34-18.83S44.3,7.95,68.04,7.95s42.34,8.27,42.34,18.84-18.6,18.83-42.34,18.83"/>
          <path class="cls-3" d="M109.07,26.78c0,9.68-18.37,17.53-41.03,17.53s-41.03-7.85-41.03-17.53,18.37-17.53,41.03-17.53,41.03,7.85,41.03,17.53"/>
          <path class="cls-4" d="M30.04,61.82c-.54,0-1.33-.15-2.4-.36-.4-.08-.94-.19-1.09-.2h0c-2.94,0-5.27-3.31-5.27-7.53s2.33-7.53,5.3-7.53c.12,0,.66-.12,1.06-.2,1.07-.21,1.86-.36,2.4-.36,3.17,0,5.66,3.55,5.66,8.09s-2.49,8.09-5.66,8.09"/>
          <path class="cls-16" d="M30.04,46.95c-.79,0-3.01.56-3.46.56-2.2,0-3.99,2.78-3.99,6.22s1.79,6.22,3.99,6.22c.45,0,2.67.56,3.46.56,2.4,0,4.35-3.04,4.35-6.78s-1.95-6.78-4.35-6.78"/>
          <path class="cls-4" d="M26.58,61c-2.83,0-5.04-3.19-5.04-7.27s2.21-7.27,5.04-7.27,5.04,3.19,5.04,7.27-2.21,7.27-5.04,7.27"/>
          <path class="cls-12" d="M30.57,53.73c0,3.44-1.79,6.22-3.99,6.22s-3.99-2.79-3.99-6.22,1.79-6.22,3.99-6.22,3.99,2.79,3.99,6.22"/>
          <path class="cls-8" d="M27.45,48.64c-2.2,0-3.99,2.79-3.99,6.22,0,1.6.39,3.05,1.03,4.16.61.59,1.32.93,2.09.93,2.21,0,3.99-2.79,3.99-6.22,0-1.6-.39-3.06-1.03-4.16-.61-.59-1.32-.93-2.09-.93"/>
          <path class="cls-4" d="M27.76,53.73c0,1.3-.68,2.36-1.51,2.36s-1.51-1.05-1.51-2.36.68-2.36,1.51-2.36,1.51,1.06,1.51,2.36"/>
          <path class="cls-4" d="M68.04,45.36c-18.42,0-34.51-5.13-40.05-12.77-.33-.46-.24-1.1.21-1.45,8.46-6.5,23.36-10.37,39.84-10.37s31.37,3.88,39.84,10.37c.45.35.54.99.21,1.45-5.53,7.64-21.63,12.77-40.05,12.77"/>
          <path d="M68.04,21.81c-16.69,0-31.28,4.08-39.2,10.16,5.18,7.15,20.77,12.34,39.2,12.34s34.02-5.19,39.2-12.34c-7.92-6.08-22.51-10.16-39.2-10.16"/>
          <path class="cls-4" d="M19.91,71.45c-.65.21-1.31.42-1.97.62-2.98.91-6.14,2.28-9.31,1.69-6.08-1.12,2.52-10.35,4.32-11.9,3.87-3.32,8.6-5.71,13.24-7.75,1.23-.54.17-2.35-1.06-1.81-5.54,2.44-10.98,5.42-15.38,9.63-2.26,2.17-7.14,8.17-4.9,11.61,3.14,4.82,10.73,1.54,15.05.11v-2.2Z"/>
          <path class="cls-11" d="M84.26,167.09c-4.74,0-8.46-2.26-8.46-5.14s3.71-5.14,8.46-5.14,8.46,2.26,8.46,5.14-3.72,5.14-8.46,5.14"/>
          <path d="M91.68,161.95c0,2.26-3.32,4.1-7.41,4.1s-7.41-1.83-7.41-4.1,3.32-4.1,7.41-4.1,7.41,1.83,7.41,4.1"/>
          <path class="cls-11" d="M107.81,157.85c-8.27,0-14.74-3.37-14.74-7.67s6.47-7.67,14.74-7.67,14.74,3.37,14.74,7.67-6.47,7.67-14.74,7.67"/>
          <path d="M121.5,150.17c0,3.66-6.13,6.63-13.69,6.63s-13.69-2.97-13.69-6.63,6.13-6.63,13.69-6.63,13.69,2.97,13.69,6.63"/>
        </g>
      </g>
    </g>
  </g>
</svg>