<?xml version="1.0" encoding="UTF-8"?>
<svg id="Layer_1" xmlns="http://www.w3.org/2000/svg" version="1.1" viewBox="0 0 662.09 662.09">
  <!-- Generator: Adobe Illustrator 30.0.0, SVG Export Plug-In . SVG Version: 2.1.1 Build 123)  -->
  <defs>
    <style>
      .st0 {
        fill: none;
        stroke: #430f68;
        stroke-miterlimit: 10;
        stroke-width: 8px;
      }

      .st1 {
        fill: #fff;
      }

      .st2 {
        isolation: isolate;
      }

      .st3 {
        fill: #430f68;
      }
    </style>
  </defs>
  <g>
    <path class="st1" d="M336.54,43.13v-.04l-.02-.04h-.01c162.03,0,293.91,131.86,293.91,293.9s-131.87,293.91-293.91,293.91c-29.79,0-59.33-4.44-87.76-13.22-82.54-25.88-149.31-86.42-183.06-166.08-15.32-36.31-23.06-74.9-23.06-114.52,0-162.03,131.87-293.91,293.91-293.91h0Z"/>
    <path class="st3" d="M5.48,336.95v.04C5.48,154.12,153.64,5.96,336.51,5.96s331.03,148.16,331.03,331.03-148.16,331.04-331.05,331.06c-34.42,0-67.59-5.32-98.79-14.95-93.17-29.16-168.59-98.18-206.24-187.13-16.66-39.71-26-83.24-26-129.02h.02,0ZM48.6,458.81c35.94,84.73,106.82,149.12,194.64,176.62,30.2,9.33,61.56,14.11,93.23,14.11v-.11h.04c172.33.01,312.45-140.15,312.45-312.44S508.8,24.55,336.51,24.55,24.06,164.71,24.06,337c0,42.19,8.29,83.17,24.54,121.81Z"/>
    <path class="st0" d="M336.54,43.13v-.04l-.02-.04h-.01c162.03,0,293.91,131.86,293.91,293.9s-131.87,293.91-293.91,293.91c-29.79,0-59.33-4.44-87.76-13.22-82.54-25.88-149.31-86.42-183.06-166.08-15.32-36.31-23.06-74.9-23.06-114.52,0-162.03,131.87-293.91,293.91-293.91h0Z"/>
  </g>
  <g class="st2">
    <path class="st3" d="M171.7,475.39c-65.84,2.53-69.62-89.23-25.28-121.71-9.66-39.84,3.83-90.65,28.88-122.89,8.7-11.18,37.88-32.84,41.87-39.74,5.23-9.04.67-12.06,12.34-21.65,42.76-35.13,156.75-32.68,202.15-2.71,14.63,9.66,10.41,15.44,17.71,25.34,5.5,7.42,21.42,17.7,29.24,27.43,28.71,35.8,44.3,88.93,35.15,134.24,8.6,6.48,17.3,10.92,23.26,20.38,12.79,20.38,10.05,66.72-6.02,85.5-8.83,10.31-39.25,26.99-42.11,5.71-1.5-11.21-1.04-111.04,1.32-116.74,1.06-2.63,5.52-4.85,6.85-9,5.73-17.71-8.24-63.72-16.74-80.97-5.52-11.18-32.21-50.6-44.59-50.47-4.88.05-8,5.52-15.32,4.06-4.83-.98-21.13-13.09-28.97-16.59-44.2-19.71-84.64-16.15-127.7,3.61-6.63,3.04-13.53,10.25-20.05,11.88-7.58,1.88-11.18-2.97-15.59-2-13.9,3.04-43.81,40.8-50.01,54.06-7.06,15.08-20.71,65.09-13.17,79.11,1.33,2.5,6.74,4.24,6.74,5.14v128.05h0l.02-.02h.02v-.02Z"/>
    <path class="st3" d="M454.47,323.96c16.53-1.91,26.47,4.78,27.82,21.03,2.45,30.01,3.77,105.21-.29,133.59-3.71,25.77-46.82,22.42-49.69-2-4.9-41.82,3.65-93.04.19-135.88.13-9.07,14.44-15.84,21.98-16.71h0v-.02h-.01Z"/>
    <path class="st3" d="M196.02,326.36c10.34-2.1,29.98-.37,32.3,11.99v144.95c-7.85,19.38-44.07,16.46-47.4-4.63v-137.97c.49-7.52,8.25-12.94,15.13-14.34h-.03Z"/>
  </g>
</svg>