<?xml version="1.0" encoding="UTF-8"?>
<svg id="Layer_1" xmlns="http://www.w3.org/2000/svg" version="1.1" xmlns:xlink="http://www.w3.org/1999/xlink" viewBox="0 0 468.51 448.01">
  <!-- Generator: Adobe Illustrator 30.1.0, SVG Export Plug-In . SVG Version: 2.1.1 Build 136)  -->
  <defs>
    <style>
      .st0 {
        fill: #3685c0;
      }

      .st1 {
        fill: #825a51;
      }

      .st2 {
        fill: #39547d;
      }

      .st3 {
        stroke: #a54a2f;
      }

      .st3, .st4, .st5, .st6, .st7, .st8, .st9, .st10, .st11, .st12, .st13, .st14, .st15, .st16, .st17, .st18, .st19, .st20, .st21, .st22, .st23, .st24, .st25, .st26, .st27, .st28 {
        fill: none;
      }

      .st3, .st4, .st5, .st6, .st8, .st9, .st10, .st11, .st12, .st13, .st14, .st15, .st16, .st17, .st18, .st19, .st20, .st21, .st22, .st24, .st26, .st27, .st28 {
        stroke-linecap: round;
        stroke-linejoin: round;
        stroke-width: .34px;
      }

      .st29 {
        fill: #56331c;
      }

      .st30 {
        fill: #f59192;
      }

      .st4 {
        stroke: #103b5b;
      }

      .st31 {
        fill: #bc8155;
      }

      .st32 {
        fill: #e1436a;
      }

      .st33 {
        fill: #081a26;
      }

      .st34 {
        fill: #e2d0d0;
      }

      .st35 {
        fill: #a06f47;
      }

      .st36 {
        fill: #ceccc7;
      }

      .st37 {
        fill: #103b5b;
      }

      .st38 {
        fill: #a12727;
      }

      .st39 {
        fill: #a62929;
      }

      .st40 {
        fill: #396284;
      }

      .st41 {
        fill: #c13b36;
      }

      .st42 {
        fill: #631113;
      }

      .st43 {
        fill: #fff;
      }

      .st44 {
        fill: #62686c;
      }

      .st45 {
        fill: #9fad83;
      }

      .st46 {
        fill: #f8a181;
      }

      .st47 {
        fill: #e7524a;
      }

      .st5 {
        stroke-dasharray: .74 .74;
      }

      .st5, .st8, .st20, .st24 {
        stroke: #90a33b;
      }

      .st48 {
        fill: #60724c;
      }

      .st49 {
        fill: #2d2025;
      }

      .st50 {
        fill: #c08d59;
      }

      .st51 {
        fill: #f05e59;
      }

      .st52 {
        fill: #2f1811;
      }

      .st6 {
        stroke: #0f3856;
      }

      .st53 {
        fill: #ea8d4d;
      }

      .st54 {
        fill: #c2c7cc;
      }

      .st55 {
        fill: #ffda9f;
      }

      .st56 {
        fill: #f2ece6;
      }

      .st57 {
        fill: #f26e4e;
      }

      .st58 {
        fill: #ce4a4a;
      }

      .st8 {
        stroke-dasharray: .75 .75;
      }

      .st59 {
        fill: #1f2815;
      }

      .st9 {
        stroke: #3e4347;
      }

      .st60 {
        fill: #92989e;
      }

      .st10 {
        stroke: #030302;
      }

      .st61 {
        fill: #febf43;
      }

      .st62 {
        clip-path: url(#clippath-1);
      }

      .st63 {
        fill: #735347;
      }

      .st64 {
        fill: #3a312b;
      }

      .st65 {
        fill: #e9e5d5;
      }

      .st11 {
        stroke: #59351c;
      }

      .st66 {
        fill: #42261f;
      }

      .st67 {
        fill: #231f20;
      }

      .st68 {
        fill: #f2e2e2;
      }

      .st12 {
        stroke: #211c18;
      }

      .st69 {
        fill: #171115;
      }

      .st13 {
        stroke: #821431;
      }

      .st14 {
        stroke: #c15728;
      }

      .st15 {
        stroke: #381f1b;
      }

      .st16 {
        stroke: #000;
      }

      .st17 {
        stroke: #082e44;
      }

      .st70 {
        fill: #493f39;
      }

      .st71 {
        fill: #381a12;
      }

      .st72 {
        fill: #9eb6c6;
      }

      .st73 {
        fill: #ad8749;
      }

      .st74 {
        fill: #f0628d;
      }

      .st18 {
        stroke: #514c41;
      }

      .st19 {
        stroke: #0d3854;
      }

      .st75 {
        fill: #2e6ca3;
      }

      .st76 {
        fill: #559ac4;
      }

      .st77 {
        fill: #1d5592;
      }

      .st78 {
        fill: #705046;
      }

      .st79 {
        fill: #68453e;
      }

      .st80 {
        fill: #fedabb;
      }

      .st81 {
        fill: #9e6c43;
      }

      .st82 {
        fill: #cf6c4e;
      }

      .st83 {
        fill: #753717;
      }

      .st84 {
        fill: #f8b979;
      }

      .st85 {
        fill: #563a34;
      }

      .st86 {
        fill: #f27f7c;
      }

      .st87 {
        fill: #2169a9;
      }

      .st88 {
        fill: #fcb772;
      }

      .st20 {
        stroke-dasharray: .71 .71;
      }

      .st21 {
        stroke: #942020;
      }

      .st89 {
        fill: #a54a2f;
      }

      .st22 {
        stroke: #3e2515;
      }

      .st23 {
        stroke: #e04275;
        stroke-width: 5.01px;
      }

      .st90 {
        fill: #ffe9c7;
      }

      .st91 {
        clip-path: url(#clippath-2);
      }

      .st92 {
        fill: #5087a5;
      }

      .st93 {
        fill: #174460;
      }

      .st94 {
        fill: #885632;
      }

      .st95 {
        fill: #ec8b42;
      }

      .st96 {
        fill: #8c6558;
      }

      .st97 {
        fill: #f29657;
      }

      .st98 {
        fill: #fcc59a;
      }

      .st25 {
        stroke: #68cbdc;
      }

      .st26 {
        stroke: #492b17;
      }

      .st99 {
        clip-path: url(#clippath);
      }

      .st100 {
        fill: #f1666e;
      }

      .st101 {
        fill: #e2a029;
      }

      .st27 {
        stroke: #7d1c34;
      }

      .st102 {
        fill: #d34654;
      }

      .st103 {
        fill: #19100d;
      }

      .st28 {
        stroke: #a76828;
      }

      .st104 {
        fill: #facaca;
      }

      .st105 {
        fill: #918a7e;
      }

      .st106 {
        fill: #f9ac8e;
      }

      .st107 {
        fill: #5c4d47;
      }
    </style>
    <clipPath id="clippath">
      <rect class="st7" x="78.56" y="74.74" width="346.93" height="288.57" transform="translate(9.85 448.9) rotate(-84.5)"/>
    </clipPath>
    <clipPath id="clippath-1">
      <rect class="st7" x="315.06" y="166.59" width="35.89" height="34.93"/>
    </clipPath>
    <clipPath id="clippath-2">
      <rect class="st7" x="317.05" y="167.55" width="31.91" height="32.99" transform="translate(117.89 497.88) rotate(-84.5)"/>
    </clipPath>
  </defs>
  <path class="st43" d="M114.57,11.5c-3.95-.38-7.45,2.51-7.83,6.46l-35.71,370.83c-.38,3.95,2.51,7.46,6.46,7.83l338.91,32.63c3.95.38,7.45-2.51,7.83-6.46l35.71-370.84c.38-3.95-2.51-7.45-6.46-7.83L114.57,11.5Z"/>
  <path class="st23" d="M114.57,11.5c-3.95-.38-7.45,2.51-7.83,6.46l-35.71,370.83c-.38,3.95,2.51,7.46,6.46,7.83l338.91,32.63c3.95.38,7.45-2.51,7.83-6.46l35.71-370.84c.38-3.95-2.51-7.45-6.46-7.83L114.57,11.5Z"/>
  <g class="st99">
    <path class="st36" d="M350.54,142.12c1.41.3,6.45,3.14,7.1,4.95s-5.28,10.76-10.2,8.07.36-12.53.36-12.53"/>
    <path class="st18" d="M350.54,142.12c1.41.3,6.45,3.14,7.1,4.95s-5.28,10.76-10.2,8.07.36-12.53.36-12.53"/>
    <path class="st105" d="M351.63,143.81c1.28.65,4.07,2.81,3.69,4.35-.38,1.53-5.03,5.09-6.08,3.62"/>
    <path class="st46" d="M316.45,148.6c-6.47,1.4-26.72,20.45-33.55,25.82-4.46,5.01,1.78,16.22,8.16,14.8,3.92-.87,20.69-7.62,27.91-17.05"/>
    <path class="st3" d="M316.45,148.6c-6.47,1.4-26.72,20.45-33.55,25.82-4.46,5.01,1.78,16.22,8.16,14.8,3.92-.87,20.69-7.62,27.91-17.05"/>
    <path class="st46" d="M285.39,174.37c-2.17-.25-5.64.67-8.66,2.24-7.69,4.01-16.51,12.24-23.46,15.99-3.71,2.92,1.79,11.67,5.37,10,8.28-2.75,24.09-6.56,30.71-10.01,2.64-1.38,7.17-4.51,8.37-6.16"/>
    <path class="st3" d="M285.39,174.37c-2.17-.25-5.64.67-8.66,2.24-7.69,4.01-16.51,12.24-23.46,15.99-3.71,2.92,1.79,11.67,5.37,10,8.28-2.75,24.09-6.56,30.71-10.01,2.64-1.38,7.17-4.51,8.37-6.16"/>
    <path class="st46" d="M258.74,201.52c-.41,2.31-1.67,5.62-4.34,7.76-2.67,2.14-6.04,4.09-8.02,2.1-1.49-1.5,4-7.82,4-7.82"/>
    <path class="st3" d="M258.74,201.52c-.41,2.31-1.67,5.62-4.34,7.76-2.67,2.14-6.04,4.09-8.02,2.1-1.49-1.5,4-7.82,4-7.82"/>
    <path class="st98" d="M255.8,191.96c8.56-5.09,20.3-16.34,27.03-16.79,3.06-.2,9.32.55,10.64,3.28-2.53,3.38-26.2,12.03-35.29,15.35-1.46-.13-2.38-1.85-2.38-1.85"/>
    <path class="st102" d="M319.65,174.36c-2.6,1.89-6.99,6.38-8.89,6.29-1.91-.09-2.25-7.47-10.11-14.25-4.56-3.93-5.74-3.33-4.71-4.72,1.02-1.38,5.55-4.55,7.52-6.3,5.14-4.59,12.5-9.55,17.24-9.46"/>
    <path class="st27" d="M319.65,174.36c-2.6,1.89-6.99,6.38-8.89,6.29-1.91-.09-2.25-7.47-10.11-14.25-4.56-3.93-5.74-3.33-4.71-4.72,1.02-1.38,5.55-4.55,7.52-6.3,5.14-4.59,12.5-9.55,17.24-9.46"/>
    <path class="st100" d="M321.38,147.03c-2.17-1.53-9.2,1.87-14.2,6.65-5.14,4.92-9.27,6.78-9.85,7.8-.59,1.03,1.21,1.25,5.72,5.84,9.59-9.78,23.35-16.73,18.33-20.3"/>
    <path class="st36" d="M295.08,162.81c-1.46-.19-5.24,2.98-5.21,3.63.05,1.21,2.76,2.5,5.22,5.83,5.4,7.29,5.63,14.45,6.73,14.8s4.03-1.79,5.82-3.76c1.78-1.97-5.86-19.61-12.55-20.49"/>
    <path class="st18" d="M295.08,162.81c-1.46-.19-5.24,2.98-5.21,3.63.05,1.21,2.76,2.5,5.22,5.83,5.4,7.29,5.63,14.45,6.73,14.8s4.03-1.79,5.82-3.76c1.78-1.97-5.86-19.61-12.55-20.49h-.01Z"/>
    <path class="st56" d="M292.74,164.74c-.31-.11-2.3,1.3-2.17,1.95.12.65,3.46,2.12,6.44,6.93s3.52,7.49,3.52,7.49c1.72-1.26,2.82-2.65,2.82-2.65-1.51-7.45-7.09-12.51-10.62-13.71"/>
    <path class="st2" d="M290.83,167.88c.75-.64,4.32-3.88,5.89-4.35.82.04.54.84.54.84,0,0-4.2,2.5-5.47,4.04l-.96-.53h0Z"/>
    <path class="st2" d="M300.17,182.34c2.47-.95,7.34-4.96,7.34-4.96l.68,2.77s-6.22,4.02-7.38,4.37l-.64-2.18h0Z"/>
    <path class="st2" d="M298.97,179.25c2.47-.95,7.34-4.96,7.34-4.96l.63,2.04s-6.22,4.02-7.38,4.37l-.6-1.45h.01Z"/>
    <path class="st2" d="M291.75,164.79c6.34,4.06,10.46,10.92,12.26,21.41.55-.26.96-.65.96-.65,0,0-2.68-15.98-12.65-21.42-.41.17-.57.66-.57.66"/>
    <path class="st102" d="M297.46,158.83c-1.47-.7-2.3,1.98-3.5,2.88-1.21.89-2.4,1.73-1.42,2.11,3.46.11,7.92,4.31,10.57,10.05,4.54,9.83,3.61,11.67,4.28,11.79,1.43.26,5.17-2.34,5.3-3.73.12-1.38-2.73-19.46-15.24-23.1"/>
    <path class="st27" d="M297.46,158.83c-1.47-.7-2.3,1.98-3.5,2.88-1.21.89-2.4,1.73-1.42,2.11,3.46.11,7.92,4.31,10.57,10.05,4.54,9.83,3.61,11.67,4.28,11.79,1.43.26,5.17-2.34,5.3-3.73.12-1.38-2.73-19.46-15.24-23.1h.01Z"/>
    <path class="st100" d="M297.7,159.69c-1.75-.38-2.13,1.65-2.95,2.23s-.97.72,1.04,1.62c2.52,1.13,6.24,4.2,9.85,13.42.36.9,1.52-.15,2.71-.89.79-.49,1.66-.26,1.65-1.54,0-3.15-5.55-13.36-12.3-14.84"/>
    <path class="st46" d="M322.92,294.15c-.33,4.33,1.08,12.02,1,19.23-.09,7.21-7.56,40.94-7.81,47-.41,9.84-11.59,7.68-11.47-1.09-1.58-13.93-5.77-46.8-1.57-62.76"/>
    <path class="st3" d="M322.92,294.15c-.33,4.33,1.08,12.02,1,19.23-.09,7.21-7.56,40.94-7.81,47-.41,9.84-11.59,7.68-11.47-1.09-1.58-13.93-5.77-46.8-1.57-62.76"/>
    <path class="st98" d="M303.78,346.91c.3,4.87,1.12,11.67,1.12,11.67,2.43-1.2,5.33,1.35,6.66,4.28.99-3.52,2.01-15.13,2.01-15.13-3.42.7-8.29.54-9.79-.82"/>
    <path class="st46" d="M351.6,298.82c6.72,18.76-1.48,51.65-1.78,64.14-3.06,6.56-9,4.68-11.54.55-1.42-7.76-6.86-32.85-6.29-50.97.17-5.32,2.01-11.57,2.38-15.6"/>
    <path class="st3" d="M351.6,298.82c6.72,18.76-1.48,51.65-1.78,64.14-3.06,6.56-9,4.68-11.54.55-1.42-7.76-6.86-32.85-6.29-50.97.17-5.32,2.01-11.57,2.38-15.6"/>
    <path class="st46" d="M341.49,204.1c8.05,6.89,11.99,19.1,12.38,30.02.3,8.38-14.83,19.94-25.42,20.16-10.6.22-23.32-10.13-25.22-18.74s4.1-27.84,12.18-32.75"/>
    <path class="st46" d="M303.02,228.2c-6.93,14.78-6.71,57.31-5.65,69.53.81,9.31,11.19,12.49,17.66,3.89,7.92-10.53,16.27-48.72,15.38-56.72"/>
    <path class="st3" d="M303.02,228.2c-6.93,14.78-6.71,57.31-5.65,69.53.81,9.31,11.19,12.49,17.66,3.89,7.92-10.53,16.27-48.72,15.38-56.72"/>
    <path class="st46" d="M356.87,233.82c4.05,8.47-4.83,56.42-9.03,67.15-4.22,10.77-13.34,13.56-17.93,1.94-5.43-13.78-5.8-49.93-5.65-55.31"/>
    <path class="st3" d="M356.87,233.82c4.05,8.47-4.83,56.42-9.03,67.15-4.22,10.77-13.34,13.56-17.93,1.94-5.43-13.78-5.8-49.93-5.65-55.31"/>
    <path class="st94" d="M352.92,221.04c1.11,3.55,1.84,7.18,2.16,10.62.8,8.35-11.77,26.01-22.33,26.86-10.57.85-25.73-13.97-28.14-22.45-.72-2.56-.82-6.04-.39-9.82"/>
    <path class="st94" d="M302.21,229.62c-8.56,23.87-6.47,100.08-.59,105.01,4.55,4.09,14.76,4.11,18.72,1.05,4.38-5.9,7.14-22.31,7.88-33.07.75-10.76,4.37-39.1,4.61-47.98"/>
    <path class="st26" d="M302.21,229.62c-8.56,23.87-6.47,100.08-.59,105.01,4.55,4.09,14.76,4.11,18.72,1.05,4.38-5.9,7.14-22.31,7.88-33.07.75-10.76,4.37-39.1,4.61-47.98"/>
    <path class="st94" d="M359.56,229.22c8.65,16.07-.86,57.69-.13,67.6.73,9.91-.69,29.6-6.42,40.27-2.06,4.9-15.73,5.42-19.1,1.87-8.27-6.64-2.93-38.84-6.29-65.44"/>
    <path class="st26" d="M359.56,229.22c8.65,16.07-.86,57.69-.13,67.6.73,9.91-.69,29.6-6.42,40.27-2.06,4.9-15.73,5.42-19.1,1.87-8.27-6.64-2.93-38.84-6.29-65.44"/>
    <path class="st94" d="M358.98,235.07c1.52,2.65.97,13.89-.57,18.3-.54,1.33-1.53.09-1.53.09,2.36-7.34,1.98-15.66,1.07-18.46"/>
    <path class="st26" d="M358.98,235.07c1.52,2.65.97,13.89-.57,18.3-.54,1.33-1.53.09-1.53.09,2.36-7.34,1.98-15.66,1.07-18.46"/>
    <path class="st94" d="M357.31,257.53c.16,3.33-2.5,33.38-3.41,37.3-.9,3.92-.68,11.4-.21,19.02s-1.97,19.77-2.67,21.9c.69.36,1.28-.26,1.28-.26,0,0,3.39-13.73,2.89-22.28s-.97-14.13-.04-18.7c.94-4.57,4.08-32.23,3.34-37.84-.19-1.66-1.19.86-1.19.86"/>
    <path class="st26" d="M357.31,257.53c.16,3.33-2.5,33.38-3.41,37.3-.9,3.92-.68,11.4-.21,19.02s-1.97,19.77-2.67,21.9c.69.36,1.28-.26,1.28-.26,0,0,3.39-13.73,2.89-22.28s-.97-14.13-.04-18.7c.94-4.57,4.08-32.23,3.34-37.84-.19-1.66-1.19.86-1.19.86h.01Z"/>
    <path class="st81" d="M298.69,255.1c-2.33,29.76-.44,74.94,4.58,79.25,3.24,2.1,9.1,3.01,11.44.85,3.69-8.91,10.46-49.92,8.94-64.07-.29-2.74-6.3-3.28-9.74-10.05,2.43,2.48,11.09,6.35,16.75,6,.13,22.83-1.16,60.52,4.01,70.26,6.17,4.08,9.08,1.99,11.71-.01,5.55-11.52,4.41-30.25,5.9-40.43.66-4.48,3.35-23.04,3.29-39.24,0,0-4.86-.11-7.7-3.42-5.47-6.36-4.27-13.82-5.69-13.58-4.63,1.31-10.59,2.5-19.35,1.93-4.51-.29-8.03-.9-10.83-1.68-.71.48-1.79,7.26-5.59,11.12s-7.71,3.06-7.71,3.06"/>
    <path class="st81" d="M346.28,240.58c1.59,8.5,6.58,11.07,9.77,10.47,1.12-2.66,2.02-10.93,1.06-13.07-3.54.23-5.74,1.44-10.82,2.6"/>
    <path class="st94" d="M342.55,240.69c.08,1.42,1.83,18.35,16.09,17.09.52-.38.98-5.04.05-4.97-8.56.13-11.35-4.62-12.37-12.74-.8-.9-3.83-.49-3.76.62"/>
    <path class="st26" d="M342.55,240.69c.08,1.42,1.83,18.35,16.09,17.09.52-.38.98-5.04.05-4.97-8.56.13-11.35-4.62-12.37-12.74-.8-.9-3.83-.49-3.76.62h0Z"/>
    <path class="st81" d="M357.87,253.46c-1.69,4.43-10.73.29-12.22-8,1.79,5.25,9.24,8.38,12.22,8"/>
    <path class="st81" d="M307.93,238.43c-1.47,7.68-5.69,10.7-8.55,9.78.27-4.08,1.22-11.3,2.47-13.78,2.75,1.66,4.53,2.85,6.08,4"/>
    <path class="st94" d="M308.12,237.61c.1-.46,3.65,1.65,3.76,2.41-1.02,6.62-5.05,16.1-14.09,13.88-.87-.65-.26-5.04.52-5.04,6.12,1.1,8.29-4.01,9.81-11.25"/>
    <path class="st26" d="M308.12,237.61c.1-.46,3.65,1.65,3.76,2.41-1.02,6.62-5.05,16.1-14.09,13.88-.87-.65-.26-5.04.52-5.04,6.12,1.1,8.29-4.01,9.81-11.25Z"/>
    <path class="st81" d="M299.28,249.63c1.69,4.61,9.4-.76,8.4-8.23-1.23,5.49-5.49,8.46-8.4,8.23"/>
    <path class="st73" d="M312.32,242.72c-.39,1.38-2.54,11.45-12.44,13.8-.17,7.3-1.05,32.87-.32,36.85.74,3.98,3.87,6.74,3.48,8.35-.39,1.62-2.08-1.41-2.76,1.1-.68,2.51,1.09,26.69,2.88,28.37,1.79,1.67,8.47,2.47,8.79,1.94s-3.35-9.97-3.35-9.97c0,0,4.72,10,5.45,8.62.73-1.39,6.2-60.33,4.41-62.64s-7.85-9.26-7.46-10.15,9.44,3.89,14.26,5.11c.68-2.41-.95-4.99-.95-4.99,0,0-6.74-1.43-6.86-3.4s-.57-12.11-.57-12.11l-4.55-.88h-.01Z"/>
    <path class="st73" d="M328.09,244.32c-.95,1.96-.59,19.02.23,20.29.82,1.27,10.66-.41,10.66-.41,0,0-6.21,1.91-6.45,3.85-.24,1.93-1.27,30.57-.25,33.92,1.03,3.35,3.4,6.06,4.81,6.88s3.88.25,3.88.25c0,0-2.8,1.89-4.25,1.67s-4.3-3.23-4.33-2.67,1.31,21.86,4.29,25.38c2.52,1.29,6.95,1.46,6.95,1.46,0,0,3.43-12.67,4.12-23.46.69-10.78,3.15-24.52,2.17-26.27-.98-1.75-1.89-1.69-.19-5.96s3.07-19.33,2.27-20.45c-6.63-1.36-7.57-9.06-10.16-16.24-3.39,1.53-13.75,1.76-13.75,1.76"/>
    <path class="st73" d="M320.32,244.09c-.23,1.69-.11,10.21,1.05,11.08,1.16.86,4.09.75,4.09.75l.37-11.47-5.51-.35h0Z"/>
    <path class="st73" d="M301.61,238.06c.43,0,4.75,2.67,4.73,4.04-.02,1.36-3.78,6.08-6.45,5.85,0-4.74,1.72-9.89,1.72-9.89"/>
    <path class="st73" d="M347.24,241.68c-.13,1.91,2.67,9.54,9.68,9.38-4.16-1.54-7.19-4.54-8.77-9.32-.58-.52-.91-.06-.91-.06"/>
    <path class="st94" d="M318.35,241.71c.11,2.05.09,11.91,1.26,14.15,1.18,2.24,5.41,2.17,5.87,2.55.46.38.47,6.48,1.19,9.17.56,1.04.5.49.5.49,0,0-.52-8.58-.35-15.66.17-7.07.91-11.27.91-11.27"/>
    <path class="st81" d="M319.79,242.32c-.17,2.04.11,11.09.78,12.84.78,2.02,4.86,2.12,5.1,1.59.24-.53.61-14.01.61-14.01"/>
    <path class="st73" d="M320.27,244.64c-.52.54.15,9.43.79,10.25s3.59,1.33,3.83.9c.25-.43.25-10.58.25-10.58,0,0-4.56-.73-4.97-.58"/>
    <path class="st94" d="M360.47,229.96c1.39,1.27,1.9,6.5,1.65,6.97s-7.19.82-12.45,2.24c-5.26,1.42-18.52,4.14-27.83,3.02-9.31-1.12-18.78-5.83-21.27-8.48-.46-1.12.67-6.52,1.93-8.14,5.69,6.01,16.16,9.21,30.78,6.94s25.53-4.07,27.2-2.55"/>
    <path class="st26" d="M360.47,229.96c1.39,1.27,1.9,6.5,1.65,6.97s-7.19.82-12.45,2.24c-5.26,1.42-18.52,4.14-27.83,3.02-9.31-1.12-18.78-5.83-21.27-8.48-.46-1.12.67-6.52,1.93-8.14,5.69,6.01,16.16,9.21,30.78,6.94s25.53-4.07,27.2-2.55h-.01Z"/>
    <path class="st64" d="M355.55,331.32s2.11.5,2.4,1.49c.28.99-1.97,6.68-1.96,8.03,0,1.34-.27,2.8-1.01,3.48-2.03,1.87-6.54,3.56-12.75,2.68-5.09-.73-9.54-2.73-12-5.56-1.17-1.63-.72-5.33-.93-7.78-.21-2.44-1.79-4.11.52-5.47.14,1.57.39,2.61.39,2.61,0,0,4.43,4.36,11.45,5.36,6.37.91,9.45.09,12.96-2.22.63-1.04.93-2.6.93-2.6"/>
    <path class="st12" d="M355.55,331.32s2.11.5,2.4,1.49c.28.99-1.97,6.68-1.96,8.03,0,1.34-.27,2.8-1.01,3.48-2.03,1.87-6.54,3.56-12.75,2.68-5.09-.73-9.54-2.73-12-5.56-1.17-1.63-.72-5.33-.93-7.78-.21-2.44-1.79-4.11.52-5.47.14,1.57.39,2.61.39,2.61,0,0,4.43,4.36,11.45,5.36,6.37.91,9.45.09,12.96-2.22.63-1.04.93-2.6.93-2.6v-.02Z"/>
    <path class="st70" d="M330.35,331.92c9.58,6.03,19.61,7.22,26.09.88.97.06,1.93,1.67-3.75,4.32-.19,1.08-.84,7.1-1.55,8.29s-9.21,2.74-15.25-.98c-.19-1.75-.51-8.15-.51-8.15,0,0-4.72-2.42-5.03-4.37"/>
    <path class="st64" d="M299.53,329.54s-1.96.24-2.33,1.19c-.38.95.95,6.87.78,8.2-.17,1.33-.09,2.81.48,3.57,1.6,2.1,5.44,4.33,11.13,4.21,4.66-.1,8.9-1.55,11.45-4.05,1.25-1.47,1.3-5.21,1.78-7.61.49-2.4,2.11-3.86.2-5.49-.31,1.53-.67,2.53-.67,2.53,0,0-4.51,3.78-10.94,3.92-5.83.13-8.5-1.06-11.37-3.78-.44-1.11-.52-2.7-.52-2.7"/>
    <path class="st12" d="M299.53,329.54s-1.96.24-2.33,1.19c-.38.95.95,6.87.78,8.2-.17,1.33-.09,2.81.48,3.57,1.6,2.1,5.44,4.33,11.13,4.21,4.66-.1,8.9-1.55,11.45-4.05,1.25-1.47,1.3-5.21,1.78-7.61.49-2.4,2.11-3.86.2-5.49-.31,1.53-.67,2.53-.67,2.53,0,0-4.51,3.78-10.94,3.92-5.83.13-8.5-1.06-11.37-3.78-.44-1.11-.52-2.7-.52-2.7h0Z"/>
    <path class="st70" d="M322.09,333.21c-9.34,4.82-18.48,4.77-23.54-2.3-.88-.06-1.94,1.43,2.84,4.74.04,1.1-.11,7.15.38,8.42.49,1.27,7.93,3.83,13.81.89.39-1.71,1.45-8.03,1.45-8.03,0,0,4.54-1.83,5.05-3.72"/>
    <path class="st107" d="M299.49,332.58c-1.15.96,1.13,2.48,4.18,4.21,3.9,1.66,7.18,2.77,14.66-1.03.59-.71.38-1.02.38-1.02,0,0-5.83,2.91-11.74,1.79s-7.47-3.95-7.47-3.95"/>
    <path class="st107" d="M332.51,333.19c-.87-.55-.36,1.37,4.85,3.71,1.08,1.22-.06,7.5,1.19,8.35,1.24.85,5.58.91,6.77.44s2.05-7.48,2.05-7.48c0,0,4.1.46,6.4-2.62-7.77,2.3-15.22,1.46-21.26-2.4"/>
    <path class="st46" d="M356.92,138.48c-3.69,2.08-6.29,11.29-2.66,13.93,4.29,3.54,1.68,10.1-10.81,7.83-12.48-2.28-11.82-11.32-7.12-12.76,4-1.23,4.52-10.93,3.14-12.88"/>
    <path class="st3" d="M356.92,138.48c-3.69,2.08-6.29,11.29-2.66,13.93,4.29,3.54,1.68,10.1-10.81,7.83-12.48-2.28-11.82-11.32-7.12-12.76,4-1.23,4.52-10.93,3.14-12.88"/>
    <path class="st98" d="M345.06,154.78c-.94-2.46-3.46-9.01-4.67-9.11-1.74-.15-2.95,5.55-2.95,5.55,0,0,1.12,3.28,7.62,3.57"/>
    <path class="st46" d="M349.3,361.7c.67,3.43,9.51,14.1,11.04,19.56,1.76,6.25-3.8,10.85-6.74,12.14s-11-3.04-12.64-7.2c-1.64-4.15-3.8-22.6-3.8-22.6"/>
    <path class="st98" d="M350.12,348.64c-.19,2.93-.8,11.94-1.04,15.35-2.78-1.45-5.16.46-7.3,2.48-.93-2.76-2.66-17.99-2.66-17.99,3.38,2.04,9.76,1.99,10.99.16"/>
    <path class="st102" d="M311.98,162.26c-.97,4.39-2.46,23.28-5,34.25-1.87,8.11-4.91,21.24-6.33,27.76-.5,2.3-1.61,4.65-1.41,5.35.75,2.69,6.38,8.54,23,10.43,16.63,1.89,35.04-3.13,38.37-1.26,3.76,2.11.62-10.78,3.29-22.68.4-1.79,5.81-26.16,8.49-31.57,3.85-12.55,5.9-22.34,1.22-26.14-4.08-3.32-14.66-6.35-15.53-6.34-2.35-.22-3.57,4.23-10.62,3.84-7.64-.43-10.44-4.84-9.81-8.93-.44-.77-3.87-1.25-5.64-.99-4.71-.5-9.22-.87-11.31-.07"/>
    <path class="st27" d="M311.98,162.26c-.97,4.39-2.46,23.28-5,34.25-1.87,8.11-4.91,21.24-6.33,27.76-.5,2.3-1.61,4.65-1.41,5.35.75,2.69,6.38,8.54,23,10.43,16.63,1.89,35.04-3.13,38.37-1.26,3.76,2.11.62-10.78,3.29-22.68.4-1.79,5.81-26.16,8.49-31.57,3.85-12.55,5.9-22.34,1.22-26.14-4.08-3.32-14.66-6.35-15.53-6.34-2.35-.22-3.57,4.23-10.62,3.84-7.64-.43-10.44-4.84-9.81-8.93-.44-.77-3.87-1.25-5.64-.99-4.71-.5-9.22-.87-11.31-.07"/>
    <path class="st100" d="M342.18,238.11c-17.33,4.67-38.47-.94-41.79-7.92-.62-1.08-.26-3.54,1.05-3.47,6.79,10.41,29.99,12.07,41.84,7.83,5.33-1.38,8.74-2.25,10.33-1.76,1.59.48,1.08,2.91-1.02,3.02-2.09.11-5.13.82-10.41,2.31"/>
    <path class="st100" d="M361.04,155.85c1.76.12,9.92,2.46,10.78,4.38-10.37,8.15-16.53,33.37-21.3,48.64-1.61,5.15-6.03,11.41-7.31,12.73.87,1.53,6.72-4.76,9.29-7.14-.16,5.58-2.93,8.33-.78,16.48-8.61,2-16.36,6.14-31.31,3.84-14.95-2.3-18.5-8.08-18.8-9.44,1.17-4.98,5.04-18.44,6.26-26.02.76-4.76,3.54-25.79,4.99-36.6,1-7.54,3.4-11.75,6.08-15.41,3.9-2.19,10.9-.78,10.9-.78-1.2,5.96-1.51,11.76,8.95,15.08,9.23,2.93,18.14.52,22.25-5.78"/>
    <path class="st100" d="M354.85,152.59c.71-.63,4.5,1,4.22,2.45-.48,2.47-6.82,8.82-19.63,5.12-11.86-3.42-10.38-12.45-9.32-13.39s5.04-.37,5.06.62c.02,1.21-.93,6.11,6.52,8.12,7.66,2.07,10.4-.49,13.15-2.92"/>
    <path class="st60" d="M284.14,377.93c-4.14,2.54-2.25,10.42-.32,12.57,3.74,4.15,11.63,3.29,17.05-.94,5.26-4.11,7.52-8.32,8.83-7.94,1.32.39,5.13-2.97,5.99-4.41s1.82-7.21,1.26-7.61"/>
    <path class="st9" d="M284.14,377.93c-4.14,2.54-2.25,10.42-.32,12.57,3.74,4.15,11.63,3.29,17.05-.94,5.26-4.11,7.52-8.32,8.83-7.94,1.32.39,5.13-2.97,5.99-4.41s1.82-7.21,1.26-7.61"/>
    <path class="st54" d="M282.12,385.59c.64,2.44,4.52,6.71,12.36,4.31,7.84-2.39,11.48-8.6,12.94-11.09-1.07,5.79-6.28,11.14-12.08,13.27-5.8,2.13-12.87.48-13.22-6.49"/>
    <path class="st44" d="M309.58,365c2.12-2.7-4.96-8.06-7.47-4.56s-17.05,15.82-12.06,19.12,14.96-8.73,19.54-14.56"/>
    <path class="st60" d="M302.78,362.44c-.01,1.75-4.61,6.43-7.61,9.15s-4.38,5.04-2.87,6.24c2.7,2.15,9.42-8.24,11.45-11.23,2.03-2.98-.57-4.41-.96-4.16"/>
    <path class="st60" d="M305.11,359.72c.78-.35,4.26,1.64,3.32,2.94-.94,1.29-6.05-1.71-3.32-2.94"/>
    <path class="st40" d="M317.17,364.83c.91-1.99.55-4.28-.98-4.93-.23,2.17-2.39,5.06-5.45,4.8-2.19-.19-3.89-.45-5.54,1.37-1.66,1.82-8.13,10.5-9.88,11.96-1.9,1.8-5-.06-4.04-2.13.72-1.56,9.14-10.38,10.39-11.74.91-.99,3.32-4.38,2.9-5.95-.19-1.03-2.8-.75-4.04,1.88-1.24,2.63-11.79,9.71-15.84,13.42-4.04,3.72-4.61,11.56.12,14.98,3.83,2.77,13.42,2.14,19.44-5.82,1.21-1.6,2.44-3.35,3.62-5.07,2.64-3.21,8.17-4.86,8.97-6.9.6-1.55.46-4.39.33-5.87"/>
    <path class="st19" d="M317.17,364.83c.91-1.99.55-4.28-.98-4.93-.23,2.17-2.39,5.06-5.45,4.8-2.19-.19-3.89-.45-5.54,1.37-1.66,1.82-8.13,10.5-9.88,11.96-1.9,1.8-5-.06-4.04-2.13.72-1.56,9.14-10.38,10.39-11.74.91-.99,3.32-4.38,2.9-5.95-.19-1.03-2.8-.75-4.04,1.88-1.24,2.63-11.79,9.71-15.84,13.42-4.04,3.72-4.61,11.56.12,14.98,3.83,2.77,13.42,2.14,19.44-5.82,1.21-1.6,2.44-3.35,3.62-5.07,2.64-3.21,8.17-4.86,8.97-6.9.6-1.55.46-4.39.33-5.87h0Z"/>
    <path class="st92" d="M316.04,364.45c-1.45,2.92-6.1,3.85-7.52,3.58s-3.31.6-1.34,1.38c1.98.78,3.59.69,3.59.69-3.41,4.01-7.98,9.08-10.45,11.72-3.47,3.72-12.07,4.8-15.31,2.19-3.08-2.49-1.61-7.8,1.12-10.8,2.74-3.01,12.65-9.5,13.12-10.23.25.81.97,1.46,1.64.81.39-.38.19-2.8.67-4.45.48-1.66,3.03-1.14,1.67-.35-1.57.92-1.71,4.52-3.88,6.89-1.45,1.58-5.52,5.83-8.29,9.33-1.93,2.44,2.29,5.7,4.84,3.02,1.67-1.74,4.27-4.95,5.81-6.93,3.47-4.47,4.84-6.99,7.26-6.3,3.58,1.02,5.66-1.05,6.6-2.45.94-1.4,1.03.78.46,1.91"/>
    <path class="st93" d="M301.56,361.52c.95.48.39,1.83-.84,1.39-1.23-.44-.32-1.97.84-1.39"/>
    <path class="st93" d="M290.44,374.27c.95.48.39,1.83-.84,1.39-1.22-.44-.32-1.97.84-1.39"/>
    <path class="st93" d="M293.91,370.12c.95.48.39,1.83-.84,1.39-1.22-.44-.32-1.97.84-1.39"/>
    <path class="st93" d="M297.59,366.24c.95.48.39,1.83-.84,1.39-1.22-.44-.32-1.97.84-1.39"/>
    <path class="st93" d="M307.2,365.82c.98.43.49,1.81-.76,1.43s-.43-1.96.76-1.43"/>
    <path class="st93" d="M296.93,378.44c.98.44.46,2.18-.78,1.8-1.25-.38-.41-2.33.78-1.8"/>
    <path class="st93" d="M300.31,374.55c.98.43.49,1.81-.76,1.43-1.24-.38-.43-1.96.76-1.43"/>
    <path class="st93" d="M303.88,370.06c.98.43.49,1.81-.76,1.43s-.43-1.96.76-1.43"/>
    <path class="st65" d="M306.44,365.83c-2.24,1.26-7.93.88-9.11.62-.84.25-.21.95-.21.95,1.69.73,6.17,1.25,9.57-.46.78-.58.29-1.38-.26-1.12"/>
    <path class="st65" d="M301.55,362.76c-.56,2.32,1.65,6.95,2.28,7.85.02.79-.9.51-.9.51-1.28-1.17-3.25-4.73-2.61-8.18.34-.86,1.31-.73,1.23-.18"/>
    <path class="st65" d="M303.07,370.13c-2.29,1.19-8.04.61-9.23.31-.85.22-.22.96-.22.96,1.71.79,6.23,1.48,9.7-.13.8-.56.32-1.39-.25-1.15"/>
    <path class="st65" d="M298.15,366.85c-.61,2.33,1.57,7.1,2.2,8.03,0,.8-.93.49-.93.49-1.28-1.22-3.22-4.9-2.52-8.38.36-.85,1.33-.69,1.24-.14"/>
    <path class="st65" d="M299.53,374.42c-2.26,1.11-7.98.32-9.17-.02-.84.19-.21.95-.21.95,1.71.85,6.22,1.69,9.65.22.78-.53.29-1.37-.27-1.15"/>
    <path class="st65" d="M294.6,370.98c-.56,2.3,1.67,7.12,2.32,8.07.02.8-.91.45-.91.45-1.3-1.27-3.28-5-2.65-8.43.34-.84,1.32-.65,1.24-.09"/>
    <path class="st65" d="M304.07,363.63c1.78-.85,6.76-.95,7.19,2.02.43,2.98-1.85,5.19-3.88,4.38s-3.21-5.25-3.43-5.72c.12-.68.49-.6,1.13-.08.65.52,1.86,4.8,2.96,4.87,1.47.09,2.25-2.85,1.59-3.94s-4.47-1.15-5-.81"/>
    <path class="st65" d="M303.71,363.54c-1.01-.57-8.94-.62-12.94,1.37-.37.48-.13,1.76.48,1.34.61-.41,8.87-2.73,12.71-1.95"/>
    <path class="st65" d="M304.77,363.57c.31-2.26-3.65-5.8-6.63-4.09-2.99,1.7-2.27,3.95.13,3.48s4.56,1.11,5.5,1.17c.94.06.51-.55-.51-1.41-1.68-1.41-5.48-.48-5.87-.96-.4-.47,1.73-2.09,3.75-1.44,1.45.47,2.62,2.11,2.44,3.35"/>
    <path class="st65" d="M304.43,364.44c-.54.91-.77,4.59,3.87,8.21.66.49-.06,1.45-1,.91-.93-.53-6.12-6.4-3.75-9.46.51-.47.87.34.87.34"/>
    <path class="st65" d="M304.4,362.76c.87.19,2.02,2.44.23,2.15-1.78-.29-1.79-2.49-.23-2.15"/>
    <path class="st60" d="M362.25,385.65c3.12,3.28,1.81,13.84-3.33,15.43-4.69,1.45-9.72-.89-12.74-3.92-4.59-4.61-6.29-9.88-6.58-10.75-.75-2.27-2.85-4.27-3.71-7.05-.62-2-.16-11.95.64-12.63"/>
    <path class="st9" d="M362.25,385.65c3.12,3.28,1.81,13.84-3.33,15.43-4.69,1.45-9.72-.89-12.74-3.92-4.59-4.61-6.29-9.88-6.58-10.75-.75-2.27-2.85-4.27-3.71-7.05-.62-2-.16-11.95.64-12.63"/>
    <path class="st54" d="M362.61,395.77c-1.12,2.67-6.32,5.86-13.01,1.52s-7.53-10.47-8.24-13.19c-.55,5.7,2.2,11.14,7.06,14.68,4.86,3.55,12.49,4.52,14.19-3.02"/>
    <path class="st44" d="M343.35,368.22c-1.44-3.3,6.46-7.65,8.1-3.43,1.64,4.23,12.84,20.31,7.39,22.72-5.45,2.41-12.39-12.18-15.48-19.3"/>
    <path class="st60" d="M349.19,363.46c-.63-.54-4.64.72-4.1,2.18.53,1.46,6.33-.3,4.1-2.18"/>
    <path class="st60" d="M350.68,368c-.46,1.64,2.6,7.24,4.67,10.6,2.08,3.35,3.34,6.34,1.54,6.86-2.8.81-7.12-10.48-8.22-13.82s1.71-3.97,2.01-3.64"/>
    <path class="st40" d="M337.72,361.98c1.22,2.14,1.93,4.43,4.62,5.47,2,.77,3.79.35,4.97,2.63,1.19,2.28,5.49,12.8,6.84,14.71,1.42,2.3,4.76,1,4.3-1.39-.35-1.8-6.48-12.89-7.38-14.58-.66-1.23-1.74-3.91-1.1-5.46-.27-.74-.17-2.58-.01-3.94,1.5-.66,2.23,1.2,2.48,3.83.29,3.08,7.03,12.2,10.08,16.97,3.05,4.78,3.19,13.99-2.24,17.4-3.25,2.04-12.83.34-16.55-8.51-3.11-7.41-5.13-17.65-6.72-19.88-1.95-2.71-1.14-6.98.71-7.24"/>
    <path class="st19" d="M337.72,361.98c1.22,2.14,1.93,4.43,4.62,5.47,2,.77,3.79.35,4.97,2.63,1.19,2.28,5.49,12.8,6.84,14.71,1.42,2.3,4.76,1,4.3-1.39-.35-1.8-6.48-12.89-7.38-14.58-.66-1.23-1.74-3.91-1.1-5.46-.27-.74-.17-2.58-.01-3.94,1.5-.66,2.23,1.2,2.48,3.83.29,3.08,7.03,12.2,10.08,16.97,3.05,4.78,3.19,13.99-2.24,17.4-3.25,2.04-12.83.34-16.55-8.51-3.11-7.41-5.13-17.65-6.72-19.88-1.95-2.71-1.14-6.98.71-7.24h0Z"/>
    <path class="st92" d="M337.35,366.05c.76,3.38,4.98,5.36,6.39,5.38,1.41.02,3.02,1.34.98,1.74-2.04.4-3.56-.04-3.56-.04,2.39,4.96,4.38,12.44,6.17,15.75,2.1,3.91,8.35,6.65,12.97,4.6,4.7-2.09,3.58-9.56,1.83-12.91-1.96-3.76-8.21-11.61-8.5-12.48-.42.8-.87.94-1.37.11-.29-.48-.08-3.1-.19-4.95-.1-1.85-.69-4.03-1.59-3.76-.68.2-.12,2.37.02,3.82.14,1.47.85,4.85,2.41,7.81,1.04,1.98,4,7.32,5.89,11.6,1.32,2.99-3.39,5.51-5.25,2.15-1.22-2.19-3-6.13-4.04-8.55-2.34-5.45-3.11-8.39-5.56-8.19-3.63.3-5.16-2.31-5.75-3.99-.6-1.68-1.14.6-.85,1.91"/>
    <path class="st93" d="M351.75,366.05c-1.01.3-.76,1.85.5,1.65s.73-2.01-.5-1.65"/>
    <path class="st93" d="M359.6,381.86c-1.01.3-.76,1.85.5,1.64,1.26-.2.73-2.01-.5-1.64"/>
    <path class="st93" d="M357.18,376.74c-1.01.3-.76,1.84.5,1.64,1.26-.2.73-2.01-.5-1.64"/>
    <path class="st93" d="M354.51,371.88c-1.01.3-.76,1.85.5,1.65s.73-2.01-.5-1.65"/>
    <path class="st93" d="M345.47,369.38c-1.03.25-.85,1.81.41,1.67,1.27-.13.83-1.97-.41-1.67"/>
    <path class="st93" d="M352.51,385.2c-1.02.25-.85,1.8.42,1.66,1.27-.14.83-1.97-.42-1.66"/>
    <path class="st93" d="M349.9,380.03c-1.03.25-.85,1.81.42,1.67,1.26-.14.83-1.97-.42-1.67"/>
    <path class="st93" d="M347.7,374.73c-1.03.25-.85,1.8.42,1.67,1.26-.14.83-1.97-.42-1.67"/>
    <path class="st65" d="M346.18,369.55c1.86,1.81,7.35,2.63,8.52,2.61.74.44,0,1.05,0,1.05-1.77.41-6.13,0-9-2.52-.62-.78.02-1.51.49-1.13"/>
    <path class="st65" d="M351.49,367.36c.04,2.57-3.05,6.97-3.85,7.78-.19.83.75.73.75.73,1.47-.96,4.1-4.29,4.23-8.07-.14-.97-1.09-1.05-1.13-.45"/>
    <path class="st65" d="M348.47,374.81c1.92,1.75,7.51,2.36,8.71,2.3.76.41,0,1.06,0,1.06-1.79.47-6.24.22-9.2-2.2-.63-.76,0-1.52.48-1.16"/>
    <path class="st65" d="M353.84,372.4c.08,2.59-3,7.14-3.8,7.98-.18.84.77.71.77.71,1.48-1.02,4.11-4.47,4.18-8.29-.15-.97-1.12-1.01-1.15-.41"/>
    <path class="st65" d="M350.92,380.08c1.9,1.65,7.52,2.04,8.72,1.94.76.38,0,1.05,0,1.05-1.81.53-6.27.46-9.22-1.83-.63-.72.02-1.5.5-1.16"/>
    <path class="st65" d="M356.34,377.51c.05,2.54-3.11,7.15-3.92,8.01-.19.83.77.67.77.67,1.5-1.06,4.18-4.56,4.31-8.32-.15-.95-1.12-.96-1.16-.36"/>
    <path class="st65" d="M348.9,367.74c-1.51-1.28-6.22-2.44-7.27.59-1.04,3.04.65,5.86,2.75,5.43,2.11-.42,4.18-4.84,4.49-5.29.03-.74-.33-.74-1.06-.32-.73.41-2.8,4.66-3.86,4.5-1.42-.21-1.52-3.48-.67-4.49.85-1.01,4.5-.25,4.93.22"/>
    <path class="st65" d="M349.27,367.73c1.08-.38,8.63,1.25,12.01,4.2.25.59-.25,1.88-.74,1.31s-7.85-4.77-11.66-4.76"/>
    <path class="st65" d="M348.26,367.53c.19-2.44,4.7-5.33,7.18-2.9,2.48,2.43,1.32,4.65-.86,3.64-2.18-1.01-4.57.19-5.48.06-.91-.14-.37-.69.79-1.37,1.9-1.13,5.31.66,5.78.24.48-.42-1.2-2.58-3.26-2.32-1.48.18-2.94,1.66-3.04,3"/>
    <path class="st65" d="M348.39,368.51c.32,1.07-.25,5-5.43,7.82-.73.37-.25,1.54.75,1.18,1-.37,7.19-5.43,5.58-9.17-.39-.6-.9.17-.9.17"/>
    <path class="st65" d="M348.78,366.75c-.87.01-2.44,2.15-.68,2.22s2.24-2.24.68-2.22"/>
    <path class="st46" d="M367.16,219.78c-2.28-4.68-4.95-35.02-6.56-38.98,4.7-6.48,12.98-5.47,17.65-3.27,4.71,6.1,7.77,27.69,5.83,38.51"/>
    <path class="st3" d="M367.16,219.78c-2.28-4.68-4.95-35.02-6.56-38.98,4.7-6.48,12.98-5.47,17.65-3.27,4.71,6.1,7.77,27.69,5.83,38.51"/>
    <path class="st98" d="M364.57,201.66l2.05,11.23s2.22-4.76,9.98-4.21c-.33-6.54-1.88-9.72-1.88-9.72,0,0-6.79-1.16-10.14,2.7"/>
    <path class="st102" d="M360.16,178.35c.54,2.4,1.01,10.52,1.73,11.95.72,1.44.71-.34,5.89-2.49,8.93-3.7,15.11.81,15.99-.74.87-1.54-3.96-24.97-10.15-28.66"/>
    <path class="st27" d="M360.16,178.35c.54,2.4,1.01,10.52,1.73,11.95.72,1.44.71-.34,5.89-2.49,8.93-3.7,15.11.81,15.99-.74.87-1.54-3.96-24.97-10.15-28.66"/>
    <path class="st100" d="M360.6,176.4c1.94,6.34,1.84,9.13,2.45,10.05.61.92.38.5,6.08-1.33,5.85-1.87,8.24,0,8.94-.71s-1.42-20.63-6.25-24.18c-3.71-3.38-13.1,10-11.22,16.17"/>
    <path class="st36" d="M361.04,196.09c-.07,1.69.95,7.94,1.31,8.48.36.55,1.43,1.05,1.43,1.05,0,0-.75-1.34-.29-1.78s3.11-3.38,8.61-4.12c8.44-1.14,12.22,2.25,12.78,2.76l.3,2.1s.79-.76,1.19-1.38c.97-1.52-.5-6.33-1.17-9.18-.71-3.01-12.33-3.95-17.22-1.74-4.89,2.21-6.93,3.81-6.93,3.81"/>
    <path class="st18" d="M361.04,196.09c-.07,1.69.95,7.94,1.31,8.48.36.55,1.43,1.05,1.43,1.05,0,0-.75-1.34-.29-1.78s3.11-3.38,8.61-4.12c8.44-1.14,12.22,2.25,12.78,2.76l.3,2.1s.79-.76,1.19-1.38c.97-1.52-.5-6.33-1.17-9.18-.71-3.01-12.33-3.95-17.22-1.74-4.89,2.21-6.93,3.81-6.93,3.81h0Z"/>
    <path class="st56" d="M362.75,203.53c3.92-6.37,13.7-5.15,18.13-3.92-.53-1.67-1.95-3.51-1.95-3.51-8-1.8-14.4.99-16.94,3.51-.09,1.72.77,3.92.77,3.92"/>
    <path class="st2" d="M363.91,203.2c-.14-.86-1.52-6.58-1.09-8.05.46-.66.98-.11.98-.11,0,0,.44,5.94,1.06,7.58l-.94.58h-.01Z"/>
    <path class="st2" d="M380.87,200.28c.5-2.39-.35-7.64-.35-7.64l2.66.52s.11,6.65-.21,7.74l-2.1-.61h0Z"/>
    <path class="st2" d="M377.47,199.65c.49-2.39-.3-7.93-.3-7.93l2.03.28s.11,6.65-.21,7.73l-1.52-.08h0Z"/>
    <path class="st2" d="M361.3,200.83c9.16-4.92,13.16-5,25.06-1.79.07-.55-.36-1.15-.36-1.15-2.02-.52-12.71-5.3-24.71,2.13-.07.4,0,.81,0,.81"/>
    <path class="st102" d="M360.31,191.21c-1.26,1.22-.77,4.05-.61,5.53.16,1.49,1.12,2.03,1.99,1.31,8.35-6.92,22.41-3.46,24.43-2.74,1.69.59.68-6.81-.49-7.51-1.16-.7-16.29-5.35-25.33,3.41"/>
    <path class="st27" d="M360.31,191.21c-1.26,1.22-.77,4.05-.61,5.53.16,1.49,1.12,2.03,1.99,1.31,8.35-6.92,22.41-3.46,24.43-2.74,1.69.59.68-6.81-.49-7.51-1.16-.7-16.29-5.35-25.33,3.41h0Z"/>
    <path class="st100" d="M361.04,191.19c-1.46,1.26-.6,3.94-.52,4.94.08,1,.63,1.58,2.31-.09,1.69-1.68,8.3-5.03,16.58-3.27,1.66-.05,3.87-4.06,1.03-5.39-2.8-1.31-14-.86-19.41,3.81"/>
    <path class="st36" d="M339.24,141.55c-.53-.16-6.97,2.73-8.68,4.26s-1.45,10.82-1.33,11.62c.12.81,7.78-4.13,9.39-4.41.82-.15,1.31.86,1.31.86,0,0-.33-2.24-1.04-3.01-.72-.77-2.09-3.05-1.97-3.98s1.23-1.49,1.23-1.49"/>
    <path class="st18" d="M339.24,141.55c-.53-.16-6.97,2.73-8.68,4.26s-1.45,10.82-1.33,11.62c.12.81,7.78-4.13,9.39-4.41.82-.15,1.31.86,1.31.86,0,0-.33-2.24-1.04-3.01-.72-.77-2.09-3.05-1.97-3.98s1.23-1.49,1.23-1.49"/>
    <path class="st36" d="M355.54,147.86c-.62.92-4.15,5.24-12.22,5.76-1.16.68-1.58,1.33-1.58,1.33,0,0,.99-.14,2.02.52,1.02.66.94,10.15,3.11,10.52,1.08.18,9.95-5.62,13.33-12.17.24-1.48-2.09-6.75-3.91-8.38"/>
    <path class="st18" d="M355.54,147.86c-.62.92-4.15,5.24-12.22,5.76-1.16.68-1.58,1.33-1.58,1.33,0,0,.99-.14,2.02.52,1.02.66.94,10.15,3.11,10.52,1.08.18,9.95-5.62,13.33-12.17.24-1.48-2.09-6.75-3.91-8.38"/>
    <path class="st46" d="M326.73,99.25c-1.61-.43-3.93-6.2-8.37-4.07-2.72,1.31-3.02,12.21,3.33,14.5,2.65.95,4.89-2.67,4.92-2.78"/>
    <path class="st3" d="M326.73,99.25c-1.61-.43-3.93-6.2-8.37-4.07-2.72,1.31-3.02,12.21,3.33,14.5,2.65.95,4.89-2.67,4.92-2.78"/>
    <path class="st46" d="M323.53,103.9c.44-4.16-3.02-6.44-4.6-7.16,1.81,3.01,1.8,10.1,1.24,11.28"/>
    <path class="st46" d="M343.15,143.77h0c-2.19-.21-4.33-.59-6.37-1.12-6.15-1.6-12.16-6.67-15.69-13.23-3.88-7.21-4.52-15.59-1.79-23.6.18-.52.39-1.33.66-2.35,1.57-5.99,4.83-18.47,14.3-26.04,5.9-5.34,14.8-7.86,24.44-6.94,5.25.5,10.41,2.05,14.94,4.46,4.9,2.62,8.9,6.11,11.88,10.4,5.87,8.44,7.26,19.37,4.01,31.6-2.19,8.27-8.46,15.62-17.64,20.69-8.69,4.8-19.16,7.03-28.72,6.11"/>
    <path class="st89" d="M358.65,70.93c18.93,1.82,38.05,17.28,30.45,45.93-4.59,17.3-26.59,28.35-45.91,26.49-2.14-.21-4.25-.57-6.3-1.11-11.35-2.95-23.3-18.31-17.18-36.27,1.2-3.51,3.79-19.39,14.83-28.2,6.01-5.45,15.05-7.71,24.12-6.84M358.73,70.08c-4.65-.45-9.33-.08-13.52,1.07-4.42,1.21-8.2,3.22-11.24,5.96-4.13,3.3-7.57,7.96-10.25,13.84-2.21,4.86-3.45,9.59-4.19,12.41-.27,1.02-.48,1.82-.65,2.32-1.46,4.28-1.98,8.61-1.56,12.87.38,3.87,1.52,7.59,3.38,11.06,1.8,3.34,4.25,6.35,7.09,8.71,2.77,2.3,5.84,3.94,8.87,4.73,2.06.54,4.23.91,6.44,1.13,9.65.93,20.21-1.32,28.97-6.16,9.28-5.13,15.62-12.57,17.84-20.96,1.71-6.44,2.16-12.53,1.34-18.1-.76-5.12-2.58-9.78-5.41-13.85-3.02-4.34-7.07-7.88-12.03-10.53-4.57-2.44-9.79-4-15.1-4.51"/>
    <path class="st46" d="M379.39,124.08c2.71-.99,12.11-4.91,14.66.49,1.96,4.13-6.89,12.94-13.64,11.71-3.47-.62-3.76-5.57-3.72-5.69"/>
    <path class="st3" d="M379.39,124.08c2.71-.99,12.11-4.91,14.66.49,1.96,4.13-6.89,12.94-13.64,11.71-3.47-.62-3.76-5.57-3.72-5.69"/>
    <path class="st98" d="M375.73,108.68c-1.73,13.28-16.65,38.32-41.69,30.66-11.2-3.42-19.23-21.14-12.96-36.18,1.91-4.59,2.51-9.59,7.96-17.17,2.34-1.09,5.32-2.32,5.32-2.32-1.72,1.8-.97,5.38.76,5.78,2.52.58,8.13-.87,10.9-3.1-1.36,3.67-1.11,6.76,1.35,8.35,4.4,2.85,19.11-2.6,22.87-2.86,4.37,3.83,6.01,12.87,5.49,16.84"/>
    <path class="st80" d="M337.7,111.31c-1.48-.13-2.72,1.88-1.19,2.66s2.93-2.51,1.19-2.66"/>
    <path class="st71" d="M366.96,93.23c-1.47-.9-5.74,0-6.03.96-.3.95,5.43.79,11.07,7.84.75-2.7-3.52-7.87-5.04-8.8"/>
    <path class="st106" d="M337.51,114.33c-1.37,0-1.6.61-3.09.71-1.98.13-1.02,1.67.86,2.36,1.88.7,3.87,1.4,5.84,1.74,1.98.34,1.74-1.3.36-2.13-1.02-.62-2.36-2.69-3.97-2.68"/>
    <path class="st82" d="M335.98,116c-.22-.48-2.43-.7-2.31-.2.2.86,2.73,1.19,2.31.2"/>
    <path class="st106" d="M343.79,115.04c1.58,1.77.99,4.81-2.3,4.13-1.06-.12.3-.84.3-.84,1.71-.1,2.04-1.03,2-3.29"/>
    <path class="st82" d="M339.89,117.19c.53-.31,2.64.95,2.22,1.32-.66.58-3.15-.77-2.22-1.32"/>
    <path class="st57" d="M381.48,127.62c5.27-2.98,10.05-2.49,11.12.06-2.93-.29-8.62.95-9.25,2.32.87,2.39-2.14,3.09-3.3,2.56,3.99-1.45,1.43-4.93,1.43-4.93"/>
    <path class="st98" d="M382.73,125.19c3.15-3.11,7.94-5.02,10.77-1.55.78,1.48.14,2.46.14,2.46-.61-1.64-5.85-2.39-10.91-.9"/>
    <path class="st46" d="M350.81,126.02c1.37,1.92-1.14,2.4-3.56,1.12,1.23-.3,1.98-3.32,3.56-1.12"/>
    <path class="st46" d="M325.78,117.63c-1.83,1.5-.45,2.36,2.28,2.3-.97-.82-.6-3.67-2.28-2.3"/>
    <path class="st38" d="M327.51,119.77c-.35-.05.34,1.76,1.18,5.23.43,1.76,1.72,3.04,3.55,4.2,3.4,2.14,7.97,2.4,10.54.94,1.83-1.05,4.8-2.64,6.02-3.01.37-.11-.31-.07-.68-.34-4.4-2.34-12.49-2.78-20.61-7.01"/>
    <path class="st42" d="M332.04,122.82c-1.22,1.4,3.21,7.7,7.4,7.37,4.2-.34,6.46-3.41,6.12-4.45-2.11-.28-12.46-4.16-13.53-2.92"/>
    <path class="st34" d="M330.37,120.8c-.18,1.48,1.01,3.48,5.63,4.84,5.55,1.63,7.39,1.33,9.75.59-3.98-1.78-10.63-3.6-15.38-5.43"/>
    <path class="st86" d="M334.52,129.44c3.75,1.26,7.57,1.05,10.74-.7-2.39,1.63-6.51,4.26-10.94,2.74-4.43-1.52-6.08-6.23-6.27-8.77.5,1.13,2.72,5.47,6.47,6.74"/>
    <path class="st47" d="M335.09,121.52c1.34,1.1,1.29.26,3.72,1.07,1.81.61,5.86,2.99,9.48,3.89-3.66.11-8.21-1.36-12.6-2.72-3.77-1.16-6.53-2.83-8.19-4,2.83,1.06,5.89.37,7.58,1.75"/>
    <path class="st41" d="M349.94,126.21c.75,1.36-2.56,1.08-4.4.13.63.03,2.09.32,3.19,0,.89-.27.99-.5,1.21-.12"/>
    <path class="st41" d="M329.28,121.01c-1.16-.78-2.03-1.26-2.23-2.08-.12-.52-.41-.87-.7-.57-.86.89.72.95,1.73,3.22"/>
    <path class="st68" d="M330.99,122.17c-.5,1.97,8.57,5.64,11.47,3.75-3.33-.09-10.24-2.8-11.47-3.75"/>
    <path class="st71" d="M334.71,83.85c1.29.39,2.89,5.27,1.79,4.65-5.33-2.99-9.12-1.2-9.19-1.9-.16-1.45,5.77-3.25,7.4-2.75"/>
    <path class="st69" d="M393.51,107.46c.93,5.79.85,11.53-3.44,14.01,0,0-7.19-.27-12.69,6.04,0,0-1.66.53-3.72-1.02,5.4-7.31,9.56-22.71,3.72-30.61,3.13,1.54,7.22,8.56,6.62,13.48"/>
    <path class="st16" d="M393.51,107.46c.93,5.79.85,11.53-3.44,14.01,0,0-7.19-.27-12.69,6.04,0,0-1.66.53-3.72-1.02,5.4-7.31,9.56-22.71,3.72-30.61,3.13,1.54,7.22,8.56,6.62,13.48"/>
    <path class="st69" d="M354.88,78.78c-4.85.38-7.27,8.68-6.85,11.97-2.1-3.92-1.47-10.77,6.1-12.84"/>
    <path class="st69" d="M350.25,61.06c23.88-3.92,44.66,10.79,44.01,22.87,10.12.17,8.37,28.89-2.44,36.09,0,0-8.01-3.5-18.16,6.46,14.13-16.29,7.22-32.31,2.11-38.57,0,0,1.4-.99,4.78-1.46-7.32-.72-23.17,7.87-27.01,6.49-2.95-1.07-4.88-10.12-.67-14.42,0,0-12.84,9.58-15.38,8.3-2.54-1.29-1.61-7.05,5.08-9.87,0,0-11.66.22-17.12,11.32-4.87-7.27,2.3-23.51,24.78-27.2"/>
    <path class="st16" d="M350.25,61.06c23.88-3.92,44.66,10.79,44.01,22.87,10.12.17,8.37,28.89-2.44,36.09,0,0-8.01-3.5-18.16,6.46,14.13-16.29,7.22-32.31,2.11-38.57,0,0,1.4-.99,4.78-1.46-7.32-.72-23.17,7.87-27.01,6.49-2.95-1.07-4.88-10.12-.67-14.42,0,0-12.84,9.58-15.38,8.3-2.54-1.29-1.61-7.05,5.08-9.87,0,0-11.66.22-17.12,11.32-4.87-7.27,2.3-23.51,24.78-27.2h.02Z"/>
    <path class="st69" d="M391.65,84.49c3.53-2.19,3.42-6.74,2.79-8.1,2.46-.08,2.91,4.41,1.37,5.97,4.98-1.61,6.41,2.41,6.48,4.61-1.88-2.37-6.51-2.67-7.76-1.49"/>
    <path class="st16" d="M391.65,84.49c3.53-2.19,3.42-6.74,2.79-8.1,2.46-.08,2.91,4.41,1.37,5.97,4.98-1.61,6.41,2.41,6.48,4.61-1.88-2.37-6.51-2.67-7.76-1.49"/>
    <path class="st49" d="M388.09,83.98c-15.35-2.85-30.38,4.28-35.54,4.74,1.85-5.58,11.5-11.86,17.17-11.31-9.13-2.14-18.55,5.66-18.81,7.54,2.69-10.79,15.95-14.38,24.21-10.91-15.64-6.64-27.93,7.28-36.35,9.93.49-4.94,11.18-21,33.65-19.88,14.3.72,19.61,14.14,20.19,16.37-2.81-3.53-11.55-4.08-15.6-2.77,5.29.72,10.28,4.96,11.1,6.29"/>
    <path class="st49" d="M378.05,89.18c6.93,5.26,8.26,23.97,2.33,32.84,4.95-3.68,10.98-13.13,11.09-19.14,2.06,3.98,3.62,10.02.84,14.03,2.72-2.46,12.92-14.05,4.08-27.77-2.49-1.76-6.66-.86-6.66-.86,4.07,3.27,5.09,8.36,5.02,14.74-1.84-6.71-5.52-12.21-8.53-13.46-3.02-1.26-8.18-.37-8.18-.37"/>
    <path class="st49" d="M359.33,62.87c-8.43,1.07-16.07,4.94-25.82,13.55-3.93-7.04,9.45-15.16,25.82-13.55"/>
    <path class="st71" d="M350.34,114.33c-.81-2.36,4.57-14.51,13.51-11.27,7.27,2.64,6.7,13.61,3.91,15.74-5.06,3.85-15.84.16-17.42-4.47"/>
    <path class="st104" d="M350.04,114.28c-.73-2.14,4.55-12.89,12.56-10.36,7.34,2.32,5.96,12.48,3.44,14.41-4.58,3.49-14.58.15-16-4.05"/>
    <path class="st43" d="M351.02,114.95c-1.17-2.58,4.09-12.9,10.98-10.31,6.85,2.57,4.92,11.57,2.59,13.35-4.22,3.22-11.88.68-13.57-3.04"/>
    <path class="st76" d="M359.35,105.33c6.3,1.31,6.7,12.77,1.88,14.15-3.69.54-9.67-2.21-10.2-4.61-.46-2.05,1.48-10.98,8.33-9.54"/>
    <path class="st33" d="M357.79,106.8c6.09,1.11,6.04,12.4.61,12.59-1.95.07-6.86-1.98-7.38-4.09-.85-3.5,3.02-9.18,6.77-8.49"/>
    <path class="st43" d="M365.29,112.75c-.92-1.65-4.74.31-4.38,1.83.36,1.53,5.78.68,4.38-1.83"/>
    <path class="st43" d="M353.21,112.89c1.11,0,.7,1.91-.17,1.92-.87,0-.94-1.91.17-1.92"/>
    <path class="st71" d="M335.21,108.55c1.87-1.61,3.9-14.26-3.56-16.08-6.95-1.7-10.39,7.07-10.05,10.36.64,6.34,9.95,8.88,13.61,5.72"/>
    <path class="st104" d="M335.11,108.78c1.76-1.51,3.48-13.27-3.5-15.12-6.11-1.62-9.52,6.75-9.17,9.83.7,6.1,9.23,8.26,12.67,5.29"/>
    <path class="st43" d="M334.3,108.14c1.66-1.43,2.76-12.46-1.94-13.7-6.6-1.74-9.86,6.2-9.11,9.54,1.03,4.62,7.79,6.97,11.05,4.16"/>
    <path class="st76" d="M328.59,95.36c7.12-1.26,7.76,10.29,3.93,12.94-3.61,2.14-9.71-.53-10.33-4.21-.45-3.2,3.26-8.17,6.4-8.73"/>
    <path class="st33" d="M329.68,97.05c5.43,1.03,4.24,9.59.88,11.54-2.48,1.44-8.09-1.36-8.16-4.26-.09-3.19,3.54-7.99,7.28-7.28"/>
    <path class="st43" d="M335.36,101.19c-1.3-1.27-4.26,1.56-3.52,2.85.74,1.3,5.48-.94,3.52-2.85"/>
    <path class="st43" d="M324.75,102.71c1.09.02.62,1.88-.23,1.87-.85-.02-.85-1.9.23-1.87"/>
    <path class="st56" d="M337.47,152.52c.5,0-2.34-3.82-1.89-6.63-.61-.56-4.19.56-4.92,1.66s-1.21,9.03-.77,9.17c.44.15,6.06-4.16,7.58-4.2"/>
    <path class="st56" d="M345.37,153.87c4.09.14,7.72-2.67,9.53-4.26-2.03,3.03-7.06,5.17-7.46,5.76s.16,8.36,0,8.57-.91.94-1.13.41-.88-7.91-1.57-8.75c-.7-.84-1.83-.78-1.78-1.03.12-.61,1.22-.82,2.43-.7"/>
    <path class="st46" d="M367.41,212.8c-.83,2.03-1.43,7.11-1.39,10.64.12,8.71,2.82,26.74,3.33,34.54,1.11,4.6,12.03,3.78,12.01-.17.12-3.44,6.1-31.79,2.68-45.36"/>
    <path class="st3" d="M367.41,212.8c-.83,2.03-1.43,7.11-1.39,10.64.12,8.71,2.82,26.74,3.33,34.54,1.11,4.6,12.03,3.78,12.01-.17.12-3.44,6.1-31.79,2.68-45.36"/>
    <path class="st98" d="M370.05,254.71c-1.21-10.1-4.12-33.35-1.57-39.92,1.61-3.69,4.27-7.15,7.96-6.69,3.18,5.97-2.24,35.08-3.89,44.95-.84,1.25-2.5,1.67-2.5,1.67"/>
    <path class="st46" d="M369.51,256.67c-4.8,5.36-4.29,13.14-4.66,16.61-.42,4,3.7,2.9,5.14-4.51.5-2.56,1.75,1.01,3.52,5.28,1.54,3.73,12.87-5.84,12.7-8.62-.18-3.01-3.47-8.43-4.57-9.94"/>
    <path class="st3" d="M369.51,256.67c-4.8,5.36-4.29,13.14-4.66,16.61-.42,4,3.7,2.9,5.14-4.51.5-2.56,1.75,1.01,3.52,5.28,1.54,3.73,12.87-5.84,12.7-8.62-.18-3.01-3.47-8.43-4.57-9.94"/>
    <path class="st98" d="M365.29,273.92c.07,1.22,1.7-.74,2.54-2.93.85-2.19,2.32-12.01,1.26-11.79-1.05.22-3.18,3.48-3.31,7.75-.14,4.27-.55,5.99-.5,6.96"/>
    <path class="st46" d="M383.72,268.87c3.06,2.69,3.79,7.59,5.42,6.49,1.92-1.29-2-9.17-3.16-9.94"/>
    <path class="st3" d="M383.72,268.87c3.06,2.69,3.79,7.59,5.42,6.49,1.92-1.29-2-9.17-3.16-9.94"/>
    <path class="st46" d="M380.48,270.87c3.86,5.07.9,11.29,3.58,10.85s3.46-9.35-.14-13.73"/>
    <path class="st3" d="M380.48,270.87c3.86,5.07.9,11.29,3.58,10.85s3.46-9.35-.14-13.73"/>
    <path class="st46" d="M377.51,271.9c2.55,5.45-.33,14.09,1.91,14.63,2.8.68,5.78-9.55,1.89-16.46"/>
    <path class="st3" d="M377.51,271.9c2.55,5.45-.33,14.09,1.91,14.63,2.8.68,5.78-9.55,1.89-16.46"/>
    <path class="st46" d="M372.9,272.71c1.97,4.64,1.66,13.19,4.04,13.42,2.38.24,2.64-8.49.66-14.56"/>
    <path class="st3" d="M372.9,272.71c1.97,4.64,1.66,13.19,4.04,13.42,2.38.24,2.64-8.49.66-14.56"/>
    <path class="st98" d="M370.98,266.38c.03-.88,1.49-2.31,2.38-1.78.89.52,3.01,7,3.65,10.01.64,3.01.19,9.72-.67,9.65-.86-.07-1.32-5.27-2.28-9.44-.97-4.16-3.11-7.17-3.07-8.44"/>
    <path class="st98" d="M289.95,169.66l-4.6,4.02c3.27.24,6.51,4.58,7.2,5.52,1.41-.37,4.4-1.54,4.4-1.54-1.39-4.11-5.09-7.93-7-7.99"/>
    <path class="st84" d="M200.56,181.48c-2.25,9.95-3.58,26.83.95,34.28,2.29,3.76,10.65,6.58,12.75,0,2.11-6.59,4.06-25.15,2.78-30.57-1.29-5.42-16.47-3.7-16.47-3.7"/>
    <path class="st14" d="M200.56,181.48c-2.25,9.95-3.58,26.83.95,34.28,2.29,3.76,10.65,6.58,12.75,0,2.11-6.59,4.06-25.15,2.78-30.57-1.29-5.42-16.47-3.7-16.47-3.7h0Z"/>
    <path class="st55" d="M216.54,188.77c.61,7.32-1.45,18.48-1.56,18.56-3.61-1.52-8.62-.89-10.02,2.2-1.94-6.1,1.1-19.18,1.55-22.02,3.36-.8,7.66-.48,10.03,1.26"/>
    <path class="st84" d="M215.54,212.37c3.38,6.35,1.19,17.68,2.33,22.99.25,4.42-8.55,5.82-9.43,1.9-1-4.39-9.46-17.46-8.36-26.31"/>
    <path class="st14" d="M215.54,212.37c3.38,6.35,1.19,17.68,2.33,22.99.25,4.42-8.55,5.82-9.43,1.9-1-4.39-9.46-17.46-8.36-26.31"/>
    <path class="st55" d="M214.44,212.78c2.99,5.21,1.96,16.23,2.03,19.49.03,1.04-3.73.71-4.38-.27-1.16-1.74-4.39-7.4-5.54-14.89-1.35-8.86,5.6-8.33,7.89-4.33"/>
    <path class="st84" d="M217.44,234.61c6.07,4.16,7.86,11,7.04,16.48-.55,3.66-2.36,6.96-4.23,6.69-1.61-.23.66-5.39.14-8.37-.4,4.21-2.29,7.65-3.59,9.27-1.3,1.63-3.96,1.36-2.61-1.51,1.36-2.86,2.18-6.63,2.26-8.14-.57,3.18-1.8,5.99-3.45,7.72-1.51,1.57-3.23.15-2.09-2.25.85-1.78,2.64-5.26,2.28-7.21-.85,3-2.59,4.62-4.28,5.43-1.68.81-1.95-.68-.93-2.05s1.8-3.73,1.69-4.96c-2.12-1.28-2.09-6.54-1.22-8.46"/>
    <path class="st14" d="M217.44,234.61c6.07,4.16,7.86,11,7.04,16.48-.55,3.66-2.36,6.96-4.23,6.69-1.61-.23.66-5.39.14-8.37-.4,4.21-2.29,7.65-3.59,9.27-1.3,1.63-3.96,1.36-2.61-1.51,1.36-2.86,2.18-6.63,2.26-8.14-.57,3.18-1.8,5.99-3.45,7.72-1.51,1.57-3.23.15-2.09-2.25.85-1.78,2.64-5.26,2.28-7.21-.85,3-2.59,4.62-4.28,5.43-1.68.81-1.95-.68-.93-2.05s1.8-3.73,1.69-4.96c-2.12-1.28-2.09-6.54-1.22-8.46"/>
    <path class="st98" d="M224.57,248.16c-.1,2.93-1.22,6.8-2.46,7.92-.91,1.05-1.39.83-.76-.31.77-1.37,1.87-6.11,1.81-9.07"/>
    <path class="st84" d="M217.44,234.61c5.67,1.53,7.12,5.62,8.8,9.57,1.29,3.03,2.78,4.78,1.75,5.38-1.66.98-4.37-.22-5.6-4.26-2.1.7-4.84-.29-7.32-3.95"/>
    <path class="st14" d="M217.44,234.61c5.67,1.53,7.12,5.62,8.8,9.57,1.29,3.03,2.78,4.78,1.75,5.38-1.66.98-4.37-.22-5.6-4.26-2.1.7-4.84-.29-7.32-3.95"/>
    <path class="st55" d="M224.47,241.36c1.09,3.33,2.39,5.3,3.1,6.59s-1.09.93-2.29-.88c-1.21-1.82-1.52-3.37-1.52-3.37,0,0-2.13-.39-4.29-2.82-2.08-2.33-2.62-5.1-1.82-5.31,1.46-.39,5.74,2.47,6.83,5.79"/>
    <path class="st84" d="M170.62,302.08c.91,7.77-2.14,17.7-7.6,34.32-5.17,15.75-6.12,24.19-6.12,24.19l-15.38-3.5c4.98-9.98,3.12-30.38,5.24-43.91,1.27-8.09,7.49-15.15,9.05-19.23"/>
    <path class="st14" d="M170.62,302.08c.91,7.77-2.14,17.7-7.6,34.32-5.17,15.75-6.12,24.19-6.12,24.19l-15.38-3.5c4.98-9.98,3.12-30.38,5.24-43.91,1.27-8.09,7.49-15.15,9.05-19.23"/>
    <path class="st84" d="M169.51,305.56c8.77-10.4,20.06-53.47,17.05-60.12-3.02-6.65-29.24-8.7-32.47-.32-6.18,19.92-.64,49.04.08,55.2"/>
    <path class="st14" d="M169.51,305.56c8.77-10.4,20.06-53.47,17.05-60.12-3.02-6.65-29.24-8.7-32.47-.32-6.18,19.92-.64,49.04.08,55.2"/>
    <path class="st55" d="M177.22,288.5c-3.87,8.5-5.63,13.12-8.82,16.39-3.75,3.85-9.41,2.69-10.42-3.84-.82-5.27-.5-13.12.04-16.37,4.93,1.76,14.32,4.08,19.21,3.82"/>
    <path class="st55" d="M155.32,301.43c3.08,3.53,8.6,6.89,13.35,5.75.8,7.62-5.52,21.9-9.35,36.28-2.7,1.45-5.09,2.07-10.08-.48,1.06-7.22-.63-30.19,6.07-41.55"/>
    <path class="st84" d="M201.8,302.87c1.88,7.59.11,17.83-3.21,35-3.14,16.28-3.02,24.77-3.02,24.77l-15.7-1.53c3.68-10.53-.02-30.47.39-44.16.24-8.2,4.64-14.54,5.69-18.83"/>
    <path class="st14" d="M201.8,302.87c1.88,7.59.11,17.83-3.21,35-3.14,16.28-3.02,24.77-3.02,24.77l-15.7-1.53c3.68-10.53-.02-30.47.39-44.16.24-8.2,4.64-14.54,5.69-18.83"/>
    <path class="st84" d="M201.21,307.66c7.08-11.62,12.43-56.57,8.43-62.68s-24.42.33-28.59,8.28.56,35.31,4.93,50.8"/>
    <path class="st14" d="M201.21,307.66c7.08-11.62,12.43-56.57,8.43-62.68s-24.42.33-28.59,8.28.56,35.31,4.93,50.8"/>
    <path class="st55" d="M207,286.23c-2.3,9.05-4.31,16.26-6.64,20.19-2.33,3.92-8.58,2.54-10.02-2.34-1.51-5.12-2.79-14.45-2.83-17.74,5.17.86,14.73,1.01,19.49-.11"/>
    <path class="st55" d="M188.12,304.59c4.6,4.19,9.7,4.45,12.58,3.97,1,4.84-.06,11.04-1.86,19.29-1.8,8.24-3.31,18.54-3.31,18.54-1.39.86-5.03,2.52-9.41-.37.22-8.94-3.94-30.75,2-41.43"/>
    <path class="st35" d="M168.55,372.28c1.15,1.81,1.49,5.61-3.16,7.16-6.01,1.99-14.13,0-21.79-7.82-5.74-5.86-6.47-9.39-3.71-13.09"/>
    <path class="st11" d="M168.55,372.28c1.15,1.81,1.49,5.61-3.16,7.16-6.01,1.99-14.13,0-21.79-7.82-5.74-5.86-6.47-9.39-3.71-13.09"/>
    <path class="st31" d="M149.06,372.86c-.58.37-.51,1.67.1,2.33,5.48,4.49,18.05,6.31,18.83.1-2.86,3.08-12.55,2.57-18.93-2.43"/>
    <path class="st85" d="M163.3,345.64c.15,2.14-2.28,5.89-2.24,7.8.11,5.22,8.62,7.76,9.74,13.78,1.23,6.6-7.85,13.17-19.38,5.89-11.66-7.38-13.89-14.06-9.7-20.6,1.5-4.17.3-8.42,1.64-10.81,1.34-2.39,2.27-1.22,2.27-1.22,0,0-.17,4.57,7.79,5.74,6.87,1.01,7.86-2.4,7.86-2.4,0,0,1.89.11,2.01,1.83"/>
    <path class="st15" d="M163.3,345.64c.15,2.14-2.28,5.89-2.24,7.8.11,5.22,8.62,7.76,9.74,13.78,1.23,6.6-7.85,13.17-19.38,5.89-11.66-7.38-13.89-14.06-9.7-20.6,1.5-4.17.3-8.42,1.64-10.81,1.34-2.39,2.27-1.22,2.27-1.22,0,0-.17,4.57,7.79,5.74,6.87,1.01,7.86-2.4,7.86-2.4,0,0,1.89.11,2.01,1.83h.01Z"/>
    <path class="st79" d="M161.23,345.44c1.12.11,1.23,1.49.32,3.32-1.47,2.94-2.35,6.3.33,8.87,2.69,2.58,8.96,6.9,8.08,10.41s-6.93,4.92-13.62,1.57-9.84-7.48-9.24-11.15c.6-3.67,1.98-7.38,1.84-9.59-.15-2.21.83-2.85,2.35-2.17,4.03,1.5,7.51,1.18,9.94-1.27"/>
    <path class="st78" d="M155.78,375.07c1.61-8.03,13.36-13.32,15.1-7.39.54,8.07-9.74,10.05-15.1,7.39"/>
    <path class="st15" d="M155.78,375.07c1.61-8.03,13.36-13.32,15.1-7.39.54,8.07-9.74,10.05-15.1,7.39Z"/>
    <path class="st35" d="M147.6,344.85c-.79,2.66-2.14,10.64-2.69,12.42-.54,1.77-2.48.31-2.07-1.77.41-2.08,2.58-12.12,2.86-13.19s2.36.98,1.9,2.54"/>
    <path class="st22" d="M147.6,344.85c-.79,2.66-2.14,10.64-2.69,12.42-.54,1.77-2.48.31-2.07-1.77.41-2.08,2.58-12.12,2.86-13.19s2.36.98,1.9,2.54h0Z"/>
    <path class="st35" d="M145.91,340.41c-.93.35-1.7,1.52-1.49,2.08.22.56,1.65,1.37,2.25,1.05s.98-1.82.78-2.3c-.2-.48-1.01-1.02-1.54-.82"/>
    <path class="st22" d="M145.91,340.41c-.93.35-1.7,1.52-1.49,2.08.22.56,1.65,1.37,2.25,1.05s.98-1.82.78-2.3c-.2-.48-1.01-1.02-1.54-.82h0Z"/>
    <path class="st35" d="M145.53,342.54c-1.36-.64-3.99,4.42-4.23,5.29-.24.87,2.15,1.94,2.53,1.31.39-.63,2.95-6,1.69-6.6"/>
    <path class="st22" d="M145.53,342.54c-1.36-.64-3.99,4.42-4.23,5.29-.24.87,2.15,1.94,2.53,1.31.39-.63,2.95-6,1.69-6.6h0Z"/>
    <path class="st50" d="M145.08,343.75c-.52-.22-2.57,4.04-2.05,4.35.75.44,2.43-4.18,2.05-4.35"/>
    <path class="st50" d="M146.37,341.13c-.6-.09-.82.93-.1,1.02.72.08.7-.93.1-1.02"/>
    <path class="st35" d="M208.51,373c1.37,1.65,2.2,5.37-2.21,7.5-5.7,2.76-14.01,1.82-22.61-4.93-6.45-5.06-7.63-8.47-5.37-12.5"/>
    <path class="st11" d="M208.51,373c1.37,1.65,2.2,5.37-2.21,7.5-5.7,2.76-14.01,1.82-22.61-4.93-6.45-5.06-7.63-8.47-5.37-12.5"/>
    <path class="st31" d="M189.26,376.1c-.53.44-.29,1.72.4,2.3,6.02,3.74,18.72,3.92,18.69-2.34-2.43,3.42-12.11,4.18-19.08.04"/>
    <path class="st85" d="M199.85,347.26c.42,2.1-1.49,6.14-1.21,8.02.78,5.16,9.55,6.58,11.45,12.4,2.07,6.38-6.09,14.07-18.46,8.35-12.52-5.81-15.59-12.14-12.28-19.17.94-4.33-.79-8.39.23-10.93,1.02-2.54,2.09-1.51,2.09-1.51,0,0,.43,4.56,8.47,4.68,6.94.11,7.48-3.39,7.48-3.39,0,0,1.89-.14,2.23,1.56"/>
    <path class="st15" d="M199.85,347.26c.42,2.1-1.49,6.14-1.21,8.02.78,5.16,9.55,6.58,11.45,12.4,2.07,6.38-6.09,14.07-18.46,8.35-12.52-5.81-15.59-12.14-12.28-19.17.94-4.33-.79-8.39.23-10.93,1.02-2.54,2.09-1.51,2.09-1.51,0,0,.43,4.56,8.47,4.68,6.94.11,7.48-3.39,7.48-3.39,0,0,1.89-.14,2.23,1.56h0Z"/>
    <path class="st79" d="M197.77,347.33c1.12-.04,1.42,1.32.75,3.25-1.08,3.1-1.52,6.55,1.47,8.76,3,2.21,9.78,5.68,9.36,9.28s-6.24,5.78-13.3,3.33c-7.07-2.45-10.73-6.14-10.6-9.86.12-3.72,1.01-7.57.58-9.75-.43-2.17.46-2.94,2.05-2.46,4.2.97,7.6.2,9.69-2.54"/>
    <path class="st78" d="M196.21,377.42c.55-8.17,11.53-14.93,14.01-9.28,1.58,7.93-8.36,11.23-14.01,9.28"/>
    <path class="st15" d="M196.21,377.42c.55-8.17,11.53-14.93,14.01-9.28,1.58,7.93-8.36,11.23-14.01,9.28Z"/>
    <path class="st1" d="M209.59,368.86c-1.04-3.74-7.3-1.75-10.94,3.78,5.77.93,10.97-1.59,10.94-3.78"/>
    <path class="st35" d="M184.18,348.51c-.44,2.74-.75,10.83-1.06,12.67-.31,1.83-2.42.62-2.28-1.49s.99-12.35,1.13-13.45,2.47.67,2.21,2.27"/>
    <path class="st22" d="M184.18,348.51c-.44,2.74-.75,10.83-1.06,12.67-.31,1.83-2.42.62-2.28-1.49s.99-12.35,1.13-13.45,2.47.67,2.21,2.27h0Z"/>
    <path class="st35" d="M181.94,344.33c-.87.47-1.49,1.73-1.2,2.26.29.53,1.82,1.15,2.37.75.55-.4.74-1.94.47-2.39-.26-.44-1.14-.88-1.64-.62"/>
    <path class="st22" d="M181.94,344.33c-.87.47-1.49,1.73-1.2,2.26.29.53,1.82,1.15,2.37.75.55-.4.74-1.94.47-2.39-.26-.44-1.14-.88-1.64-.62Z"/>
    <path class="st35" d="M181.83,346.49c-1.43-.46-3.38,4.9-3.5,5.79s2.38,1.64,2.68.97c.3-.67,2.15-6.33.82-6.76"/>
    <path class="st22" d="M181.83,346.49c-1.43-.46-3.38,4.9-3.5,5.79s2.38,1.64,2.68.97c.3-.67,2.15-6.33.82-6.76Z"/>
    <path class="st50" d="M181.54,347.75c-.54-.16-2.03,4.34-1.47,4.57.8.34,1.86-4.46,1.47-4.57"/>
    <path class="st50" d="M182.48,344.99c-.61,0-.69,1.03.04,1.02s.57-1.01-.04-1.02"/>
    <path class="st84" d="M210.64,244.8c-.9,7.33-20.94,16.28-24.84,16.12-9.45-7.92-22.6-16.69-31.13-14.75-2.18-4.87.15-22.63,5.89-27.31,9.07,10.3,45.57,9.91,49.19,8.07,3.93,4.63.89,17.87.89,17.87"/>
    <path class="st14" d="M210.64,244.8c-.9,7.33-20.94,16.28-24.84,16.12-9.45-7.92-22.6-16.69-31.13-14.75-2.18-4.87.15-22.63,5.89-27.31,9.07,10.3,45.57,9.91,49.19,8.07,3.93,4.63.89,17.87.89,17.87Z"/>
    <path class="st77" d="M157.01,225.11l-1.09,4.36s19.18,51.09,23.73,53.67c3.99,2.26,28.22,3.75,30.53-1.26,2.38-8.69,5.07-34.83,2.27-49.95-20.18,7.33-44.33-.11-55.43-6.83"/>
    <path class="st17" d="M157.01,225.11l-1.09,4.36s19.18,51.09,23.73,53.67c3.99,2.26,28.22,3.75,30.53-1.26,2.38-8.69,5.07-34.83,2.27-49.95-20.18,7.33-44.33-.11-55.43-6.83h0Z"/>
    <path class="st77" d="M195.35,259.37c-3.99.35-7.61,2.86-7.61,2.86-1.99,5.24-3.9,16.28-7.41,23.14-10.5,1.38-26.41-2.4-30.83-8.15-1.18-10.99-.83-42.26,8.32-55.92.49-.74,8.23,5.36,23.22,8.05s24.95,1.91,31.67-.87c.66.44.42,3.48.42,3.48"/>
    <path class="st17" d="M195.35,259.37c-3.99.35-7.61,2.86-7.61,2.86-1.99,5.24-3.9,16.28-7.41,23.14-10.5,1.38-26.41-2.4-30.83-8.15-1.18-10.99-.83-42.26,8.32-55.92.49-.74,8.23,5.36,23.22,8.05s24.95,1.91,31.67-.87c.66.44.42,3.48.42,3.48"/>
    <path class="st75" d="M158.39,248.48c1,4.87,13.47.7,14.91-9.26-3.16,7.82-11.89,10.15-14.91,9.26"/>
    <path class="st77" d="M213.11,246.68s.4,1.59,1.78,2.87c.72.67-.85,4.03-1.91,4.11"/>
    <path class="st4" d="M213.11,246.68s.4,1.59,1.78,2.87c.72.67-.85,4.03-1.91,4.11"/>
    <path class="st24" d="M175.6,237.33c-.05.31-.1.62-.16.93"/>
    <path class="st5" d="M174.98,240.06c-2.12,7.05-8.14,12.98-15.41,12.24"/>
    <path class="st24" d="M158.66,252.17c-.31-.06-.62-.12-.93-.2"/>
    <path class="st24" d="M210.26,236.99c-.03.31-.04.63-.05.95"/>
    <path class="st20" d="M210.24,239.73c.21,3.33,1.24,6.62,2.99,9.31"/>
    <path class="st24" d="M213.73,249.77c.19.26.38.51.58.75"/>
    <path class="st8" d="M173.12,236.04c-.71,6.35-6.35,13.29-15.26,12.13"/>
    <path class="st75" d="M208.87,237.19c-.17,6.39,2.92,12.03,3.8,14.09.7,6.16-2.52,26.35-3.7,30.38-2.73,1.44-14.68,3.83-20.46,1.81.51-5.2,1.86-17.87,2.62-19.5s7.65-6.39,11.12-6.82c-4.4.28-16.55,1.06-21.42,2.3,1.78.54,4.34,1.79,4.34,1.79-1.1,7.55-5.45,20.06-6.95,22.84-5.53.78-13.91-.11-19.59-2.86-.43-5.9.56-25.01.69-27.32,5.48.83,15.85-2.39,18.13-17.44,5.84,1.27,24.05,4.24,31.42.74"/>
    <path class="st8" d="M159.82,231.24c-4.36,12.4-4.8,36.97-4.46,48.61"/>
    <path class="st75" d="M161.89,233.28c-.64.91-3.22,9-2.86,12.99,1.4,1.52,10.62-4.49,10.38-9.98-.05-1.12-6.96-3.81-7.52-3.01"/>
    <path class="st75" d="M158.41,231.25c-4.43,11.76-4.5,36.69-4.36,46.7-4.19-18.21-.89-45.52,4.36-46.7"/>
    <path class="st8" d="M208.01,238.08c-.14,4.44,1.08,11.71,5.18,13.5"/>
    <path class="st85" d="M156.62,222.68c9.7,7,38.39,16.58,56.58,7.33,1.39-.07,1.82,2.98.48,4.55-10.67,5.42-41.02,4.28-58.68-8.46-1.28-2.38,1.62-3.41,1.62-3.41"/>
    <path class="st15" d="M156.62,222.68c9.7,7,38.39,16.58,56.58,7.33,1.39-.07,1.82,2.98.48,4.55-10.67,5.42-41.02,4.28-58.68-8.46-1.28-2.38,1.62-3.41,1.62-3.41h0Z"/>
    <path class="st63" d="M158.49,224.61c-.44.36.4,2,.4,2,0,0-1.45-.15-1.51.44s2.49.63,2.85-.07-1.31-2.72-1.73-2.37"/>
    <path class="st63" d="M161.22,226.15c-.44.36.4,2,.4,2,0,0-1.45-.15-1.51.44s2.48.63,2.85-.07c.36-.7-1.31-2.72-1.73-2.37"/>
    <path class="st63" d="M164.31,227.62c-.44.36.4,2,.4,2,0,0-1.45-.15-1.51.44s2.48.63,2.85-.07c.36-.7-1.31-2.72-1.73-2.37"/>
    <path class="st63" d="M167.53,228.7c-.44.36.4,2,.4,2,0,0-1.45-.15-1.51.44s2.48.63,2.85-.07c.36-.7-1.31-2.72-1.73-2.37"/>
    <path class="st63" d="M170.69,230.01c-.36.44.78,1.88.78,1.88,0,0-1.45.14-1.4.73.06.59,2.56.13,2.78-.63s-1.82-2.41-2.16-1.98"/>
    <path class="st63" d="M174.05,230.99c-.36.44.78,1.88.78,1.88,0,0-1.45.14-1.4.73.06.59,2.56.13,2.78-.63s-1.82-2.41-2.16-1.98"/>
    <path class="st63" d="M177.3,232.03c-.35.45.84,1.85.84,1.85,0,0-1.45.19-1.37.78.07.59,2.57.05,2.76-.71.19-.76-1.89-2.36-2.22-1.92"/>
    <path class="st96" d="M181.06,232.83c-.33.47.9,1.83.9,1.83,0,0-1.44.23-1.34.82.09.59,2.56-.04,2.73-.81.16-.77-1.97-2.29-2.29-1.84"/>
    <path class="st96" d="M184.62,233.5c-.29.49,1.05,1.74,1.05,1.74,0,0-1.42.35-1.27.93s2.55-.25,2.66-1.03c.1-.78-2.15-2.12-2.43-1.64"/>
    <path class="st96" d="M188.66,234.11c-.29.49,1.05,1.74,1.05,1.74,0,0-1.42.35-1.27.93.14.58,2.55-.25,2.66-1.03.1-.78-2.15-2.12-2.43-1.64"/>
    <path class="st96" d="M192.14,234.45c-.29.49,1.05,1.74,1.05,1.74,0,0-1.42.35-1.27.93s2.55-.25,2.66-1.03c.1-.78-2.15-2.12-2.43-1.64"/>
    <path class="st96" d="M195.63,234.64c-.18.54,1.4,1.48,1.4,1.48,0,0-1.31.65-1.04,1.18s2.44-.8,2.37-1.58c-.07-.79-2.56-1.6-2.73-1.08"/>
    <path class="st96" d="M199.06,234.64c-.18.54,1.4,1.48,1.4,1.48,0,0-1.31.65-1.04,1.18.26.53,2.44-.8,2.37-1.58s-2.56-1.6-2.73-1.08"/>
    <path class="st63" d="M202.46,234.23c-.18.54,1.4,1.48,1.4,1.48,0,0-1.31.65-1.04,1.18s2.44-.8,2.37-1.58c-.07-.79-2.56-1.6-2.73-1.08"/>
    <path class="st63" d="M205.76,233.42c-.18.54,1.4,1.48,1.4,1.48,0,0-1.31.65-1.04,1.18s2.44-.8,2.37-1.58-2.56-1.6-2.73-1.08"/>
    <path class="st63" d="M209.35,232.29c-.18.54,1.4,1.48,1.4,1.48,0,0-1.31.65-1.04,1.18s2.44-.8,2.37-1.58-2.56-1.6-2.73-1.08"/>
    <path class="st72" d="M168.11,256.44c-.06.21-1.63.13-1.63.13,0,0-.6,1.42-.82,1.42s-.63-1.51-.63-1.51c0,0-1.52-.1-1.6-.34s1.24-1.07,1.24-1.07c0,0-.39-1.47-.17-1.63s1.4.85,1.4.85c0,0,1.34-.82,1.5-.67s-.38,1.59-.38,1.59c0,0,1.16,1.01,1.1,1.22"/>
    <path class="st72" d="M149.63,266.77c.18.06.91-1.09.91-1.09,0,0,1.28.55,1.37.37s-.7-1.47-.7-1.47c0,0,.68-1.19.58-1.38-.1-.19-1.34.17-1.34.17,0,0-.8-1.31-1.01-1.22-.2.09.02,4.55.2,4.62"/>
    <path class="st72" d="M203.01,247.67c-.06.21-1.63.13-1.63.13,0,0-.6,1.42-.82,1.42s-.63-1.51-.63-1.51c0,0-1.52-.1-1.6-.34s1.25-1.07,1.25-1.07c0,0-.39-1.47-.17-1.63s1.4.86,1.4.86c0,0,1.34-.82,1.5-.67s-.38,1.59-.38,1.59c0,0,1.16,1.01,1.1,1.22"/>
    <path class="st72" d="M184.85,244.45c-.06.21-1.63.13-1.63.13,0,0-.6,1.42-.82,1.42s-.63-1.51-.63-1.51c0,0-1.52-.1-1.6-.34s1.24-1.07,1.24-1.07c0,0-.39-1.47-.17-1.63s1.4.86,1.4.86c0,0,1.34-.82,1.5-.67s-.38,1.59-.38,1.59c0,0,1.16,1.01,1.1,1.22"/>
    <path class="st72" d="M163.66,237.91c-.08.21-1.71.02-1.71.02,0,0-.72,1.44-.95,1.43s-.55-1.62-.55-1.62c0,0-1.58-.21-1.65-.47-.07-.25,1.37-1.03,1.37-1.03,0,0-.3-1.56-.07-1.71.24-.15,1.4.99,1.4.99,0,0,1.46-.76,1.61-.59s-.51,1.64-.51,1.64c0,0,1.14,1.13,1.06,1.35"/>
    <path class="st72" d="M165.78,280.24c-.13.19-1.69-.37-1.69-.37,0,0-1.04,1.24-1.26,1.18s-.17-1.72-.17-1.72c0,0-1.5-.57-1.51-.83s1.58-.69,1.58-.69c0,0,.06-1.6.33-1.7s1.15,1.29,1.15,1.29c0,0,1.6-.41,1.71-.21s-.87,1.49-.87,1.49c0,0,.86,1.37.73,1.56"/>
    <path class="st72" d="M198.56,279.45c-.13.19-1.69-.37-1.69-.37,0,0-1.04,1.24-1.26,1.18-.22-.07-.17-1.72-.17-1.72,0,0-1.5-.57-1.51-.83s1.58-.69,1.58-.69c0,0,.06-1.6.33-1.7s1.15,1.29,1.15,1.29c0,0,1.6-.42,1.71-.21s-.87,1.49-.87,1.49c0,0,.86,1.37.73,1.56"/>
    <path class="st72" d="M179.91,270.23c-.13.19-1.69-.37-1.69-.37,0,0-1.04,1.24-1.26,1.18-.22-.07-.17-1.72-.17-1.72,0,0-1.5-.57-1.51-.83,0-.26,1.58-.69,1.58-.69,0,0,.06-1.6.32-1.7.27-.1,1.15,1.29,1.15,1.29,0,0,1.6-.42,1.71-.21s-.87,1.49-.87,1.49c0,0,.86,1.37.73,1.56"/>
    <path class="st72" d="M209.75,267.1c-.13.19-1.69-.37-1.69-.37,0,0-1.04,1.25-1.26,1.18s-.17-1.72-.17-1.72c0,0-1.5-.57-1.51-.83,0-.26,1.58-.69,1.58-.69,0,0,.06-1.6.33-1.7s1.15,1.29,1.15,1.29c0,0,1.6-.42,1.71-.21.11.2-.87,1.49-.87,1.49,0,0,.86,1.37.73,1.56"/>
    <path class="st101" d="M199.75,170.39c-3.5,4.83-6.68,17.96,1.36,19.82,6.75-7.02,14.96-3.67,16.96-3.09,4.24-3.58,3.83-17.02-3.56-22.67-3.86-2.96-8.43-4.05-12.16-.77"/>
    <path class="st28" d="M199.75,170.39c-3.5,4.83-6.68,17.96,1.36,19.82,6.75-7.02,14.96-3.67,16.96-3.09,4.24-3.58,3.83-17.02-3.56-22.67-3.86-2.96-8.43-4.05-12.16-.77"/>
    <path class="st61" d="M210.52,163c6.52,1.54,12.47,14.34,8.71,20.92-.76,1.22-3.16.58-3.31-.16,1.23-2.53.77-5.37-.68-5.8-.88-.26-.18,3.66-.46,5.54-1.45.77-3.19,1.22-4.49.98-1.31-.24-3.22-3.6-3.42-7.4-1.05,3.3.75,8.14.16,8.57-2.51,1.83-9.69-5.36-6.53-14.8,2.52-7.51,7.65-8.59,10.04-7.86"/>
    <path class="st101" d="M214.29,179.72c-.69,14.11-3.56,39.88-3.09,42.94.73,4.76,1.13,6-2.44,7.67-4.84,2.26-20.43,6.45-40.6-2.62-6.5-2.92-13.11-6.75-10.41-11.43,2.72-4.73,1.58-14.56,1.56-28.47-.02-12.02,1.09-18.41,6.09-24.5,1.95-2.38,12.03-6.42,15.58-7,12.1-1.98,25.49,2.5,30.48,6.27"/>
    <path class="st28" d="M214.29,179.72c-.69,14.11-3.56,39.88-3.09,42.94.73,4.76,1.13,6-2.44,7.67-4.84,2.26-20.43,6.45-40.6-2.62-6.5-2.92-13.11-6.75-10.41-11.43,2.72-4.73,1.58-14.56,1.56-28.47-.02-12.02,1.09-18.41,6.09-24.5,1.95-2.38,12.03-6.42,15.58-7,12.1-1.98,25.49,2.5,30.48,6.27"/>
    <path class="st61" d="M211.77,164c3.15,15.23-2.21,45.85-2.09,55.21-.2,3.84.27,5.69.8,7.78.52,2.08-10.63,6.87-26.43,3.44-15.81-3.43-18.41-5.79-16.72-9.08,1.69-3.29,4.17-18.72,3.07-28.19,7.97,3.11,10.8-4.33,10.8-4.33,2.57-5.03,4.54-12.78,2.43-16.2,4.08,1.86,8.19-.61,8.78-2.88,4.72,5.74,13.95,4.34,14.53-8.68,1.36.13,4.83,2.94,4.83,2.94"/>
    <path class="st84" d="M182.13,147.41c.84,1.71.5,6.65-1.09,8.52-8.03,1.68-1.76,9.29,9.65,9.31,11.41.02,16.02-4.41,7.62-7.83-1.42-2.01-.26-7.72.88-8.31"/>
    <path class="st14" d="M182.13,147.41c.84,1.71.5,6.65-1.09,8.52-8.03,1.68-1.76,9.29,9.65,9.31,11.41.02,16.02-4.41,7.62-7.83-1.42-2.01-.26-7.72.88-8.31"/>
    <path class="st97" d="M182.8,146.79c1.61,3.87-.25,9.62-1.84,10.93,10.58,0,16.64-8.68,16.64-8.68"/>
    <path class="st84" d="M174.51,193.71c7.44,6.98,21.89,16.04,30.6,15.91,4.4-.07,11.23-5.13,6.61-10.28-4.61-5.15-19.62-16.24-24.95-17.88-5.32-1.64-12.27,12.25-12.27,12.25"/>
    <path class="st14" d="M174.51,193.71c7.44,6.98,21.89,16.04,30.6,15.91,4.4-.07,11.23-5.13,6.61-10.28-4.61-5.15-19.62-16.24-24.95-17.88-5.32-1.64-12.27,12.25-12.27,12.25h0Z"/>
    <path class="st55" d="M189.11,183.28c6.62,3.18,15.58,10.93,15.6,11.07-3.14,2.34-5.13,6.98-3.18,9.75-6.24-1.42-18.28-11.77-20.49-13.6,1.49-3.4,5.37-6.06,8.07-7.22"/>
    <path class="st84" d="M206.22,194.79c6.91-3.24,22.57-.44,28.24-1.45,4.67-.14,7.37,7.11,3.22,9.17-6.51,3.23-24.88,8.42-34.15,7.09"/>
    <path class="st14" d="M206.22,194.79c6.91-3.24,22.57-.44,28.24-1.45,4.67-.14,7.37,7.11,3.22,9.17-6.51,3.23-24.88,8.42-34.15,7.09"/>
    <path class="st36" d="M198.16,155.62c2.08-.77,8.29,2.38,5.49,10.97-1.88,5.8-8.39,4.71-9.66-.38-2.38,9.17-12.55,4.38-16.07-.76-3.12-4.56-2.38-9.32,0-10.96,1.31-.9,3.23-.51,3.23-.51-1.51,2.89,2.81,9.07,10.21,9.38,6.81.29,7.9-5.27,6.8-7.75"/>
    <path class="st18" d="M198.16,155.62c2.08-.77,8.29,2.38,5.49,10.97-1.88,5.8-8.39,4.71-9.66-.38-2.38,9.17-12.55,4.38-16.07-.76-3.12-4.56-2.38-9.32,0-10.96,1.31-.9,3.23-.51,3.23-.51-1.51,2.89,2.81,9.07,10.21,9.38,6.81.29,7.9-5.27,6.8-7.75h0Z"/>
    <path class="st56" d="M179.83,156.27c.71,4.13,6.85,9.01,13.76,8.47-.11,4.4-5.42,7.15-10.14,5.02-6.21-2.79-7.66-10.18-3.62-13.49"/>
    <path class="st56" d="M199.76,157.09c-.05,2.59-.15,7.13-5.11,7.21.55,2.78,2.48,6.23,7.03,4.05,4.15-1.99,1.53-11.41-1.91-11.26"/>
    <path class="st101" d="M169.22,163.92c7.7-1.62,21.17,10.66,19.3,18.41-3.31.37-10.66,6.06-12.79,13.35-3.53,1.64-10.81-5.72-12.49-9.49"/>
    <path class="st28" d="M169.22,163.92c7.7-1.62,21.17,10.66,19.3,18.41-3.31.37-10.66,6.06-12.79,13.35-3.53,1.64-10.81-5.72-12.49-9.49"/>
    <path class="st61" d="M169.51,166.21c6.41-1.95,18.12,6.53,18.25,14.25-1.07,1.11-3.18,2.63-3.69,2.05-1.09-2.85-3.89-4.03-4.39-3.69s2.44,3.19,3.17,4.99c-.85,1.41-2.49,2.9-3.74,3.35-1.25.45-4.75-1.93-7.09-5.61.79,3.44,5.27,6.79,4.99,7.47-1.22,2.88-10.01-.86-12.12-10.8-1.68-7.9,2.19-11.46,4.63-12.03"/>
    <path class="st0" d="M194.17,170.39c4-.73,4.41,5.5.75,5.93-3.74.45-4.23-5.3-.75-5.93"/>
    <path class="st6" d="M194.17,170.39c4-.73,4.41,5.5.75,5.93-3.74.45-4.23-5.3-.75-5.93Z"/>
    <path class="st87" d="M194.42,171.14c2.59-.32,2.89,3.94.56,4.42-2.7.57-3.19-4.1-.56-4.42"/>
    <path class="st37" d="M194.27,172.66c.27.94-.86,1.16-1.08.52-.29-.82.83-1.39,1.08-.52"/>
    <path class="st37" d="M196.17,173.63c.27.94-.86,1.16-1.08.52-.29-.82.83-1.39,1.08-.52"/>
    <path class="st61" d="M193.55,172.67c.37-.49,2.64,1,2.29,1.4-.28.31-2.67-.89-2.29-1.4"/>
    <path class="st37" d="M193.99,173.77c.89-.23.98,1.01.38,1.21-.79.26-1.2-.99-.38-1.21"/>
    <path class="st37" d="M195.06,171.77c.89-.23.98,1.01.37,1.2-.79.26-1.19-.99-.37-1.2"/>
    <path class="st61" d="M193.92,174.55c-.41-.43,1.18-2.78,1.51-2.37.26.32-1.08,2.82-1.51,2.37"/>
    <path class="st0" d="M194.56,177.9c4-.73,4.41,5.5.75,5.93-3.74.45-4.23-5.3-.75-5.93"/>
    <path class="st6" d="M194.56,177.9c4-.73,4.41,5.5.75,5.93-3.74.45-4.23-5.3-.75-5.93Z"/>
    <path class="st87" d="M194.81,178.65c2.59-.32,2.89,3.94.56,4.43-2.7.57-3.19-4.1-.56-4.43"/>
    <path class="st37" d="M194.66,180.17c.27.94-.86,1.16-1.08.53-.29-.82.83-1.39,1.08-.53"/>
    <path class="st37" d="M196.56,181.14c.27.94-.86,1.16-1.08.52-.29-.82.83-1.39,1.08-.52"/>
    <path class="st61" d="M193.93,180.18c.37-.49,2.64,1,2.29,1.4-.28.31-2.67-.89-2.29-1.4"/>
    <path class="st37" d="M194.38,181.28c.89-.23.98,1.01.38,1.21-.79.26-1.2-1-.38-1.21"/>
    <path class="st37" d="M195.45,179.28c.89-.23.98,1.01.37,1.21-.79.26-1.19-1-.37-1.21"/>
    <path class="st61" d="M194.31,182.06c-.41-.43,1.18-2.78,1.51-2.37.26.32-1.08,2.82-1.51,2.37"/>
    <path class="st84" d="M233.59,203.72c1.32.96,6.44,4.35,10.85,4.52,1.19.04,3.82-.63,5.8-3.17,2.08-2.67,1.56-7.36-.1-8.06-2.69-1.12-3.59-1.76-4.24-2.38,1.72-.79,4.27-2.06,4.38-2.8.17-1.11-4.6-3.24-7.16-3.21-2.37.03-8.04,4.34-9.45,4.99"/>
    <path class="st14" d="M233.59,203.72c1.32.96,6.44,4.35,10.85,4.52,1.19.04,3.82-.63,5.8-3.17,2.08-2.67,1.56-7.36-.1-8.06-2.69-1.12-3.59-1.76-4.24-2.38,1.72-.79,4.27-2.06,4.38-2.8.17-1.11-4.6-3.24-7.16-3.21-2.37.03-8.04,4.34-9.45,4.99"/>
    <path class="st55" d="M242.5,189.1c-1.59.18-7.85,4.27-8.06,5.2s3.43.3,8.15-1.5c4.73-1.8,6.43-1.31,6.29-1.74-.14-.43-3.67-2.27-6.38-1.96"/>
    <path class="st84" d="M246.18,205.65c3.02,1.85,8.07.87,7.21,2.36-1.32,2.31-10.03,1.02-10.7,0"/>
    <path class="st14" d="M246.18,205.65c3.02,1.85,8.07.87,7.21,2.36-1.32,2.31-10.03,1.02-10.7,0"/>
    <path class="st84" d="M249.35,202.77c5.45,1.57,11.5.28,10.44,2.4-1.38,2.75-9.64,3.66-13.58.65"/>
    <path class="st14" d="M249.35,202.77c5.45,1.57,11.5.28,10.44,2.4-1.38,2.75-9.64,3.66-13.58.65"/>
    <path class="st84" d="M249.67,200.32c4.84,2.06,11.67-.79,12.21,1.15.68,2.42-7.85,5.65-14,2.47"/>
    <path class="st14" d="M249.67,200.32c4.84,2.06,11.67-.79,12.21,1.15.68,2.42-7.85,5.65-14,2.47"/>
    <path class="st84" d="M249.52,196.82c4.11,1.58,11.57,1.04,11.85,3.12.28,2.07-7.33,2.56-12.7,1.02"/>
    <path class="st14" d="M249.52,196.82c4.11,1.58,11.57,1.04,11.85,3.12.28,2.07-7.33,2.56-12.7,1.02"/>
    <path class="st55" d="M242.76,194.81c-.77.02-2.02,1.3-1.56,2.08.45.78,6.11,2.65,8.74,3.22s8.49.19,8.43-.56-4.61-1.17-8.24-2.02c-3.64-.85-6.26-2.74-7.37-2.71"/>
    <path class="st103" d="M227.23,70.78c10.63,3.4,12.1,18.75,8.53,18.55-2.25-.12-2.65-4.87-5.65-7.72,3.18,4.82,2.5,10.08-.33,10.03-2.83-.06-2.57-11.56-8.16-11.02"/>
    <path class="st10" d="M227.23,70.78c10.63,3.4,12.1,18.75,8.53,18.55-2.25-.12-2.65-4.87-5.65-7.72,3.18,4.82,2.5,10.08-.33,10.03-2.83-.06-2.57-11.56-8.16-11.02"/>
    <path class="st103" d="M217.92,73.37c-3.13-3.81-2.77-9.01-.3-9.79,2.46-.78.39,5.12,2.16,9.3-1.7-5.73-.15-11.41,3.26-14.44s4.33-.04,2.9,1.35c-1.43,1.39-3.33,3.96-3.88,9.85.33-12.73,20.46-15.82,24.6-6.51-.37,2.04-4.37-1.64-9.47-.48,4.79-.05,9.03,2.59,11.92,8.88,1.12,2.59.02,6.14-1.85,3.42s-4.56-4.44-6.9-5.3c4.11,1.9,8.17,10.34,6.3,12.04-1.87,1.7-4.04-4.09-6.03-6.18,2.94,3.47,3.93,10.98,1.52,11.74-2.02.64-1.67-5.73-5.97-10.57,3.68,1.83,3.59,10.62,1.46,11.51s-1.89-6.69-5.81-8.36c-3.92-1.66-6.26-1.27-7.69,1.62"/>
    <path class="st10" d="M217.92,73.37c-3.13-3.81-2.77-9.01-.3-9.79,2.46-.78.39,5.12,2.16,9.3-1.7-5.73-.15-11.41,3.26-14.44s4.33-.04,2.9,1.35c-1.43,1.39-3.33,3.96-3.88,9.85.33-12.73,20.46-15.82,24.6-6.51-.37,2.04-4.37-1.64-9.47-.48,4.79-.05,9.03,2.59,11.92,8.88,1.12,2.59.02,6.14-1.85,3.42s-4.56-4.44-6.9-5.3c4.11,1.9,8.17,10.34,6.3,12.04-1.87,1.7-4.04-4.09-6.03-6.18,2.94,3.47,3.93,10.98,1.52,11.74-2.02.64-1.67-5.73-5.97-10.57,3.68,1.83,3.59,10.62,1.46,11.51s-1.89-6.69-5.81-8.36c-3.92-1.66-6.26-1.27-7.69,1.62"/>
    <path class="st32" d="M217.61,74.48c-2.86-1.28-1.22-5.07,2.18-4.17,3.41.9,7.52,5.8,7.94,10.23.42,4.43-3.05,5.28-3.73,2.6-.68-2.69-2.58-6.94-6.4-8.66"/>
    <path class="st13" d="M217.61,74.48c-2.86-1.28-1.22-5.07,2.18-4.17,3.41.9,7.52,5.8,7.94,10.23.42,4.43-3.05,5.28-3.73,2.6-.68-2.69-2.58-6.94-6.4-8.66h0Z"/>
    <path class="st74" d="M219.4,70.83c2.07.37,4.78,2.57,6.04,4.81,1.21,2.16.37,3.45-1.21,1.54-1.58-1.91-3.78-3.44-5.76-3.99-1.59-.45-.66-2.65.93-2.36"/>
    <path class="st52" d="M220.06,69.61c-1.66-4.86.49-8.44,2.64-10.86,2.15-2.43,2.56.4.84,2.35-1.73,1.95-1.53,9.06-3.48,8.51"/>
    <path class="st52" d="M222.78,69.53c-.43-5.45,4.45-9.97,11.57-11.33,7.12-1.36,8.85,2.21,8.58,2.91-.27.7-5.53-2.32-10.67,1.86,5.1-1.95,10.07.57,13.07,3.8,3.01,3.23.93,5.72-1.97,2.94s-5.67-4.57-10.46-2.44-5.4,4.87-7.03,5.1c-1.62.24-.92-4.31,3.71-8.17-4.79,2.23-5.3,6.31-6.79,5.32"/>
    <path class="st52" d="M226.71,73.34c-2.92-2.76,4.45-7.09,9.22-6.46s9.1,7.28,8.05,9.02c-1.42,2.35-2.34-2.08-6.96-4.76-4.63-2.69-8.76,3.67-10.31,2.2"/>
    <path class="st52" d="M231.98,73.31c1.83-2.77,7.21-1.65,9.06,2.55,1.86,4.2.51,6.98-1.97,2.37-2.48-4.62-8.26-3.16-7.09-4.92"/>
    <path class="st66" d="M228.1,60.29c3.95-2.41,8.37-3.12,9.19-1.35.82,1.77-3.19.84-7.22,3.51-4.03,2.67-5.58,4.24-6.15,3.8-.57-.44.5-3.71,4.18-5.95"/>
    <path class="st66" d="M233.76,62.52c4.85-1.3,8.46,1.34,7.92,2.76-.8,2.13-3.92-.93-8.24.64-4.33,1.57-4.57,3.62-6.03,2.58-1.45-1.04,1.15-4.59,6.35-5.98"/>
    <path class="st66" d="M239.34,58.08c1.62.4,1.97,2.2.24,2.13s-2.7-2.73-.24-2.13"/>
    <path class="st66" d="M244.1,65.58c2.16,1.18,1.39,3.41-.48,2.36-1.86-1.06-1.37-3.37.48-2.36"/>
    <path class="st66" d="M232.08,68.81c-.53-2.71,4.57-2.85,7.82.41,3.25,3.25,1.05,2.95-1.82,1.09-2.88-1.86-5.7.02-5.99-1.49"/>
    <path class="st103" d="M224.67,107.62c4.15-33.01-19.1-49.36-44.49-44.9-19.06,3.35-34.08,22.28-28.83,47.41,5.73,27.41,20.41,19.72,22.14,19.81"/>
    <path class="st84" d="M222.5,112.22c1.95,0,6.35-5.84,10.74-2.07,2.7,2.31-.28,14.78-8.18,15.45-3.3.28-4.75-4.51-4.75-4.64"/>
    <path class="st14" d="M222.5,112.22c1.95,0,6.35-5.84,10.74-2.07,2.7,2.31-.28,14.78-8.18,15.45-3.3.28-4.75-4.51-4.75-4.64"/>
    <path class="st58" d="M226.35,121.27c-1.64.47-1.17,2.93.77,2.6s1.21-3.16-.77-2.6"/>
    <path class="st21" d="M226.35,121.27c-1.64.47-1.17,2.93.77,2.6s1.21-3.16-.77-2.6Z"/>
    <path class="st53" d="M225.12,114.48c1.51-3.47,5.55-3.81,6.63-3.14-3.6,2.73-6.76,10.57-6.5,12.07"/>
    <path class="st84" d="M222.42,90.02c-5.96-13.04-22.17-25.41-45.61-15.22-28.16,12.24-12.1,51.56-7.63,60.8,5.59,11.58,24.96,18.18,33.89,17.13,6.59-.78,18.04-7.24,22.47-20.25,1.36-4,1.89-31.49-3.12-42.47"/>
    <path class="st14" d="M222.42,90.02c-5.96-13.04-22.17-25.41-45.61-15.22-28.16,12.24-12.1,51.56-7.63,60.8,5.59,11.58,24.96,18.18,33.89,17.13,6.59-.78,18.04-7.24,22.47-20.25,1.36-4,1.89-31.49-3.12-42.47h0Z"/>
    <path class="st55" d="M222.73,100.26c-3.42-13.49-22.7-19.47-38.09-10.17-18.49,11.17-11.79,38.01-8.03,45.81,4.71,9.76,20.23,15.41,27.76,14.6,7.41-.79,17.03-8.6,20.06-19.69.43-1.56.8-20.69-1.71-30.55"/>
    <path class="st83" d="M194.47,102.19c-2.05-2.75-16.83-2.08-17.96,4.61,4.5-5.53,19.14-3.01,17.96-4.61"/>
    <path class="st83" d="M211.39,101.83c1.3-3.51,12.18-2.74,13.33,1.88-3.75-3.81-13.81-.58-13.33-1.88"/>
    <path class="st84" d="M164.51,119.16s-7.73-7.01-12.11-2.2c-3.6,3.95,3.87,15.31,11.33,15.92,3.83.32,5.53-4.81,5.53-4.95"/>
    <path class="st14" d="M164.51,119.16s-7.73-7.01-12.11-2.2c-3.6,3.95,3.87,15.31,11.33,15.92,3.83.32,5.53-4.81,5.53-4.95"/>
    <path class="st53" d="M164.88,122.58c-4.7-4.62-9.89-5.46-11.73-3.08,3.17.52,8.81,3.44,9.1,5.05-1.6,2.28,1.38,3.87,2.75,3.63-3.79-2.66-.12-5.6-.12-5.6"/>
    <path class="st84" d="M209.61,127.67c1.85-.63-.36,2.3-3.75,2.94s-7.15-.75-6.97-1.52,5.04-.28,6.62-.4,2.75-.55,4.09-1.01"/>
    <path class="st90" d="M206.64,124.81c1.36.43,1.72,2.66.08,2.79-1.64.13-1.68-3.3-.08-2.79"/>
    <path class="st84" d="M200.07,124.76c-.42.63-1.31,1.24-1.71,2.09-.49,1.05.8,2.7.8,2.7l1.42-.9s-1.12-.32-1.42-1.43c-.29-1.12.9-2.46.9-2.46"/>
    <path class="st95" d="M203.24,129.18c-.86-.24-3.42.65-2.35.94s3.79-.55,2.35-.94"/>
    <path class="st95" d="M208.94,128.76c-.51-.41-2.68,0-1.99.56.56.45,2.57-.09,1.99-.56"/>
    <path class="st29" d="M209.12,120.37c-1.44-1.97-.75-12.06,6.7-12.35,6.38-.25,8.87,5.84,8.8,8.5-2.11,7.66-12.69,7.7-15.51,3.85"/>
    <path class="st104" d="M209.12,120.37c-1.6-2.15.66-10.18,6.65-10.49,5.36-.27,7.89,4.63,7.82,7.1-1.95,7.09-11.85,6.94-14.48,3.39"/>
    <path class="st43" d="M215.7,111.57c3.98.02,6.45,3.48,5.77,6.39-.55,2.36-4.23,5.57-9.42,3.68-5.19-1.89-1.98-10.09,3.66-10.07"/>
    <path class="st48" d="M215.59,109.93c-3.98,1.74-4.78,9.17-1.46,12.08,2.54,1.23,7.09-.19,8.43-2.6.53-.95.94-3.84-.14-5.89-1.28-2.5-3.89-4.1-6.84-3.59"/>
    <path class="st45" d="M216.03,112.87c-4.24,1.48-4.09,6.53-1.27,9.13,2.05.76,6.16-.26,7.25-1.96s.37-9.39-5.98-7.17"/>
    <path class="st59" d="M218.2,111.18c-6.37.28-5.45,11.01.5,9.95,5.96-1.06,3.62-10.13-.5-9.95"/>
    <path class="st43" d="M211.39,119.59c-.36-1.67,3.4-2.83,4.07-1.61.67,1.21-3.52,4.15-4.07,1.61"/>
    <path class="st43" d="M221.64,116.55c-1.18-.19-1.1,1.83-.17,1.99.93.16,1.36-1.8.17-1.99"/>
    <path class="st29" d="M176.06,120.58c1.13-7.23,6.38-11.06,11.82-9.93,6.14,1.27,8.25,8.13,7.59,10.22-1.17,3.73-14.6,6.63-19.41-.29"/>
    <path class="st104" d="M177.42,120.68c.87-4.86,5.91-8.63,11.05-7.88,5.2,1.45,7.17,6.47,6.75,8.4-.76,3.49-13.46,5.7-17.8-.52"/>
    <path class="st43" d="M178.62,121.1c.88-3.45,4.25-8.4,9.84-6.95,4.44,1.15,6.1,5.25,5.5,6.95-1,2.85-11.27,5.24-15.34,0"/>
    <path class="st48" d="M184.68,113.01c-3.24,2.15-3.09,8.87.1,11.03,2.51,1.04,8.13-.03,9.08-1.58.66-1.09.85-3.33.25-5.42-1.53-3.09-6.24-5.56-9.43-4.03"/>
    <path class="st45" d="M187.71,114.27c-5.81.64-5.98,7.2-2.4,9.8,2.17.97,7.04-.03,7.86-1.47,1.29-2.26,1.26-9.07-5.46-8.33"/>
    <path class="st59" d="M188.54,113.46c-5.54.27-5.91,10.51.51,10.26s4.71-10.51-.51-10.26"/>
    <path class="st43" d="M181.47,121.25c-.03-1.67,3.96-1.98,4.39-.67.42,1.31-4.35,3.21-4.39.67"/>
    <path class="st43" d="M192.89,118.37c-1.32-.2-1.1,2.04-.07,2.2,1.04.16,1.39-2,.07-2.2"/>
    <path class="st103" d="M226.24,110.17c.79-.44,2.68-1.37,4.31-1.26,4.15-22.86-14.99-47.9-41.06-46.69-28.99,1.34-39.52,27.48-31.12,52.52,2.56,1.2,6.86,10.88,8.95,10.72-2.13-8.49.37-17.96,2.25-21.35-2.02,2.13-3.34,5.06-3.34,5.06,1.39-8.05,8.57-18.62,14.44-22.31,0,0-2.33-1.28-5.83-.24,4.34-2.22,6.65-.33,8.08-1.47,1.43-1.14-3.91-8.73-3.91-8.73,3.19,3.13,5.16,5.78,7.28,6.78s14.89.75,23.33-1.1c-2.29,1.51-5.09,2.35-5.09,2.35,3.5.6,7.38.97,10.64,2.82,10.14,5.75,11.04,22.89,11.04,22.89"/>
    <path class="st52" d="M156.69,89.64c6.41,2.36,16.58,2.24,18.91,1.02-2.22,4.83-9.17,12.16-15.38,4.97,2.54,5.09,7.06,6.36,8.46,6.24-1.78,5.9-13.25,8.16-15.37-2.36,1.26-4.45.93.22,8.13,1.55-5.43-3.72-6.28-10.38-4.76-11.43"/>
    <path class="st52" d="M186.89,81.18c4.97,1.89,25.17-.89,29.04-2.37-3.69,3.76-8.41,5.34-8.41,5.34,5.86,1.14,13.19,1.61,16.09-1.22-2.16,4.03-6,5.15-6,5.15,6.35,2.62,8.06-3.5,8.02-6.11-.04-2.62-3.08-5.56-4.31-5.63-.3-3.24-8.41-10.69-14.48-10.57-5.13,1.07-13.47,9.84-13.47,9.84,1.79-4.9,8.32-9.82,8.25-11.49-.07-1.68-11.95,1.08-15.74,7.75,1.18-6.93,5.92-8.38,6.56-9.02-.07-2.48-15.39-1.87-19.44,3.61.42,2.89,5.39,6.08,6.44,6.06-.42-3.97,4.56-7.23,4.56-7.23-2.17,3.91-3.25,8.87-2.22,10.29.61.84,2.06,2.58,2.06,2.58,1.99-3.16,6.66-5.75,6.66-5.75-3.34,3.28-3.63,8.79-3.63,8.79"/>
    <path class="st52" d="M227.77,86.16c-1.82,4.33-7.04,3.29-8.26,2.48,3.44,5.33,4.79,7.19,6.7,7.3-.54,1.85-.2,7.95,1.02,9.55,1.22,1.59,4.87-12.03.54-19.33"/>
    <path class="st52" d="M159.92,74.02c4.4-4.14,9.27-4.86,10.88-4.61s3.43,4.47,3.11,5.46c-5.13.34-9.96,3.49-9.96,3.49,5.28-1.94,9.54-1.29,12.02-.89,2.48.4,5.7,5.92,5.36,6.66-7.58-.91-15.54-.48-19.65,2.43,6.42-2,16.32.23,16.25,1.37-5.88,2-15.48,3.46-18.31,2.69-3.96-.6-3.65-1.64-2.65-3.89,1.01-2.25,7.08-5.63,10.31-5.88-4.37-1.43-10.77,2.72-11.33,1.89s1.4-6.13,3.97-8.72"/>
    <path class="st52" d="M153.92,103.56c.98,7.27,7.96,16.43,11.87,17.48-.23-5.14.44-9.42.44-9.42-4.92,0-9.16-2.39-12.31-8.06"/>
    <path class="st32" d="M157.61,77.7c6.85,1.91,1.59,18.72-6.58,16.62s-1.71-18.94,6.58-16.62"/>
    <path class="st13" d="M157.61,77.7c6.85,1.91,1.59,18.72-6.58,16.62s-1.71-18.94,6.58-16.62Z"/>
    <path class="st103" d="M149.99,88.18c-1.6-2.92-6.34-3.57-9.98-.03-3.3,3.22-2.76,9.33-5.13,8.41-2.36-.93-2.51-9.74,1.55-11.5-4.73,4.77-4.31,11.16-6.55,10.48-2.66-.8-1.61-8.31,1.62-11.72-2.19,2.05-4.56,7.82-6.64,6.08s2.37-10.11,6.9-11.95c-2.58.82-5.55,2.49-7.6,5.18-2.06,2.69-3.3-.88-2.07-3.46,3.16-6.24,7.83-8.82,13.14-8.68-5.66-1.25-10.06,2.36-10.48.31,4.53-9.24,26.83-5.8,27.26,6.96-.64-5.9-2.76-8.52-4.35-9.93-1.58-1.41-.58-4.39,3.2-1.3,3.78,3.1,5.45,9.03,4.31,14.51,1.25,2.54-1.45,7.81-3.9,8.27-6.12,1.17-4.55,10.22-7.68,10.33-2.11.07-3.91-5.27-.42-10.04-3.32,2.79-3.73,7.55-6.22,7.63-3.96.13-2.41-15.21,9.33-18.42"/>
    <path class="st10" d="M149.99,88.18c-1.6-2.92-6.34-3.57-9.98-.03-3.3,3.22-2.76,9.33-5.13,8.41-2.36-.93-2.51-9.74,1.55-11.5-4.73,4.77-4.31,11.16-6.55,10.48-2.66-.8-1.61-8.31,1.62-11.72-2.19,2.05-4.56,7.82-6.64,6.08s2.37-10.11,6.9-11.95c-2.58.82-5.55,2.49-7.6,5.18-2.06,2.69-3.3-.88-2.07-3.46,3.16-6.24,7.83-8.82,13.14-8.68-5.66-1.25-10.06,2.36-10.48.31,4.53-9.24,26.83-5.8,27.26,6.96-.64-5.9-2.76-8.52-4.35-9.93-1.58-1.41-.58-4.39,3.2-1.3,3.78,3.1,5.45,9.03,4.31,14.51,1.25,2.54-1.45,7.81-3.9,8.27-6.12,1.17-4.55,10.22-7.68,10.33-2.11.07-3.91-5.27-.42-10.04-3.32,2.79-3.73,7.55-6.22,7.63-3.96.13-2.41-15.21,9.33-18.42"/>
    <path class="st52" d="M154.23,78.27c1.81-4.84-.59-8.45-2.98-10.92-2.4-2.47-2.83.36-.91,2.34,1.92,1.98,1.74,9.09,3.9,8.58"/>
    <path class="st52" d="M151.22,78.14c.44-5.45-4.98-10.06-12.86-11.56-7.88-1.49-9.78,2.05-9.48,2.76s6.1-2.22,11.82,2.05c-5.65-2.04-11.13.39-14.44,3.57s-1,5.71,2.19,2.98,6.25-4.48,11.57-2.25c5.31,2.22,7.5,5.52,9.3,5.79s-.5-4.85-5.64-8.79c5.31,2.32,5.9,6.41,7.55,5.45"/>
    <path class="st52" d="M149.93,83.38c3.22-2.71-5.02-9.12-13.27-8.11-5.26.64-10.03,7.13-8.86,8.88,1.58,2.38,2.19-2.98,7.68-4.65,8.74-2.65,12.74,5.31,14.45,3.88"/>
    <path class="st52" d="M141.07,81.76c-2.04-2.8-7.98-1.77-10.01,2.4s-.52,6.98,2.19,2.4c2.72-4.58,9.12-3.01,7.82-4.8"/>
    <path class="st66" d="M145.29,68.8c-4.39-2.49-9.29-3.27-10.18-1.52-.9,1.75,3.54.9,8.01,3.64s6.19,4.34,6.83,3.91c.63-.43-.57-3.72-4.65-6.03"/>
    <path class="st66" d="M139.04,70.92c-5.37-1.38-9.35,1.19-8.75,2.62.89,2.15,4.33-.86,9.13.79s5.08,3.71,6.68,2.69c1.61-1.01-1.29-4.62-7.06-6.1"/>
    <path class="st66" d="M132.83,66.38c-1.79.37-2.17,2.16-.25,2.13,1.91-.04,2.97-2.68.25-2.13"/>
    <path class="st66" d="M127.61,73.81c-2.38,1.14-1.51,3.39.55,2.37s1.5-3.35-.55-2.37"/>
    <path class="st66" d="M140.92,77.26c.57-2.71-5.07-2.94-8.65.26-3.58,3.2-1.14,2.94,2.03,1.12s6.3.12,6.62-1.39"/>
    <path class="st52" d="M152.84,83.1c-4.42-2.51-12.14-2.7-15.18,4.78s-.38,9.83,1.12,5.66c1.5-4.18,6.07-9.64,13.86-7.91,2.25.25,1.17-1.98.21-2.53"/>
    <path class="st52" d="M147.23,87.23c-3.25-1.54-4.57,4.76-4.53,7.22.04,2.45,1.49.8,2.41-1.71.91-2.5,4.15-4.55,2.12-5.51"/>
    <path class="st74" d="M159.47,81.3c.5,2.26-.43,5.82-2.02,7.9-1.53,2.01-3.08,1.6-1.94-.7,1.13-2.3,1.66-5.09,1.36-7.32-.24-1.8,2.21-1.62,2.6.12"/>
    <path class="st66" d="M188.86,78.71c.37,3.27,19.11-.49,23.59-3.99-3.28,3.76-7.67,5.04-7.67,5.04,9.77-.53,11.41-3.85,11.46-6.68.06-2.84-7.54-4.92-10.46-5.2-2.93-.29-10.8,4.96-13.04,7.73,2.63-5.97,9.89-8.64,7.95-9.75-1.95-1.11-12.71,5-11.83,12.87"/>
    <path class="st66" d="M188.73,63.33c.97-2.25-12.72.87-12.95,4.54,1.2,2.25,3.17,1.91,3.17,1.91,1.45-2.24,4.23-3.5,4.23-3.5-1.66,2.93-2.74,6.88-.32,7.71s4.68-7.91,5.87-10.66"/>
    <path class="st66" d="M163.58,78.69c2.62-2.29,10.08-1.76,12.67-.45,2.59,1.31,1.89,4.2,1.07,3.97-.83-.23-10.82.12-13.27.93,1.43-1.92,4.15-3.32,6.19-3.44-3.38-.57-7.05-.68-6.67-1.01"/>
    <path class="st66" d="M160.76,75.28c-.85-2.47,6.35-5.16,9.06-4.76,2.7.4,3.87,2.99,2.82,3.49-1.05.51-11.53,2.26-11.88,1.27"/>
    <path class="st66" d="M163.57,86.75c-.23-3.55,10.41-.09,10.31.72-.11.8-10.06,3.13-10.31-.72"/>
    <path class="st66" d="M161.73,91.5c-.18,1.99,4.62,6.41,10.82.89-4.12,1.35-10.74-1.8-10.82-.89"/>
    <path class="st88" d="M190.01,134.65c-1.83,1.32.35,2.43,2.96,1.96-1.06-.6-.85-3.47-2.96-1.96"/>
    <path class="st88" d="M215.68,134.01c1.25,1.82-.28,2.2-2.79,1.42,1.14-.46,1.64-3.08,2.79-1.42"/>
    <path class="st39" d="M213.44,135.44c.34.05-.83,1.46-2.64,4.3-.92,1.44-2.49,2.22-4.53,2.74-3.78.98-8.1-.04-10.04-2.02-1.39-1.42-3.67-3.63-4.69-4.29-.31-.2.3.02.73-.11,4.76-.88,12.39.93,21.17-.61"/>
    <path class="st42" d="M208.35,136.9c.71,1.57-3.04,5.56-9.12,3.78-3.89-1.13-4.89-4.05-4.28-4.87,2.04.32,12.77-.3,13.4,1.08"/>
    <path class="st34" d="M210.48,135.57c-.27,1.36-1.96,2.81-6.64,2.76-5.62-.07-7.24-.83-9.21-2.12,4.21-.5,10.91-.31,15.85-.63"/>
    <path class="st30" d="M204.09,142.08c-3.85.1-7.32-1.12-9.75-3.53,1.73,2.08,4.78,5.53,9.33,5.39,4.56-.14,7.48-3.86,8.4-6.06-.79.86-4.14,4.1-7.99,4.2"/>
    <path class="st51" d="M205.9,134.93c-1.57.61-1.28-.12-3.77-.06-1.85.05-6.31,1.06-9.94.87,3.36,1.08,8.02,1.02,12.48,1.01,3.83,0,6.89-.73,8.77-1.31-2.94.16-5.57-1.27-7.54-.51"/>
    <path class="st39" d="M190.76,135.05c-1.1,1,2.05,1.65,4.03,1.31-.59-.15-2.02-.28-2.95-.87-.75-.48-.77-.72-1.09-.43"/>
    <path class="st39" d="M211.43,136.05c1.31-.37,2.26-.56,2.68-1.23.26-.43.64-.66.82-.31.54,1.03-.95.65-2.55,2.37"/>
    <path class="st68" d="M209.51,136.61c-.11,1.88-9.61,2.66-11.74.21,3.12.82,10.31.3,11.74-.21"/>
    <path class="st58" d="M163.46,128.4c-1.64.47-1.17,2.93.77,2.6,1.94-.33,1.2-3.16-.77-2.6"/>
    <path class="st21" d="M163.46,128.4c-1.64.47-1.17,2.93.77,2.6,1.94-.33,1.2-3.16-.77-2.6Z"/>
    <path class="st46" d="M255.85,191.42c-3.27-2.35-11.16-2.8-12.49-.43-1.26,2.27-2.45,5.07-2.7,6.06-.24.99,3.52,2.02,5.95-2.77,1.53,3.35,7.34,2.87,7.34,2.87"/>
    <path class="st3" d="M255.85,191.42c-3.27-2.35-11.16-2.8-12.49-.43-1.26,2.27-2.45,5.07-2.7,6.06-.24.99,3.52,2.02,5.95-2.77,1.53,3.35,7.34,2.87,7.34,2.87"/>
    <path class="st46" d="M239.79,205.87c-.17-1.42-1.75-5.59-3.88-5.13-1.72.37-.22,7,1.22,8.01.74.51,2.6-.08,3.1-.77"/>
    <path class="st3" d="M239.79,205.87c-.17-1.42-1.75-5.59-3.88-5.13-1.72.37-.22,7,1.22,8.01.74.51,2.6-.08,3.1-.77"/>
    <path class="st46" d="M243.44,207.2c.57-1.17.12-5.08-2.06-5.06-1.76.02-2.45,5.61-1.24,6.89.62.65,2.68.89,3.31.32"/>
    <path class="st3" d="M243.44,207.2c.57-1.17.12-5.08-2.06-5.06-1.76.02-2.45,5.61-1.24,6.89.62.65,2.68.89,3.31.32"/>
    <path class="st98" d="M240.93,202.86c1.29-1.14,2.33.84,1.82,2.97-.11-2.03-2.2-2.55-1.82-2.97"/>
    <path class="st46" d="M246.49,208.4c.58-1.17-.23-4.45-2.04-4.59-1.75-.13-2.47,5.14-1.26,6.42.62.65,2.68.89,3.31.32"/>
    <path class="st3" d="M246.49,208.4c.58-1.17-.23-4.45-2.04-4.59-1.75-.13-2.47,5.14-1.26,6.42.62.65,2.68.89,3.31.32"/>
    <path class="st98" d="M243.96,204.52c1.29-1.14,2.09.81,1.91,2.59-.8-1.85-2.29-2.17-1.91-2.59"/>
    <path class="st46" d="M248.96,209.71c.6-1.06.63-4.08-1.39-4.27-1.34-.13-2.4,4.71-1.2,5.94"/>
    <path class="st3" d="M248.96,209.71c.6-1.06.63-4.08-1.39-4.27-1.34-.13-2.4,4.71-1.2,5.94"/>
    <path class="st98" d="M247.12,206c1.15-1.01,2.14.78,1.7,2.98-.64-2.09-2.07-2.56-1.7-2.98"/>
    <path class="st55" d="M202.47,197.63c3.56-2.82,8.3-4.04,16.42-3.73,8.39.32,13.2.53,14.95.44.49-.03-.18,2.09-1.79,3.02-2.12,1.23-11.22,6.38-21.63,7.65-9.15,1.12-14.54-2.15-7.94-7.39"/>
    <path class="st98" d="M243.85,190.84c-1,1.4,10.29,5.23,12.61,3.67.86-.88-.21-3.39-3.82-4.16s-7.74-.98-8.8.49"/>
    <path class="st98" d="M235.79,201.46c1.07-1.13,2.81.93,3.4,3.42-1.88-1.9-3.84-2.96-3.4-3.42"/>
    <g class="st62">
      <g class="st91">
        <path class="st56" d="M328.75,171.61c-.55-2.06-2.91-4.85-6.64-4.53-3.74.32-7.17,13.76-3.73,17.73,3.43,3.96,7.89.7,8.14-1.63.24-2.33-1.5-5.38-2.33-4.58s-1.49,3.03-3.54,2.56c-2.05-.46-1.54-9.87,2.15-10.36,3.68-.5,1.94,2.54,3,3.11s3.42-.58,2.96-2.3"/>
        <path class="st56" d="M332.25,172.98c-2.27-1.39-5.27,1.82-5.58,5.93-.23,3.02.49,5.95,3.11,5.86,3.81-.13,7.87-8.46,2.46-11.78M329.33,180.1c-.84-2.31,1.5-4.93,3.11-4.3,1.41.55,1.56,2.98.12,4.95-1.03,1.4-2.81.49-3.23-.65"/>
        <path class="st56" d="M332.87,187.82c2.77,2.97,6.83.84,8.84-4.18,1.73-4.3-1.05-9.4-4.03-9.04-2.77.34-3.11,2.88-3.72,5.34-.95,3.83-2.87,5.96-1.09,7.87M334.56,185.13c-.23-1.15,1.24-5.7,2.22-5.65,1.94.11,3.04,2.31,1.31,5.27-.69,1.18-3.14,2.3-3.53.38"/>
        <path class="st56" d="M342.22,172.65c-.54,1.23,1.6,3.25.59,9.18-.67,3.9-2.76,5.62-2.28,6.65.48,1.02,4.72,1.77,6.39.66s3.29-5.54,2.45-6.2-1.5,1.6-2.29,2.39c-.78.79-3.32,1.33-3.33.17,0-1.16,4.07-8.78,3.29-10.83s-4.53-2.72-4.83-2.02"/>
        <path class="st56" d="M323.79,193.46c.91-.06,4.26.99,4.32,1.84s-.01,2.88-1.09,3.39c-1.08.52-4.14-.06-4.25-1.61-.1-1.55.43-3.59,1.02-3.63"/>
        <path class="st56" d="M330.15,195.38c-.43.57-1.01,3.25-.49,4.02.52.77,4.68.76,5.26-.3.57-1.06,1.32-3.25.14-3.66s-4.37-.78-4.91-.05"/>
        <path class="st56" d="M318.49,187.17c1.1,6.74,17.65,10.36,24.71,4,2.06.9,3.3-.31,1.61-1.63-1.7-1.32-2.71-.12-2.85.95-.14,1.07-5.01,3.97-13.39,2.4s-9.67-5.2-9.05-5.96c.61-.75,1.37-3.35-1.56-2.22-2.93,1.12-.48,2.72.54,2.47"/>
      </g>
    </g>
  </g>
  <rect class="st43" x="11.14" y="199.86" width="84.65" height="84.65" rx="14.28" ry="14.28"/>
  <rect class="st25" x="11.14" y="199.86" width="84.65" height="84.65" rx="14.28" ry="14.28"/>
  <path class="st67" d="M52.85,259.56c-.99.03-1.94-.03-2.84-.21-.9-.17-1.8-.46-2.69-.87-.44.24-.88.36-1.31.36s-.82-.07-1.18-.21c-.36-.14-.67-.3-.92-.49-.26-.19-.44-.33-.54-.44-.38-.55-.6-1.16-.67-1.84s.15-1.33.67-1.95v-26.33c0-.78.27-1.44.82-1.97s1.18-.86,1.9-1,1.41-.02,2.07.36c.67.38,1.12,1.06,1.36,2.05.14.62.25,1.22.33,1.82s.14,1.29.15,2.07c.02.79.02,1.69,0,2.72-.02,1.02-.06,2.29-.13,3.79.31-.17.62-.33.95-.49.32-.15.66-.31,1-.49.95-.44,1.98-.72,3.07-.82s2.16-.04,3.2.18c1.04.22,2.02.63,2.92,1.23s1.65,1.38,2.23,2.33c.82,1.37,1.37,2.96,1.66,4.79s.29,3.64,0,5.43c-.29,1.79-.89,3.46-1.79,5-.91,1.54-2.18,2.68-3.82,3.43-1.02.48-2.08.85-3.15,1.1-1.08.26-2.18.4-3.3.44h0ZM49.63,246.44v6.15c.07.07.14.12.21.15s.14.08.2.15c3.07,1.02,5.74.32,7.99-2.1.51-1.37.76-2.66.74-3.87-.02-1.21-.25-2.52-.69-3.92-.17-.41-.45-.67-.85-.79s-.74-.26-1.05-.44c-.55-.1-1.14,0-1.77.31s-1.24.69-1.82,1.15-1.11.96-1.59,1.51-.85,1.01-1.13,1.38l-.26.31h.02Z"/>
</svg>