<?xml version="1.0" encoding="UTF-8"?>
<svg id="Layer_1" xmlns="http://www.w3.org/2000/svg" version="1.1" xmlns:xlink="http://www.w3.org/1999/xlink" viewBox="0 0 448.51 500.01">
  <!-- Generator: Adobe Illustrator 30.1.0, SVG Export Plug-In . SVG Version: 2.1.1 Build 136)  -->
  <defs>
    <style>
      .st0 {
        fill: #d68469;
      }

      .st1 {
        fill: #724e3e;
      }

      .st2 {
        fill: #f1eff7;
      }

      .st3 {
        fill: #d18b52;
      }

      .st4 {
        fill: #ed8b59;
      }

      .st5 {
        fill: #f7ab81;
      }

      .st6 {
        fill: #f4898b;
      }

      .st7 {
        fill: #01253c;
      }

      .st8 {
        fill: #fef3f3;
      }

      .st9 {
        fill: #157259;
      }

      .st10 {
        fill: #fff;
      }

      .st11 {
        fill: #f05973;
      }

      .st12 {
        fill: #593e98;
      }

      .st13 {
        fill: #fbcbcc;
      }

      .st14 {
        fill: #9f96bc;
      }

      .st15, .st16, .st17 {
        fill: none;
      }

      .st18 {
        fill: #bbb8c4;
      }

      .st19 {
        fill: #c9c4d6;
      }

      .st20 {
        fill: #eeedf3;
      }

      .st21 {
        fill: #2d1b10;
      }

      .st22 {
        fill: #a0b8ba;
      }

      .st23 {
        fill: #5b351b;
      }

      .st24 {
        clip-path: url(#clippath-1);
      }

      .st25 {
        fill: #6552a2;
      }

      .st26 {
        fill: #3b899b;
      }

      .st27 {
        fill: #105e49;
      }

      .st28 {
        fill: #231f20;
      }

      .st29 {
        fill: #dfdcea;
      }

      .st30 {
        fill: #0e765b;
      }

      .st31 {
        fill: #f2dad3;
      }

      .st32 {
        clip-path: url(#clippath-3);
      }

      .st33 {
        fill: #6d61ab;
      }

      .st34 {
        fill: #724220;
      }

      .st35 {
        fill: #4f281a;
      }

      .st36 {
        fill: #b37336;
      }

      .st37 {
        fill: #c8e5e8;
      }

      .st38 {
        fill: #f69075;
      }

      .st39 {
        fill: #8e191c;
      }

      .st40 {
        fill: #8f5c2b;
      }

      .st41 {
        fill: #f05555;
      }

      .st42 {
        fill: #fed7b6;
      }

      .st43 {
        fill: #ccc;
      }

      .st44 {
        fill: #a3a3a3;
      }

      .st45 {
        clip-path: url(#clippath-2);
      }

      .st46 {
        fill: #fbbfa2;
      }

      .st47 {
        fill: #a86f41;
      }

      .st48 {
        fill: #f37e80;
      }

      .st16 {
        stroke: #e04275;
        stroke-width: 5px;
      }

      .st49 {
        fill: #cdcccd;
      }

      .st50 {
        fill: #d32d41;
      }

      .st17 {
        stroke: #68cbdc;
      }

      .st51 {
        fill: #492d1f;
      }

      .st52 {
        clip-path: url(#clippath);
      }

      .st53 {
        fill: #f8bac9;
      }

      .st54 {
        fill: #1a8e6e;
      }
    </style>
    <clipPath id="clippath">
      <rect class="st15" x="97.88" y="17.67" width="302.57" height="444.23"/>
    </clipPath>
    <clipPath id="clippath-1">
      <rect class="st15" x="96.68" y="17.67" width="304.97" height="444.23"/>
    </clipPath>
    <clipPath id="clippath-2">
      <rect class="st15" x="97.88" y="17.67" width="302.57" height="444.23"/>
    </clipPath>
    <clipPath id="clippath-3">
      <rect class="st15" x="96.68" y="17.67" width="304.97" height="444.23"/>
    </clipPath>
  </defs>
  <rect class="st10" x="59.43" y="63.74" width="373.17" height="406.9" rx="7.51" ry="7.51"/>
  <rect class="st16" x="59.43" y="63.74" width="373.17" height="406.9" rx="7.51" ry="7.51"/>
  <g class="st52">
    <path class="st49" d="M306.71,461.9c-33.13,0-63.09-4.66-53.7-17.21,2.34-3.13,7.98-5.63,15.64-7.48-1.53,2.8-2.29,5.37-1.11,6.44,1.3,1.17,3.09,1.63,5.03,1.63,3.54,0,7.58-1.53,10.08-3.11,2.58-1.62,5.65-5.62,8.07-8.21,1.01-.08,2.04-.15,3.07-.22l.22,6.96s.48.21.98.21c.3,0,.6-.08.8-.33.2-.24.45-3.52,1.03-7.02,4.33-.23,8.79-.34,13.29-.34,7.79,0,15.71.34,23.28,1.01,2.79,8.79,7.64,19.6,12.67,19.6.36,0,.72-.06,1.08-.17,4.36-1.39,4.85-9.23,3.88-17.08,14.4,2.67,25.41,6.93,28.39,12.82,3.5,6.91-36.49,12.48-72.7,12.48"/>
    <path class="st37" d="M312.39,53.58c125.6,32.07,119.66,328.27-35.99,328.27-165.59,0-163.79-379.3,35.99-328.27"/>
    <path class="st30" d="M119.4,33.01c7.48-7.48,217.84-6.65,231.14,6.65,7.48,7.48,3.74,157.56-1.66,162.96-5.4,5.4-212.02,13.31-224.49.83-13.31-13.31-16.22-159.22-4.99-170.45"/>
    <path class="st34" d="M364.03,30.5c-14.83-14.84-249.45-15.76-257.79-7.42-12.51,12.52-9.27,175.26,5.57,190.1,13.91,13.91,244.34,5.09,250.36-.93,6.03-6.02,10.2-173.41,1.85-181.75M343.29,193.96c-5.15,4.84-201.73,11.92-213.6.74-12.66-11.92-15.42-142.69-4.75-152.74,7.12-6.71,207.27-5.96,219.93,5.96,7.12,6.7,3.56,141.19-1.58,146.03"/>
  </g>
  <g class="st24">
    <path class="st36" d="M348.05,47.36c.25-3.3,11.49-10.09,12.48-7.79,7.36,17.15,7.79,152.46-.11,164.31-2.5,3.74-13.14-5.68-12.16-12.79,9.98-72.33-.51-139.68-.21-143.74"/>
  </g>
  <g class="st45">
    <path class="st36" d="M128.56,198.89c-4.02-.55-13.56,13.81-9.98,14.34,63.5,9.35,201.47,2.96,232.33-4.52,3.43-.83-4.83-10.45-10.44-10.45s-120.97,13.1-211.91.63"/>
    <path class="st36" d="M110.97,21.51c-3.61,1.54,10.15,15.39,13.85,14.83,41.16-6.24,158.64-4,221.84,4.31,2.88.38,16.33-11.79,11.86-12.85-53.28-12.66-234.53-11.83-247.55-6.29"/>
    <path class="st36" d="M103.46,29.12c.92-2.79,13.28,8.67,12.79,11.96-5.82,39.33-3.49,117.59,8.15,152.41,1.12,3.35-14.1,16.13-16.08,13-7.2-11.34-16.66-141.77-4.86-177.37"/>
    <path class="st54" d="M129.8,50.61c3.14-9.64,192.27-5.4,212.04,8.29,3.62,2.51,2.67,123.98-5.43,132.08-9.67,9.66-186.55,11.75-200.05-1.75-11.87-11.87-17.86-103.89-6.56-138.62"/>
    <path class="st3" d="M102.77,44.24c2.52-9.67,5.83-9.56,2.91,19.95-2.91,29.52,3.87,69.43-1.25,69.43s-6.75-69.85-1.66-89.38"/>
    <path class="st3" d="M136.03,23.45c3.64-2.28,61.53-5.82,63.6-1.25,2.08,4.57-71.52,6.19-63.6,1.25"/>
  </g>
  <g class="st32">
    <path class="st3" d="M221.05,25.53c4.75-1.01,89.48,1.87,92.6,4.99s-96.43-4.18-92.6-4.99"/>
    <path class="st3" d="M140.61,204.29c-6.2-.62,11.23,7.9,56.96,7.9s61.53-5.82,54.88-5.82-53.63,3.74-111.83-2.08"/>
    <path class="st3" d="M292.86,205.96c22.2-1.11,29.1,1.83.43,5.53-28.68,3.71-58.63-2.62-.43-5.53"/>
    <path class="st3" d="M357.61,60.14c-2.71-9.47-4.67-9.98-3.74,1.56.94,11.54,2.81,36.48,2.81,47.39s2.81,14.03,4.67,0c1.87-14.03-2.1-43.22-3.74-48.95"/>
    <path class="st3" d="M354.49,156.48c.8-13.79,6.55-23.7,4.06,4.68-2.49,28.37-6.49,37.63-4.06-4.68"/>
    <path class="st29" d="M153.47,60.59l.32-.1c1.99-.02,3.51.31,4.55.97,1.87,1.18,3.2,2.56,3.97,4.16.64.82,1.64,2.6,3.01,5.34l1.71,3.92c.17.76.34,1.4.51,1.94.03.11.09.21.17.3.47,1.53.79,3.72.97,6.56-.21,1.34-.86,2.18-1.94,2.51.02.05-.15.16-.5.32-1.59.29-2.43.29-2.52-.02-.73-.07-1.39-.53-2-1.39-1.19-1.83-2.32-3.74-3.4-5.74-.45-.49-.85-.74-1.18-.76l-.08.02c-.51.55-.73,1.54-.66,2.97.15,3.78-.26,6.31-1.24,7.59-.61.65-1.18,1.06-1.71,1.22l-.72.22c-1.64.12-2.54-.07-2.69-.56-.25.08-.78-.6-1.59-2.03l-1.12-3.15c-.69-3.74-.98-6.21-.87-7.39-.07-2.79.41-5.98,1.44-9.57.14-.26.37-.91.7-1.95.93-1.74,1.56-2.71,1.88-2.91.23-.46.91-1.1,2.04-1.92.06-.17.37-.36.95-.56M148.47,75.5l-.1.03c-.1.03-.17-.04-.23-.2l-.25.07c.08.27.06.85-.07,1.76l.18.05c.91-1.24,1.52-2.21,1.82-2.91l-.17.05c-.42.65-.82,1.04-1.2,1.15M148.18,78.54l-.25.07.09,1.19.02.07.1-.03c.81-1.18,1.37-2.1,1.68-2.76l-.03-.09-.09.03c-.59.88-1.09,1.39-1.52,1.52M149.2,80.48l-.17.05c-.21.06-.5-.02-.86-.25-.1.04-.13.11-.1.2l.13.15c0,.78.08,1.51.23,2.18l.07-.02c1.18-1.47,2.29-3.23,3.35-5.28l-.02-.07-.15.05c-.33.28-1.07,1.2-2.22,2.76-.07.02-.16.1-.26.24M148.24,73.05c0,.05-.03.38-.13.99l.17.03c.48-.69.71-1.08.7-1.16l-.02-.07-.38.2-.34.02h0ZM148.6,71.12l.08-.02c.49-.52.75-.89.79-1.13l-.08.02c-.54.47-.8.84-.79,1.13M149.06,83.75c-.21-.04-.35-.06-.44-.03l.26.87.08-.02c.23-.16.63-.83,1.2-2.02-.5.73-.86,1.13-1.1,1.2M149.22,85.7l.14.47.15-.05c.09-.03.16-.17.23-.42l-.02-.07-.5.07h0ZM149.6,69.85l.09-.03c.1-.03.14-.1.11-.2l-.08.02c-.11.05-.15.12-.12.2M150.28,87.2l-.3.09.1.32c.04.14.14.28.3.43.14-.04.6-.88,1.4-2.51l-.02-.08c-.69,1.08-1.18,1.66-1.47,1.75M150.78,81.66l.08-.02c.1-.03.14-.1.11-.2l-.08.02c-.1.05-.13.11-.11.2M151.26,88.98l.05.15c.12.14.42.23.87.27l.08-.02-.03-.1-.22-.18-.02-.08c.9-1.44,1.32-2.24,1.27-2.39l-.02-.07c-.1.03-.57.6-1.4,1.73l-.48.66-.09.03h-.01ZM151.46,73.64l.02.07.07-.02.7-.56c-.08-.27-.17-.38-.27-.35-.1.05-.27.33-.52.86M151.59,70.97l.2.04.15-.04c.07-.03.18-.36.32-.97l-.1.03c-.41.55-.6.87-.58.94M152.84,74.17c.02.07-.14.41-.48,1.01l.02.08c.6-.53.88-.85.85-.96-.08-.08-.13-.15-.15-.2l-.24.07h0ZM153.54,72.22c.33.69.79,1.16,1.38,1.4.29.02.63-.03,1.01-.14.93-.28,1.36-1.17,1.28-2.64l-.07-.5c-.46-1.5-1.03-2.34-1.72-2.51-.9.49-1.49,1.43-1.77,2.79-.19.06-.23.59-.11,1.61M153.56,84.54l.08-.02c.34-.5.66-.8.95-.89.12.02.23.01.35-.02-.03-.87-.08-1.41-.14-1.61-.88,1.51-1.29,2.36-1.23,2.54M153.82,78.56c.78-.24,1.45-.9,2-1.99l-.02-.08-.07.02c-1.23.99-1.86,1.67-1.9,2.05M153.95,80.69l.05.17c.12-.04.39-.01.81.08.07-.05.12-.55.14-1.51.11-.03.15-.1.12-.2l-.03-.1-.1.03c-.58.99-.91,1.5-1,1.53M154.05,61.63c.29.18.43.28.44.3.02.12-.14.45-.48,1.01.02.07.12.13.3.18l.1-.03c.57-.76,1.02-1.18,1.35-1.28l-.05-.17c-.83-.09-1.35-.11-1.58-.04l-.08.02h0ZM154.44,74.9c-.11.37-.24.59-.4.64l.05.15.07-.02c.45-.14.75-.4.9-.79-.24-.03-.45-.03-.61.02M155.31,74.88l.05.17.42-.04c.11-.03.15-.1.12-.2l-.59.08h0ZM156.82,62.17c.03.1-.04.33-.22.69.67-.2,1.09-.25,1.26-.14l-.05-.15c-.02-.06-.29-.21-.82-.45l-.17.05h0ZM156.99,77.24l.05.17c.16-.05.47-.06.94-.04l-.05-.15c-.21.07-.35-.01-.42-.22.02-.12.02-.2,0-.27l-.08.02c-.2.29-.35.46-.45.49M157.31,67.5l.02.07c.22.22.37.32.44.3l.08-.02c.13-.29.44-.82.92-1.58l-.07-.23c-.95.92-1.41,1.41-1.39,1.46M158.56,68.68s-.25-.04-.59-.17l.02.08c.15.15.33.42.52.81-.02.1-.02.21.02.33l.05.17.07-.02c.58-.85,1.03-1.66,1.35-2.42l-.07.02c-.57.7-1.03,1.1-1.37,1.2M158.2,62.97l.07.24c.1-.03.14-.1.1-.21l-.17-.03h0ZM159.61,78.45l.05.15c.05.11.11.15.2.12,1.06-1.51,1.75-2.65,2.1-3.42l-.02-.08c-.34.27-.99,1.19-1.95,2.76-.18.08-.31.24-.37.47M160.33,72.24c.33-.1.65,0,.96.31.7-.74,1.16-1.14,1.37-1.2.2-.06.47.03.79.29l.05.15-1.15,1.65.17-.05c.77-.92,1.33-1.44,1.7-1.55-.12-.42-.67-1.42-1.62-3-1.26,1.68-2.02,2.81-2.27,3.4M160.54,80.08c.24.51.4.74.49.72.8-1.07,1.64-2.6,2.5-4.58l-.15.04c-.59.59-1.43,1.75-2.52,3.46-.26.08-.37.2-.32.37M161.82,82.29l.22.37.07-.02c1.13-1.9,1.78-3.08,1.96-3.55l-.02-.08-.08.03c-.45.42-1.13,1.41-2.05,2.96-.11.03-.14.14-.1.3M162.97,84.03c.32.56.84,1.01,1.54,1.35.11-.04.3,0,.55.1l.47-.15c-.02-.06-.02-.15,0-.27-.25-.03-.4-.16-.47-.37l-.37.2-.3.09c-.08.02-.29-.11-.66-.4l-.03-.09,1.38-2.94-.02-.07-.07.02c-.86.92-1.53,1.77-2.02,2.53M164.54,72.93c.02.06-.34.69-1.08,1.9l.02.07.08-.02c.48-.49.81-.76.97-.81.05-.02.27-.06.67-.12-.3-.72-.52-1.06-.66-1.02M163.97,77.63l.02.07.24-.07c.47-.78.91-1.23,1.32-1.35l.07-.02.3.1.15-.04-.42-1.36c-.03-.1-.1-.14-.2-.11l-.1.03c-.81,1.8-1.28,2.73-1.41,2.77M166.08,77.17c.07.24-.56,1.48-1.91,3.7l-.07.29.02.07c1.1-1.09,1.71-1.66,1.82-1.69.26.02.5.12.71.3l.05.17c-.58,1.35-.86,2.07-.83,2.15l.07-.02c.45-.53.76-.83.95-.89l.32-.1c-.22-1.48-.49-2.76-.82-3.84-.08-.08-.13-.15-.14-.2l-.17.05h0Z"/>
    <path class="st29" d="M200.16,60.98s.07.03.06.08l.37-.02.59.08c2.17.63,3.55,1.26,4.13,1.89,1.2,1.31,1.78,2.1,1.74,2.35.51,1.29.69,2.36.57,3.23l-.1.66c-.29,1.96-1.54,3.65-3.74,5.05-.56.27-.88.39-.95.38v.07c1.26,1,2.09,1.95,2.48,2.84.48.78.62,1.85.42,3.2-.14.96-.74,2.27-1.78,3.92-2.32,2.15-5.23,2.96-8.74,2.44l-1.83-.27c-2.51-.86-3.75-1.45-3.7-1.75-.29-.05-.41-.26-.35-.65.06-1.29.05-1.94,0-1.95l.18-.72c.06-.39.1-.86.14-1.4l.1-.14c-.03-.11-.05-.18-.04-.23.02-.1.05-.14.1-.14,0-.7.12-1.8.35-3.31l.34-2.27c.05-.3.08-.67.09-1.11.07-.14.14-.43.2-.87l.1-.66c.02-.17.03-.39.02-.67,0-.05.03-.07.08-.06l.03-.74c.12-.79.22-1.27.29-1.45.07-.8.16-1.58.28-2.35l.46-3.07c.11-.74.63-1.21,1.56-1.41,2.18-.97,4.37-1.29,6.57-.96M190.68,83.87l-.02.15.15.02c.07.01.19-.07.33-.25l-.29-.04c-.1,0-.16.04-.17.12M191.26,82.01l-.36-.05-.08.51h.07c.06.02.23-.13.51-.44v-.07l-.15.05h0ZM191.33,80l-.29-.04-.13.88h.08c.1.03.55-.33,1.35-1.06h-.07c-.47.17-.79.24-.93.22M191.19,78.48l-.08.51h.07c.09.03.4-.2.93-.67l-.15-.02c-.27.16-.53.22-.77.18M191.35,76.87c.02.2.02.38,0,.52h.07c.38-.15.57-.26.58-.35-.27-.1-.39-.3-.36-.58-.09-.01-.18.12-.29.41M191.65,74.89l-.02.15.15.02c0-.07.07-.16.19-.27l-.15-.02c-.1,0-.16.04-.17.13M192.27,72.74c-.08-.06-.17-.1-.28-.11l-.11.73c0,.1.04.15.12.17l1.44-1.13h-.07c-.39.19-.76.31-1.1.34M192.21,71.16c.03.1.05.18.04.23.07.01.19-.07.34-.25v-.07l-.13-.02-.24.11h0ZM192.47,69.4l-.03.22c.1.01.15-.03.17-.12v-.07l-.14-.02h0ZM192.86,66.77h.07c.1.03.15-.01.17-.11v-.07c-.06-.01-.15.05-.24.19M192.95,85.18v.07c0,.1.03.15.11.17l.22.03c.02-.15.23-.39.63-.73l.02-.15h-.07c-.55.41-.85.61-.91.6M193.09,65.24l-.03.22h.07c.72-.33,1.42-.78,2.07-1.32h-.07c-1.14.53-1.82.9-2.04,1.1M194.77,70.5l-1.1.88.13.1c.45-.07.91-.33,1.39-.76v-.07c-.24-.09-.38-.14-.42-.14M194.6,85.65l-.03.22h.08c.52-.31,1.44-.99,2.77-2.04v-.07h-.06c-1.17.58-2.09,1.21-2.75,1.9M199.87,80.9c-.41.68-.95,1.09-1.61,1.26-.98.15-1.86.17-2.63.06l.05.16c-.02.15-.26.43-.73.86h.07c.35-.19.61-.27.79-.25.18.03.38.18.6.46h.07c1.1-.57,1.86-.83,2.28-.77.22.18.32.37.29.57l.15.02c.08.01.26-.14.51-.45l.02-.14c-.11-.02-.23-.21-.36-.58v-.07l.97-.9c-.12-.12-.28-.19-.49-.23M195.58,79.07l-.04.29c0,.05-.03.07-.08.06l.05.16-.15,1.03c-.02.1.28.27.9.51,1.48.11,2.26-.12,2.35-.69.12.02.24-.26.35-.85.08-.51-.3-1.02-1.12-1.51,0-.05-.38-.16-1.15-.32-.54-.08-.85.15-.92.68-.08.17-.14.39-.17.65M195.96,63.05l.11.24-.37.47h.07c.31-.24.53-.36.65-.34v-.07l-.21-.03v-.07c.04-.1.1-.14.18-.12.1.03.14.08.12.17l.32-.1c-.04-.1-.05-.18-.04-.23.05-.18.48-.41,1.3-.7l.1-.13h-.08c-.37-.06-1.08.26-2.16.94M196.07,71.29c-.17.16-.27.3-.28.41l.29.04c.34.05.55.28.64.69.46-.17,1-.41,1.61-.73v-.07c-.57-.04-.99-.08-1.25-.11l-.51-.08-.5-.15ZM195.98,85.93v.07l.28.05.38-.02v.07c.22.03,1.17-.67,2.85-2.11l-.14-.1h-.08c-1.34.63-2.44,1.31-3.29,2.04M196.28,76.4l-.02.15c.47.07.94-.21,1.4-.84h-.07c-.38.08-.81.32-1.3.69M198.7,66.22c0,.08-.32.14-.92.16-.57.11-.9.54-1.01,1.27l-.27,1.83c-.05.34.18.6.71.78l.58.09c.84.12,1.72-.24,2.63-1.1.03-.19.18-.56.46-1.13-.08-1.06-.68-1.67-1.82-1.84l-.37-.06h0ZM198.43,62.07v.08l.29.49-.02.15c-.5.33-.75.51-.76.56,0,.1.06.16.2.18,1.45-.68,2.23-1.09,2.35-1.22v-.07c-.51-.08-1.2-.13-2.06-.16M198.68,85.89l-.02.15c.44.07.7-.15.77-.64h-.07c-.06-.02-.29.15-.68.49M198.81,77.01v.07l.28.04c0-.07.07-.16.19-.27v-.07h-.06c-.26.07-.4.15-.41.23M199.14,75.78l.15.02c.69-.28,1.04-.46,1.05-.52h-.07c-.44-.08-.81.09-1.12.49M199.87,77.92c0,.1.04.15.12.17l.43-.38v-.07c-.33.07-.52.17-.56.29M200.25,70.87l-.03.22h.07c.1.03.15-.01.17-.11v-.07l-.21-.03h0ZM200.39,78.96c0,.43-.03.7-.05.81h.07c1.01-.75,1.53-1.22,1.55-1.4-.94.41-1.47.6-1.58.59M200.84,71.4l-.29-.04-.02.15c.49.07.69.36.62.84.9-.91,1.51-1.34,1.84-1.29l.36.13,1.17-.8v-.07h-.06s-.64.27-.64.27l-.22-.03.02-.15.94-.76.02-.15h-.07c-1.89,1.24-3.11,1.88-3.65,1.91M201.26,65.63l-.02.15.22.03.02-.15-.22-.03ZM201.82,69.38h.07s.29-.17.76-.55h-.07c-.45.19-.7.37-.76.55M202.1,67.03l.25.34c.12,0,.6-.35,1.43-1.06v-.07h-.06s-1.62.8-1.62.8h0ZM202.62,77.05l.15.02c.32-.12.48-.23.5-.3l-.14-.1c-.07-.01-.24.11-.5.37M203.26,82.23h.07c.41-.05.62-.15.64-.27.06-.08.11-.2.13-.36l.03-.22c-.23.07-.51.35-.87.84M203.42,78.22l.15.02c.18-.12.32-.17.4-.16l.03-.22-.15-.02c-.06-.01-.21.12-.43.38M204.2,79.98v.07h.06c.1.02.16-.02.17-.11v-.07h-.06c-.1-.01-.16.03-.17.11M204.3,64.81h.07c.18-.11.31-.16.4-.15l.03-.22c-.08-.01-.24.11-.51.37M204.48,68.58v.07c1.13-.61,1.7-.95,1.71-1.01v-.07c.03-.1,0-.15-.11-.17-.06,0-.59.38-1.6,1.18M205.55,65.97l-.02.15h.07c.1.02.15-.02.17-.11l-.22-.03h0Z"/>
    <path class="st29" d="M179.29,99.78c.99-.25,1.98.06,2.99.93.36.42.7.97,1.01,1.65.23.9-.03,1.95-.79,3.17-.58.71-2.13,1.75-4.62,3.15-1.94,1.78-2.68,3.6-2.21,5.45l.11.43c.14.53.65,1.14,1.53,1.82,1.58.76,3.13,1.25,4.66,1.48,1.34.57,2.24,1.28,2.68,2.15l.07-.02c.58,2.29-.21,3.91-2.36,4.86-.97.41-1.57.64-1.8.69-.6.15-1.72.16-3.35.01-1.01-.19-2.22-.65-3.63-1.38-.02-.1-.17-.19-.45-.27l-.13.12-.36.09c-.08.02-.25-.14-.51-.49l-.02-.07c-.02-.08.06-.17.23-.29-1.47-1.38-2.31-2.46-2.51-3.25-.57-.87-.95-1.69-1.15-2.46-.69-2.73-.87-4.95-.54-6.64.06-.19.08-.35.04-.48l-.15-.25c.24-.06.52-.74.86-2.05.34-.83.83-1.72,1.46-2.67,1.39-1.85,2.87-3.14,4.44-3.86,1.38-.81,2.88-1.42,4.49-1.83M169.34,112.6l.07-.02c.12-.21.64-.8,1.54-1.77.17-.39,1.09-1.49,2.76-3.29l.03-.15-.07.02c-1.92,1.98-3.09,3.32-3.5,4.01-.66.41-.94.81-.83,1.2M169.35,114.12l.15-.04c.14-.03.65-.52,1.53-1.46l.07-.02-.07-.29-.07.02c-.68.8-1.21,1.35-1.58,1.63l-.03.15h0ZM169.55,115.21l.05.22.14-.03c.1-.13.19-.21.25-.23l-.02-.07-.42.11ZM169.59,110.56c.79-.72,2.11-2.35,3.94-4.89l-.07.02c-2.68,2.68-3.97,4.21-3.88,4.57v.3h.01ZM170.34,117.39l-.26-.1-.07.02c.17.32.27.5.28.55l.07-.02c.14-.03.41-.28.81-.73l-.04-.15c-.42.27-.68.41-.79.44M170.35,114.79l.15-.04c.07-.02.12-.11.15-.27l-.07.02c-.18.12-.26.22-.24.29M170.85,107.1c.03.11-.04.17-.19.21l.02.07.15-.04c-.03-.1.03-.17.17-.2l-.02-.07-.14.03h.01ZM170.8,118.94c.03.12.13.33.3.61l.16-.04,1.54-2.29.08-.02-.03-.14c-.54.37-1.12.94-1.77,1.74l-.27.14h0ZM171.06,112.16l.02.07.22-.06c.12-.03.98-.99,2.56-2.86l.07-.02-.03-.14c-.17.04-1.06,1.03-2.68,2.96l-.15.04h-.01ZM171.79,120.76h.31l.43-.73-.15.04c-.37.31-.56.54-.59.69M172.81,121.78c.15.2.27.3.38.28l.07-.02c.63-.69,1.13-1.45,1.49-2.28l-.02-.07-.07.02c-1.28,1.2-1.9,1.88-1.85,2.07M173.55,115.05l.14-.03c.28-.23.47-.48.57-.76l-.04-.15-.07.02c-.38.46-.58.77-.6.93M173.9,117.01l.14-.03c.45-.51.76-.79.93-.83-.12-.28-.23-.41-.33-.38-.15.03-.39.45-.73,1.25M174.07,122.84c.02.07.17.16.45.27.21-.06.72-.87,1.52-2.44l-.02-.09-.07.02c-.84.85-1.47,1.59-1.88,2.24M174.62,118.35l.02.08.07-.02.84-.9c.52.06.83.16.91.29.02.25-.18.78-.59,1.6l.02.07,1.16-1.13c.24-.06.51.02.82.24l.02.07c.06.24-.15.8-.64,1.7l.02.07.08-.02,1.66-1.8.15-.04c-.02-.07-.75-.34-2.2-.82l-1.28-.89-.08.02c-.35.44-.68.93-.99,1.47M174.75,103.53l.15-.04c.56-.53.91-.92,1.06-1.18l-.2.05s-.38.4-1.01,1.16M178.78,101.05l-1.14.29.02.07c.07.08.11.15.12.2l-2.99,3.59-.03.15.14-.03c0-.08.78-.78,2.29-2.1l1.26-1.32c.27-.37.5-.58.69-.63l.27-.07c.16.01.27.13.33.37-.29.5-1.63,2.01-4.04,4.54l.03.14.07-.02c2.23-2.29,3.54-3.57,3.91-3.82.29-.07.49.08.59.46-1,.99-1.66,1.72-1.97,2.19l.07-.02c1.72-1.61,2.65-2.43,2.8-2.47.34-.08.55.03.63.37l.07-.02-.07-.27c-.6-1.38-1.26-1.98-1.98-1.8-.48.1-.73.11-.75.05l-.34.16h.02ZM175.64,123.58l.02.07c.03.1.11.14.24.1.25-.06.78-.78,1.59-2.16l-.02-.07-.07.02s-.64.69-1.77,2.04M179.9,118.7s0,.07-.07.09c.08.08.13.15.14.2l.05.2c.54.12.95.14,1.23.07.4-.04.64.1.73.43-.03.1-.05.18-.03.24.24-.06.45.06.64.36-.05.18-.06.31-.05.39l.07-.02c.28-.28.41-.46.39-.55l-.03-.14c-.77-.69-1.79-1.12-3.07-1.29M181.14,123.95c.06-.01.09,0,.1.05.07-.07.16-.11.27-.14l-.06-.23-.15.04c-.07.02-.12.11-.16.28M181.38,103.53l.02.07c.03.1.16.14.41.11l.13-.41-.07-.28c-.19.3-.35.47-.49.51M183.38,121.62l.02.07.22-.06-.05-.2-.07.02c-.1.04-.14.09-.12.17"/>
    <path class="st43" d="M331.12,425.3l19.9,11.3c-5.47-1.02-11.44-1.8-17.63-2.35-1.15-3.63-1.95-6.91-2.27-8.95-.62-1.23-1.13-2.27-1.49-3.03-.27-.08-.51-.19-.71-.33-3-2.05-1.71-5.39-1.45-6.95.25-1.56-3.08-.2-3.4-5.81-.07-1.24-6.05-16.85-12.28-33.03,8.2-2.81,15.82-6.6,22.87-11.23,3.28,17.92,6.99,36.62,7.37,37.08,2.84,3.36,3.39,6.51,2.34,8.05-1.05,1.53,3.81,2.58,1.05,6.62-.1.15-.24.3-.38.46.27.65.57,1.36.89,2.13,1.46.94,4.06,9.15,5.08,17.35M268.65,437.2c1.88-3.43,4.9-7.2,6.9-8.93,0,0-.03.05-.04.07,2.19-3.9,4.72-8.38,5.84-11.96-.07-.05-.17-.1-.23-.15-3.8-3.08.56-5.48-.89-6.65-1.43-1.17-1.81-4.34-.05-8.37.15-.35-1.97-8.66-4.67-19.37h.89c7.97,0,15.55-.78,22.74-2.26.87,12.47,1.85,22.8,1.94,23.74.28,2.7-2.28,5.12-1.59,6.54.68,1.42,2.87,4.26.59,7.08-.29.37-.79.66-1.41.9-.05.75-.11,1.44-.17,2.1h0c.96.44.51,5.1-.68,9.07-.42,1.39-.75,2.99-1.01,4.54-1.02.06-2.03.11-3.03.18l-.07-2.12c-.74.1-1.78,1.04-3,2.34-8.25.65-15.84,1.73-22.08,3.24"/>
    <path class="st44" d="M294.98,440.91c-.49,0-.98-.21-.98-.21l-.22-6.96c1-.06,2.02-.12,3.03-.17-.59,3.5-.84,6.78-1.03,7.02-.2.25-.5.33-.8.33M272.57,445.27c-1.94,0-3.73-.46-5.03-1.63-1.18-1.07-.42-3.64,1.11-6.44,6.24-1.51,13.83-2.59,22.08-3.24-2.41,2.59-5.49,6.59-8.07,8.21-2.51,1.57-6.55,3.11-10.08,3.11M346.06,453.84c-5.03,0-9.88-10.81-12.67-19.6,6.2.56,12.16,1.34,17.63,2.36.97,7.85.48,15.68-3.88,17.08-.36.11-.72.17-1.08.17"/>
    <path class="st22" d="M276.4,381.85h-.89c-3.42-13.53-7.77-30.88-9.67-40.89-7.23-1.33-12.21-3.2-13.19-5.04-1.49-2.8,3.61-73.77,6.2-100.27-2.53-.96-13.24-7.19-16.33-9-.1,0-.18,0-.25,0s-.12,0-.14-.02c-.63-.6-2.31-2.41-1.22-3.56.16-.17,1.11-.5,2.59-.94l-1.07-2.01c30.19-.65,59.95-1.91,82.26-3.39-1.47,2.9-3.25,6.19-4.49,8.05,1.12-.24,2.27-.5,3.22-.71-.07-.97.02-1.77.28-2.32.09-.24.32-.54.6-.85.97-1.16,2.84-2.93,4.66-4.46,15.22-1.08,26.41-2.24,31.02-3.36.13.63.2,1.16.22,1.59.17,4.5-5.24,12.22-10.83,18.45.5,1.52-9.69,9.8-11.98,10.28-.28.06-.56.09-.84.09-3.3,0-6.75-3.88-9.29-8.42-2.28.38-5.12.74-7.9,1.08,5.36,36.12,28.33,83.1,24.81,89.66-3.95,3.95-8.88,7.07-14.38,9.51.62,5.47,2.65,17.35,4.89,29.59-7.05,4.63-14.67,8.42-22.87,11.23-5.22-13.55-10.6-27.5-12.83-33.74-.36.03-.73.06-1.09.09-.39,9.48.38,24.39,1.27,37.09-7.19,1.48-14.77,2.25-22.74,2.25"/>
    <path class="st27" d="M345.64,92.93c-.5,0-1.11-.14-1.8-.37,0-1.27-.02-2.51-.03-3.74.17.14.31.27.43.41,1.63.99,2.72,1.99,2.57,2.88-.1.59-.54.83-1.18.83M343.99,101.89s-.09,0-.14-.02c0-1.17.01-2.33.01-3.48.48,1.09.72,2.1.58,2.94-.07.38-.22.56-.45.56M329.08,196.25c-.5-.98-.92-1.81-1.24-2.41,4.53-.86,7.53-1.81,8.57-2.86,1.88-1.88,3.38-9.86,4.52-21.03,1.59,2.84,3.29,6.08,5.01,9.49-.79,8.23-1.69,13.63-2.65,14.53-.78.73-5.96,1.52-14.22,2.28M221.95,199.17c-.91,0-2.03-.18-3.3-.52,1.91.03,3.83.06,5.76.08-1.05.29-1.88.45-2.46.45M257.22,199.91c-.24-.43-.46-.86-.68-1.29,28.97-.5,55.58-2.08,69.7-4.5-.6.82-1.16,1.66-1.68,2.52-16.1,1.31-40.83,2.53-67.34,3.27"/>
    <path class="st23" d="M259.31,203.53c-.72-1.23-1.43-2.43-2.09-3.62,26.51-.74,51.24-1.96,67.34-3.27-.6.99-1.16,2.02-1.66,3.06-14.63,1.21-37.21,2.88-63.59,3.83M328.96,216.45c1.94-1.63,3.81-2.98,4.41-2.98h.08c.86-.79,1.51-1.51,1.77-2.12,6.6-.85,11.93-1.75,15.68-2.66,3.43-.83-4.83-10.45-10.45-10.45-.87,0-4.36.32-9.98.8-.5-1.01-.98-1.97-1.41-2.81,8.26-.77,13.44-1.55,14.22-2.28.96-.9,1.86-6.3,2.65-14.53,1.02,2.02,2.04,4.1,3.04,6.2-.23,1.82-.47,3.64-.72,5.46-.72,5.25,4.91,11.78,8.91,13.31,1.38,3.6,2.38,6.64,2.81,8.69-4.61,1.12-15.8,2.29-31.02,3.36M242.43,220.13l-.08-.14c.13-.23.33-.43.5-.65-.28-.62-.57-1.27-.85-1.92,32.4-.84,63.19-2.73,84.77-5.06-.46,1.06-1.21,2.65-2.09,4.39-22.31,1.48-52.06,2.74-82.26,3.39"/>
    <path class="st40" d="M357.16,204.4c-3.99-1.52-9.63-8.05-8.91-13.31.25-1.82.49-3.64.72-5.46,3.14,6.59,6.1,13.32,8.19,18.76"/>
    <path class="st40" d="M335.23,211.36c.09-.21.14-.4.13-.57-.07-1.66-2.65-7.22-4.87-11.73,5.62-.48,9.11-.8,9.98-.8,5.62,0,13.87,9.62,10.45,10.45-3.75.91-9.09,1.8-15.68,2.66M301.53,205.72c-2.52,0-5.43.07-8.67.24-45.63,2.28-37.08,6.66-17.43,6.66,5.41,0,11.66-.33,17.86-1.13,24.5-3.17,23.04-5.77,8.24-5.77M242,217.42c-.15-.34-.29-.68-.43-1.02.7-1.5,1.85-2.74,3.3-3.78-.43-1.12-.85-2.24-1.18-3.19,9.62-1.51,12.18-3.07,8.74-3.07-1.18,0-3.65.12-7.23.28,2.37-1.4,6.34-2.15,11.01-2.15,1.21,0,2.46.05,3.74.15-.21-.38-.43-.75-.65-1.12,26.38-.95,48.97-2.63,63.6-3.83-.29.6-.57,1.21-.83,1.83l.02.73c1.23.34,2.39.79,3.41,1.4l.06,2.72c.28.14.58.27.83.43l.05,1.87.05.02c.59.56.88,1.66.74,2.36h0c0,.14-.16.6-.46,1.29-21.58,2.33-52.38,4.22-84.77,5.06"/>
    <path class="st9" d="M224.4,198.72c-1.93-.02-3.85-.05-5.76-.08-2.4-.65-5.33-1.85-8.38-3.46l-.02.02c-.06.03-.13.05-.22.05-2.18,0-13.83-8.64-14.73-10.7-1.21-2.8.56-7.33,3.37-11.62-4.03-4.53-9.67-11.46-11.05-12.53-4.23-.34-12.46-2.01-9.73-7.38-1.52-1.12-1.47-3.75-.54-4.92-.88-3.04,1.72-4.63,1.72-4.63,0,0-3.05-3.31-.66-7.04.55-.86,1.59-1.19,2.86-1.19,1.01,0,2.17.21,3.35.53.18-.59.35-1.13.51-1.63.02-.06.03-.11.05-.17v-.03c.39-1.12.72-1.93.95-2.15.37-.37.89-.52,1.45-.52,1.55,0,3.43,1.11,3.43,1.85,0,.36-.49,2.22-1.21,4.57,1.41.64,2.38,1.16,2.38,1.16h.22c1.18,0,6.73.29,6.73,5.81,0,4.14-.95,6.63-1.05,9.17-.03.88,5.47,6.26,8.92,9.82,1.57-1.19,3-1.92,4.04-1.92.17,0,.33.02.48.06,1.89.51,10.6,9.02,10.6,10.14,0,.17-.04.39-.07.6,1.29.97,2.41,1.6,3.21,1.6,4.45,0,39.53-20.45,42.27-21.3,1.9-.59,6.84-1.28,10.43-1.28,1.58,0,2.89.13,3.57.47.12.12.13.37.09.69,2.98-.25,5.37-.54,6.45-1.62,1.73-1.73,2.6-6.35,3-9.49-.13-.24-.25-.46-.36-.69-6.86-1.96-16.87-11.54-18.81-24.66-.1.01-.2.02-.31.02h-.11c.01,4.9.7,10.03,1.8,15.19-2.43-5.09-3.91-10.64-4.33-16.12-3.65-2.18-7.89-7.6-4.31-11.34.95-.99,1.89-1.36,2.8-1.36h.21c-3.44-14.18,5.56-41.62,32.83-41.62,2.98,0,6.17.33,9.6,1.04,3.55.73,6.7,1.87,9.48,3.32,2.09-2.15,5.14-3.56,8.39-3.56,2.11,0,4.3.59,6.39,1.96.07.03.12.06.2.09,3.96,1.98,5.85,5.28,6.46,8.39,2.59,6.17.93,11.26-2.28,14.35.95.38,1.91.79,2.82,1.23.33.05.68.14,1.06.31.51.23.9.47,1.21.71.01,1.22.02,2.47.03,3.74-2.47-.84-5.77-2.89-7.13-3.77.02.1.05.19.07.29,1.61,1.63,5.55,5.84,7.08,9.31,0,1.15,0,2.31-.01,3.48-1.18-.32-3.84-4.25-6.32-8.32,1.2,10.51-1.29,20.79-5.69,25.96-.09,3.17-3.41,5.25-6.66,6.06-.76,2.78-1.9,5.28-3.43,7.35-1.21,2.33-2.69,4.39-4.44,6.02,1.55-2.87,3.31-7.71,4.32-13.01-.05,0-.09-.02-.14-.02-2.64,4.95-6.89,8.79-11.64,11.44.13,3.87.65,13.7,2.58,15.63.46.46,1.77.97,3.55,1.53.04-.1.09-.17.14-.27.16-.36.65-.52,1.38-.52,3.7,0,13.46,4.06,16.32,5.88,1.44.91,4.06,4.89,7.11,10.34-1.14,11.18-2.64,19.16-4.52,21.04-1.04,1.04-4.04,2-8.57,2.86-.34-.67-.55-1.06-.55-1.06-.36.44-.71.89-1.04,1.34-14.12,2.42-40.74,4-69.7,4.5-1.2-2.38-2.04-4.73-1.99-7.19-.06-.44-.1-.89-.1-1.34.01-1.62.32-3.12.75-4.56-5.64,2.72-23.39,11.15-30.8,13.19"/>
    <path class="st47" d="M243.7,209.44c-.14-.39-.26-.75-.36-1.07.4-.65,1.03-1.22,1.87-1.72,3.58-.16,6.05-.28,7.23-.28,3.44,0,.88,1.56-8.74,3.06"/>
    <path class="st47" d="M275.43,212.62c-19.65,0-28.2-4.38,17.43-6.67,3.23-.16,6.15-.24,8.67-.24,14.79,0,16.26,2.61-8.24,5.77-6.19.8-12.44,1.13-17.86,1.13"/>
    <path class="st5" d="M262.7,334.18s11.23,79.19,11.92,85.8-12.05,22.67-9.89,24.42c4.64,3.76,20.94-6.17,25.24-11.48s-5.73-97.96-5.73-97.96"/>
    <path class="st5" d="M326.46,172.76c6.98-6.29-18.92-10.07-21.33-12.48-2.42-2.41-2.62-17.21-2.62-17.21l-18.42,2.72s-.6,9.86-3.32,12.58-13.55.47-21.68,4.96c7.58,27.65,45.02,29.56,67.37,9.43"/>
    <path class="st5" d="M297.7,341.38l23.99,86.85s13.65,30.21,22.1,26.83c7.61-3.04-6.34-29.89-7.24-33.82-.91-3.93-20.59-82.29-20.59-82.29"/>
    <path class="st19" d="M322.03,338.74s11.95,69.66,12.7,70.56c2.85,3.36,3.39,6.51,2.34,8.04-1.05,1.53,3.81,2.59,1.05,6.62-2.23,3.24-13.51,7.33-16.51,5.28s-1.7-5.39-1.45-6.95-3.08-.2-3.39-5.82c-.15-2.71-26.63-71.01-26.63-71.01,0,0,28.54-11.49,31.88-6.74"/>
    <path class="st50" d="M323.81,432.6c2.58,3.75,9.28,12.42,15.17,10.76s.11-14.64-.35-16.81c2,.99,14.99,26.71,6.07,29.56-7.48,2.39-19.75-16.17-20.89-23.51"/>
    <path class="st11" d="M328.37,439.41c6.46,5.81,15.94,8.64,13.51-5.54,5.11,10.15,5.14,19.14,3.17,20.25-2.45,1.38-10.27-3.94-16.68-14.71"/>
    <path class="st53" d="M343.8,449.99c2.16-.37,2.13,1.69.82,2.11-1.3.42-1.96-1.92-.82-2.11"/>
    <path class="st29" d="M296.89,355.08c-1.94,3.32,21,59.79,22.1,60.44,1.11.64-1.2,1.68-.64,3.82s3.51,2.09,3.87,3.46c.36,1.36-2.32,1.02-1.61,3.75.71,2.73,15.19-.59,15.93-5.32.41-2.68-8.52.67-6.87-2.15s7.79-6.16,2.82-8.19c-2.32-.95-9.89-47.33-13.73-55.05-2.09-1.22-20.23-3.59-21.88-.76"/>
    <path class="st2" d="M299.78,362.05c-.36,1.8,18.84,50.4,19.77,51.71s4.47.65,5.04,1.17c.57.52-5.42,2.19-4.78,4.17.93,2.87,10.32-1.25,11.34-3.35,1.01-2.1-6.35-1.82-6.77-2.98-.42-1.15,2.74-1.15,3.19-3.77s-11.65-40.98-13.43-43.13c-1.79-2.15-14.08-5.2-14.36-3.83"/>
    <path class="st2" d="M321.57,425.51c-1.17,1.05,3.08,1.69,8.19-.9,5.1-2.59-5.35-1.63-8.19.9"/>
    <path class="st46" d="M283.3,155.7s-1.3,4.08-2.88,4.58c-1.58.5-7.05-.32-7.85,1-.81,1.32.99,7.4,6.17,9.13,1.52.71,2.42,6.65,2.42,6.65,0,0,2.69-4.62,4.8-5.03s13.61,2.54,19.17-6.69c-2.96,1.04-14.03-.39-15.65-1.62-1.75-1.34-5.55-7.39-6.17-8.01"/>
    <path class="st4" d="M302.55,144.85c-1.27,5.63.94,15.51,2.42,16.32-3.2-.49-6.59-9.52-7.81-8.87-1.21.65-3.57,4.08-6.93,4.11-3.37.03-8.34-11.36-8.34-11.36"/>
    <path class="st0" d="M322.13,198.02s12.9,15.23,10.02,20.94"/>
    <path class="st19" d="M256.38,336.99s16.96,70.46,16.5,71.54c-1.76,4.03-1.39,7.21.05,8.38s-2.92,3.57.88,6.65c3.05,2.47,16.68,3.53,18.97.71s.1-5.65-.59-7.08c-.68-1.42,1.87-3.84,1.59-6.54s-2.65-74.48-2.65-74.48c0,0-32.9-4.68-34.75.83"/>
    <path class="st12" d="M308.8,161.54c.99-2.2,14.28,3.19,17.71,5.36,5.22,3.32,26.08,47.06,26.37,55.08.34,9.05-21.79,31.06-22.82,27.9-1.04-3.15-10.81-18.77-13.41-20.08s11.52-8.78,11.4-11.7c-.12-2.93-8.07-18.01-8.07-18.01-29.18,35.55,22,123.48,16.87,133.04-24.76,24.76-87.71,17.21-91.51,10.1-1.8-3.38,5.96-102.47,7.38-110.95,1.43-8.48,1.24-17.98.06-20.08-3.91-6.92-8.45-12.68-3.12-20.22,0,0-29.59,14.5-35.03,14.5s-18.57-6.56-25.79-14.47c-3.6-3.94,11.22-25.6,15.37-21.9,4.15,3.69,10.95,11.32,13.74,11.32,4.45,0,39.53-20.46,42.27-21.31,2.74-.85,11.79-1.91,14-.81.86.86-3.53,7.11,3.91,11.44,2.22.3,1.82,9.16,1.82,9.16,0,0,3.83-6.84,6.15-7.35,2.31-.51,15.35,5.37,22.7-11.02"/>
    <path class="st25" d="M247.11,342c23.98,13.4,69.21,3.01,78.84-5.07,3.27-2.75-22.96-94.78-22.96-120.44-8.08,1.37-18.74-1.05-20.25-2.55,7.58-1.61,12.6-1.2,20.25-5.86,3.35-2.04,9.97-20.43,12.29-24.74,4.19-7.79,11.05-14.76,10.16-16.43-.89-1.67-13.3-5.69-15.16-5.28-1.85.41-5.12,8.72-11.2,11.29-6.08,2.56-9.82.27-12.39,1.07-4.23,1.31-5.67,8.86-7.26,7.83-1.59-1.04.35-7.82-1.76-9.93-3.46-1.02-5.87-6.5-4.53-12.37-2.62-.55-10.8.46-10.8.46-2.25,3.37-5.68,15.92-7.72,20.43-1.79,3.95-7.44,9.46-7.5,17.01-.05,6.52,7.13,11.93,7.97,15.41,1.62,6.73-8.59,87.22-8,129.2"/>
    <path class="st25" d="M221.17,182.06c8.44-2.97,38.09-22.1,41.19-22.1,1.68,3.09-4.68,15.97-7.35,18.89-8.13,8.93-31.91,18.89-34.33,18.89s-1.63-7.89-2.43-12.2c-.66,3.78-4.29,13.53-9.08,13.53-.12-2.33,3.27-8.78,6.3-17.56.37.37,2.06,1.82,5.69.55"/>
    <path class="st33" d="M261.07,160.88c-1.48,1.01-.53,14.73-2.66,17.98s-8.59,14.89-7.14,19.15c1.95,5.72,7.22,5.38,18.03,6.24s15.36,3.76,23.57,1.7c8.21-2.07,14.78-17.98,20.21-26.69,5.42-8.71,8.34-12.01,7.71-13.68-.63-1.66-7.62-3.75-9.8-3.07-2.17.67-4.73,12.48-23.31,12.34-3.18.51-9.75,8.94-9.75,8.94,0,0,1.4-8.37-1.67-11.11-3.08-2.74-5.65-9-3.93-12.81-4.16-1.01-9.76,0-11.24,1.01"/>
    <path class="st5" d="M266.86,104.35c-1.53,3.25-1.82,7.07-2.28,10.14-2.72,18.44,11.77,32.62,19.99,33.97,12.81,2.11,33.59-8.78,32.37-28.19-1.71-27.25-35.5-46.84-50.09-15.93"/>
    <path class="st46" d="M267.24,111.64c-5.79,19.88,9.95,34.84,16.8,35.87,9.23,1.39,25.48-7.06,24.38-24.42-.87-13.82-9.04-26.31-18.4-28.69-5.02-.39-17.13,5.27-22.78,17.23"/>
    <path class="st35" d="M282.21,102.34c-.66-.97-4.54-3.41-6.59-3.47-2.04-.07-5.41,1.78-5.41,1.78,1.63-.66,3.71-.56,4.8-.39s6.17,4.54,6.88,4.81c.7.27,1.02-1.69.32-2.73"/>
    <path class="st35" d="M298.21,105.62c.83-.81,4.21-.51,6.22-.15,2.02.37,4.94,2.88,4.94,2.88-1.47-.99-3.52-1.33-4.62-1.39-1.1-.07-6.52,1.09-7.26,1.2-.75.12-.17-1.67.73-2.54"/>
    <path class="st5" d="M266.44,115.47s-4.55-8.94-9.09-4.2c-5.2,5.43,6.09,14.43,8.14,11.83-.56-2.05.95-7.63.95-7.63"/>
    <path class="st46" d="M259.67,111.46c-2.32-.2-3.43,3.71-2.46,4.71.98,1,4.07-4.58,2.46-4.71"/>
    <path class="st38" d="M270.12,104.05c8.13-1.49,11.74,7.75,11.26,12.7-6.9-4.39-14.21-8.33-14.21-8.33l2.96-4.36h-.01Z"/>
    <path class="st13" d="M280.89,115.35c-1-1.4-1.51-5.48-7.21-6.94-5.68-1.46-9.09,2.32-8.64,4.15,1.22,4.86,7.62,7.81,14.38,5.82,2.73.24,2.46-1.63,1.47-3.03"/>
    <path class="st8" d="M280.16,117.19c-1.27-7.49-9.42-9.35-13-4.52.36,5.03,8.05,7.35,13,4.52"/>
    <path class="st26" d="M274.81,108.77c-5.71-1.55-7.62,7.01-2.04,8.69,6.63,2,10.05-6.51,2.04-8.69"/>
    <path class="st7" d="M275.04,109.63c-3.95-1.07-5.27,4.84-1.42,6,4.58,1.38,6.95-4.5,1.42-6"/>
    <path class="st10" d="M272.26,114.06c.05-1.18-3.74-.98-3.47.58.27,1.56,3.43.39,3.47-.58"/>
    <path class="st10" d="M275.8,114.29c1.21-1.06,1.91.4,1.13,1.09-.78.7-1.78-.52-1.13-1.09"/>
    <path class="st35" d="M281.03,115.9c-1.93-6.19-10.37-9.1-14.96-4.06.16,3.11,2.35,5.58,4.82,6.73-3.3-.54-6.53-4.49-6.42-7.38,3.55-6.33,15.31-5.55,16.56,4.72"/>
    <path class="st21" d="M302.78,69.33c37.78,7.82,30.79,60.93,15.31,60.93,2.47-16.96-7.42-34.7-28.01-38.34-19.35-3.42-28.14,13.92-25.83,24.92-11.32-8.68-2.98-56.1,38.53-47.51"/>
    <path class="st5" d="M314.37,124.64s8-5.82,9.95.52c2.23,7.27-11.8,9.99-12.48,6.72,1.4-1.56,2.53-7.24,2.53-7.24"/>
    <path class="st38" d="M295.43,118.92c3.85-10.27,13.85-9.5,15.61-6.05,4.48,8.78-15.61,6.05-15.61,6.05"/>
    <path class="st21" d="M289.11,88.29c-27.18,2.16-32.91,29.92-23.12,50.43-4.29-20.25-2.5-40.19,23.11-46.39,9.94-1.89,0-4.05,0-4.05"/>
    <path class="st21" d="M309.46,78.34c.76-8.11,13.79-14.52,21.85-3.12,9.83,13.9-2.16,24.06-10.01,21.48-7.84-2.59-11.85-18.36-11.85-18.36"/>
    <path class="st21" d="M324.84,91.51s15.22,4.74,14.68,7.9c-.55,3.16-10.76-3.74-10.76-3.74,0,0,9.09,8.72,8.36,12.96-.72,4.24-12.28-17.13-12.28-17.13"/>
    <path class="st13" d="M295.87,118.8c1.42-.95,3.28-4.58,9.11-3.88,5.82.69,7.72,5.46,6.67,7.01-2.8,4.1-9.79,4.56-15.44.24-2.64-.77-1.74-2.42-.34-3.37"/>
    <path class="st8" d="M295.93,120.78c3.74-6.55,12.01-5.34,13.7.47-2.04,4.58-9.48,3.96-13.7-.47"/>
    <path class="st26" d="M303.61,114.62c-5.87-.67-6.53,8.1-.78,8.91,6.84.97,9.01-7.97.78-8.91"/>
    <path class="st7" d="M303.96,115.44c-4.05-.46-4.52,5.59-.54,6.15,4.73.67,6.22-5.5.54-6.15"/>
    <path class="st10" d="M301.85,120.24c-.12-1.17-3.84-.4-3.35,1.1.5,1.5,3.46-.14,3.35-1.1"/>
    <path class="st10" d="M305.38,119.93c1.04-1.23,1.94.11,1.27.91-.67.81-1.84-.24-1.27-.91"/>
    <path class="st35" d="M295.56,119.26c3.92-5.1,12.81-4.77,15.39,1.61-1.21,2.86-4.1,4.37-6.8,4.55,3.28.69,7.65-1.84,8.53-4.58-1.16-7.21-12.43-10.74-17.11-1.58"/>
    <path class="st5" d="M285.45,126.64c-.72-.07-3.35.54-3.15,1.07.32.84,6.32,1.36,6.79.96.46-.39-2.61-1.92-3.65-2.03"/>
    <path class="st5" d="M274.18,130.57c.42-1.47,3.21-.7,2.68.8-.65,1.86-2.99.28-2.68-.8"/>
    <path class="st5" d="M298.13,134.85c.28-1.38-2.46-2.15-2.68-.42-.24,1.86,2.41,1.75,2.68.42"/>
    <path class="st35" d="M277.66,132.49l16.5,2.88c-4.13,6.83-15.74,1.63-16.5-2.88"/>
    <path class="st31" d="M280.49,133.44c1.5,2.87,9.01,3.68,9.59,1.79-1.92-.48-9.59-1.79-9.59-1.79"/>
    <path class="st41" d="M285.04,133.24c-2.09-2.77-6.51-.76-9.22-2.31.99,2.71,14.85,6.23,20.83,3.56-1.8.22-4.5-.36-6.32-1.02-1.78-.65-3.88-1.33-5.29-.23"/>
    <path class="st41" d="M277.24,131.94s1.56,7.59,7.56,8.43c5.72.8,9.88-5.39,9.88-5.39l-1.37.35c-5.28,4.01-13.56,1.98-14.92-3.2-.43.04-1.16-.18-1.16-.18"/>
    <path class="st6" d="M287.85,137.67c-2.65.71-2.38,1.6,0,1.48,2.37-.12,3.17-2.32,0-1.48"/>
    <path class="st51" d="M287.13,88.5c-15.82-3.56-29.81,17.91-23.83,39.66,0-16.43,5.82-32.79,23.83-39.66"/>
    <path class="st51" d="M288.39,84.72c-7.39-3.82-22.04,3.23-25.93,9.69-2.02-2.2,3.76-12.62,12.22-13.94-3.5-1.32-5.91-.29-5.91-.29,1.75-3.52,14.65-11.45,26.2-2.5-2.82,1.76-6.58,7.05-6.58,7.05"/>
    <path class="st51" d="M300.21,73.28c-5.38-5.87-12.74-5.12-15.42-2.18,7.12.73,12.46,4.38,12.46,4.38l2.96-2.2h0Z"/>
    <path class="st51" d="M294.35,85.25c11.48-1.66,24.09,9.36,26.51,26.9,3.1-6.48-2.02-26.08-3.75-27.8,4.74,3.91,7.97,14.51,8.38,16.83,2.22-6.32-4.93-29.8-21.53-27.36-1.52.59-2.86,2.4-2.86,2.4,5.23,0,12.37,5.49,13.49,10.99-4.01-5.94-11.31-9.72-15.72-7.81-1.98.87-4.52,5.85-4.52,5.85"/>
    <path class="st1" d="M291.21,77.09c-.84-3.42-7.98-5.83-12.9-.99,5.14,0,13.85,4.81,12.9.99"/>
    <path class="st1" d="M310,85.88c-2.02-5.06-5.44-7.71-10.58-5.61-5.14,2.09,3.29,1.8,10.58,5.61"/>
    <path class="st1" d="M296.32,72.24c1.66-1.72-2.72-3.37-4.7-2.35-1.99,1.03,3.42,3.67,4.7,2.35"/>
    <path class="st1" d="M304.88,74.27c1.6-1.55,6.55.25,5.38,1.54-1.18,1.28-7.25.27-5.38-1.54"/>
    <path class="st51" d="M319.19,70.09c2.65,2.3,3.49,5.69,3.35,8.03-.13,2.34,5.74,9.31,6.62-1.53,3.37,4.6.56,10.13.56,10.13,4.22,3.67,7.83-10.43-2.48-15.59-3.93-1.96.47,1.63-1.57,5.47-.56-4.92-4.33-8.09-6.48-6.51"/>
    <path class="st1" d="M329.56,76.93c-.8-4.5,2.63-2.09,3.38,2.49.76,4.57-2.1,4.73-3.38-2.49"/>
    <path class="st1" d="M326.1,75.4c.95-2.97,2.54-.64,2.07,2.3-.48,2.93-3.63,2.54-2.07-2.3"/>
    <path class="st51" d="M335.3,95.41c-2.31-1.02-4.06.2-.99,2.19,3.06,2,4.72-.54.99-2.19"/>
    <path class="st29" d="M261.68,352.2c-2.42,2.99,12.67,55.35,13.67,56.16s-3.54,1.71-3.31,3.91,5.26,2.38,5.41,3.78-3.92,1.22-3.63,4.02,16.82,2.89,17.77.37c.95-2.53-8.27-4.4-6.21-6.94s4.99-.49,6.34-3.86c.99-2.49-4.81-45.27-7.44-53.48-1.88-1.53-20.53-6.49-22.59-3.95"/>
    <path class="st19" d="M316.4,229.04c-2.09,4.13,6.39,23.21,13.67,21.68,2.29-.48,12.49-8.76,11.98-10.28-.5-1.52-10.55-17.97-15.9-19.65-1.07-.33-8.87,6.51-9.75,8.25"/>
    <path class="st14" d="M316.77,230.08c1.27-1.56,15.43,17.56,11.5,18.34-4.65.92-13.38-16.03-11.5-18.34"/>
    <path class="st19" d="M204.22,169.08c-4.46-1.21-19.19,15.94-16.23,22.77.94,2.15,13.56,11.45,14.95,10.65s11.88-18.27,11.88-23.28c0-1.11-8.71-9.63-10.6-10.14"/>
    <path class="st14" d="M203.19,171.01c1.79.93-12.13,22.1-13.69,18.41-1.84-4.37,11.04-19.79,13.69-18.41"/>
    <path class="st5" d="M195.5,184.17c-1.16.3-13.09-14.84-15.18-16.47-4.23-.34-12.46-2.01-9.73-7.38-1.52-1.12-1.46-3.75-.54-4.92-.88-3.04,1.73-4.63,1.73-4.63,0,0-3.05-3.31-.66-7.04s13.78,2.42,13.78,2.42c0,0,6.95-.37,6.95,5.81,0,4.14-.95,6.63-1.05,9.17-.05,1.28,11.63,12.07,11.63,12.96-1.07,3.77-5.76,9.79-6.92,10.09"/>
    <path class="st4" d="M179.42,149.18c1.77,1.85,4.67,1.74,4.67,1.74-1.84,3.36-1.53,8.43-.37,10.16-1.88-1-6.47.44-8.39,1.26,2.04-.99,1.85-1.72.95-2.91,1.55.24,2.35-1.29.82-2.69,1.84-.3,1.05-2.99,1.05-2.99"/>
    <path class="st25" d="M325.45,166.91c-3.51,0-6.48,19.07-3.86,23.9,2.62,4.83,5.64,22.25,7.42,23.15s11.97-.64,13.8,3.29c-5.87-.17-11.64.64-12.8,2.95-1.17,2.32,7.66,6.36,10.05,13.59,3.05-1.01,9.36-12.25,7.72-17.22-1.64-4.97-17.13-49.67-22.34-49.66"/>
    <path class="st29" d="M321.14,230.39c-.71-2.15,5.28-7.14,7.09-6.23s7.09,9.19,7.94,11.77-3.8,7.77-6.18,7.76c-2.39,0-8.37-11.87-8.84-13.3"/>
    <path class="st29" d="M205.28,174.16c1.89-1.89,7.1,6.04,7.1,8.3s-4.23,11.32-6.49,12.23c-2.27.91-9.81-4.83-9.81-7.1s7.62-11.85,9.21-13.44"/>
    <path class="st46" d="M170.54,152.62c.95-1.19,7.18,2.84,6.31,5.36s-8.66-2.41-6.31-5.36"/>
    <path class="st48" d="M173.45,157.36c.52.54,3.07,1.55,3.72.58.65-.96-2.39-2.9-2.84-2.81-.46.09-1.05,2.04-.87,2.22"/>
    <path class="st46" d="M170.39,162.01c.14-1.69,5.54.39,5.18,1.34-.65,1.71-5.42,1.62-5.18-1.34"/>
    <path class="st48" d="M173.88,164.38c.5.31,2.62.61,2.94-.24.32-.86-2.35-1.77-2.68-1.61-.33.16-.43,1.75-.25,1.85"/>
    <path class="st46" d="M169.66,157.91c.39-2.53,6.64,1.28,6.64,3.11s-7.16.28-6.64-3.11"/>
    <path class="st48" d="M173.4,161.09c.6.43,2.81,1.05,3.28-.02s-2.44-2.1-2.87-1.93c-.43.17-.62,1.8-.41,1.94"/>
    <path class="st46" d="M186.16,166.58c-.14,1.93,10.32,13.76,11.08,13.81s3.37-5.18,3.46-6.51c.1-1.33-9.54-9.82-10.48-10.48-.94-.66-4.02,2.52-4.06,3.19"/>
    <path class="st50" d="M286.41,438.92l.28,9.08s1.25.55,1.79-.11c.28-.35.68-7.05,2.04-11.56,1.19-3.97,1.64-8.63.68-9.07-3.67,2.24-9.89,8.54-13.59,13.07-4.58,5.6-13.13,4.9-11.63,0,.47-1.53,2.26-4.75,2.26-4.75-3.63,3.15-10.05,13.46-7.41,15.83,3.68,3.31,10.64.5,14.52-1.93,3.88-2.44,8.86-10.24,11.07-10.55"/>
    <path class="st29" d="M178.84,139.07c1.38-1.38,4.89.32,4.89,1.33s-4.02,14.43-5.84,16.25c-1.43,1.43-3.57-.87-3.57-1.65s3.44-14.85,4.53-15.93"/>
    <path class="st5" d="M171.54,144.66c1.44-1.44,2.59.62,4.1,2.77,1.58,2.24,3.47,4.64,1.9,5.89-2.89,2.31-9.38-5.29-6-8.67"/>
    <path class="st46" d="M171.34,145.82c1.44-.91,6.12,5.44,4.7,6.66-1.3,1.12-7.65-4.81-4.7-6.66"/>
    <path class="st5" d="M184.1,146.21c-2.98,0-4.8-1.06-5.74-.13-.67.67.05,4.33,5.73,4.84,2.09-.57,0-4.71,0-4.71"/>
    <path class="st46" d="M179.43,146.06c-.8.35-1,1.77,2.53,3.12,1.65.63,3.73.75,3.73.75,0,0-2.92,5.9-.7,9.49,2.16,3.5,5.24-2.91,5.24-7.99,0-1.62-.81-3.39-1.93-4.15-1.9-1.28-6.07-.94-8.86-1.22"/>
    <path class="st10" d="M177.88,141.26c.97-2.75,4.02-1.01,3.24,1.5-.79,2.5-5.01,3.54-3.24-1.5"/>
    <path class="st18" d="M277.87,221.55c-13.09-11.47-38.09-12.01-41.84-5.87.99,3.05,3.82,10.05,3.82,10.05l37.87-.92,37.17-10.68-.2-8.3c-7.2-5.26-28.12,2.82-36.82,15.73"/>
    <path class="st29" d="M277.73,220.63c-9.96-5.96-38.35-7.96-43.47,3.08,1.63,3.96,3.72,8.05,3.72,8.05l40.98-6.65,39.36-7.69-.15-6.45c-9.67-5.82-29.89,1.12-40.45,9.66"/>
    <path class="st20" d="M286.28,220.17c6.6-6.92,25.57-10.64,32.8-6.05l.08,3.17-32.88,2.88h0Z"/>
    <path class="st20" d="M235.05,227.3c4.18-7.34,28.15-10.42,37.32-4.18l-35.64,7.35-1.69-3.17h.01Z"/>
    <path class="st39" d="M234.35,233.44s15.65,9.22,17.56,9.64c1.91.41,28.34-7.24,28.34-7.24,0,0,30.09-2.22,31.31-2.25,1.23-.03,8.39-14.29,8.37-15.2-.02-.91-34.62,1.56-36.01,3.23s-7.99,3.56-10.82,1.9c-2.81-1.66-38.77,8.72-38.74,9.94"/>
    <path class="st50" d="M272.21,221.83c-1.12-1.06-37.5,7.4-38.6,8.55-1.09,1.15.58,2.95,1.22,3.56.63.6,37.64-8.95,37.64-8.95,2.39,3.09,12.36.39,12.31-1.86,0,0,33.52-4.07,34.53-4.09,1.03-.02.78-2.17-.11-3.02-.9-.85-34.82,2.66-35.3,4.06-1.15,3.31-8.22,5.05-11.67,1.75"/>
    <path class="st5" d="M317.96,231.05c-.98,0-7.46,1.87-8.74,1.47-.7-.22-.41-2.82,1.3-5.68,1.11-1.87,1.26-3.74-.21-3.57-6.74.81-7.23,10-10.44,10.37-4.18.48-14.05-5.25-16.59-1.99-2.8-.67-6.96.11-5.38,1.15-2.78-1.25-6.5.82-2.46,2.36-2.49-.47-2.03,1.65.44,3.12,5.45,3.24,19.94,7.39,27.42,6.27,5.39-.8,19.95-2.12,21.2-3.37s-5.54-10.14-6.52-10.14"/>
    <path class="st46" d="M317.86,231.86c1.15,0,4.64,3.99,4.1,5.14-.55,1.16-12.21,3.26-12.9,3.26-3.35,0,.47-6.08,2.39-6.9,1.04-.45,4.71-1.5,6.41-1.5"/>
    <path class="st46" d="M284.82,231.36c1.28-.34,11.49,2.41,8.91,4.07-.99.64-12.05-3.23-8.91-4.07"/>
    <path class="st46" d="M275.06,233.67c.64-.33,4.08,1.07,7.45,2.38,3.51,1.37,6.93,2.7,6.08,3.67-.91,1.04-16.07-4.75-13.54-6.05"/>
    <path class="st46" d="M278.52,231.92c.65-.34,3.72,1.18,7.11,2.51,3.48,1.37,7.27,2.57,6.43,3.54-.91,1.04-16.07-4.75-13.54-6.05"/>
    <path class="st46" d="M274.57,236.59c1-1.06,13.16,4.39,12.1,5.3-1.03.89-13.33-3.99-12.1-5.3"/>
    <path class="st46" d="M309.58,224.35c-1.3-1.71-6.95,4.28-5.53,6.15.84,1.11,2.44-1.5,3.9-3.42,1-1.32,2.39-1.73,1.62-2.73"/>
    <path class="st11" d="M237.41,230.15c.98-2.51,28.65-7.62,27.93-5.66-.57,1.56-28.98,8.35-27.93,5.66"/>
    <path class="st11" d="M300.81,217.26c-11.84,1.36-16.9,3.93-.29,2.42,16.61-1.51,20.66-4.76.29-2.42"/>
    <path class="st33" d="M258.82,246.95c-3.17,4.18-10.15,90.12-5.02,95.26,5.13,5.13,39.29,6.76,55.52-.51,6.53-2.92-9.98-81.69-14.82-86.52-4.83-4.83-28.18-8.9-35.69-8.23"/>
    <path class="st21" d="M288.16,90.99c15.54,7.01,26.73,23.84,22.75,42.7,4.06-3.43,2.95-17.11,2.95-17.11,3.46,9.42-.66,23.73-3.86,29.66,14.78-13.75,10.77-56.99-21.84-55.24"/>
    <path class="st51" d="M292.96,89.56c11.15,8.07,19.71,25.26,19.71,38.03,1.62-7.58-.56-16.4-2.64-22.91,8.28,12.25,7.47,29.31,2.64,37.6,13.39-12.82,5.02-52.71-19.71-52.71"/>
    <path class="st1" d="M303.71,98c3.83.51,7.86,7.26,7.11,13.43-.74,6.16-5.44-9.91-7.11-13.43"/>
    <path class="st46" d="M321.65,123.55c1.96-.34,2.69,3.91.76,5.33s-2.52-5.03-.76-5.33"/>
    <path class="st19" d="M285.7,175.07c2.4-1.05,4.5,1.87,1.21,3.73-3.29,1.85-4.43-2.32-1.21-3.73"/>
    <path class="st29" d="M284.64,175.76c1.06-1.05,3.12.34,1.64,1.87-1.48,1.53-3.41-.1-1.64-1.87"/>
    <path class="st2" d="M264.19,358.28c-1.92,5.26,11.26,46.98,11.98,48.42s4.32,1.32,4.8,1.92c.48.6-6.95-.54-6.24,2.4.71,2.94,11.28,1.32,12.6-.6s-6-2.76-6.24-3.96c-.24-1.2,2.88-.72,3.72-3.24s-6.1-36.91-7.54-39.31-12.6-6.95-13.08-5.63"/>
    <path class="st2" d="M275.63,418.78c-1.4.71,2.54,2.43,8.15,1.24,5.6-1.19-4.75-2.97-8.15-1.24"/>
    <path class="st1" d="M278.53,91.52c-10.09,2.79-17.06,14.6-15.2,26.68.72-12.54,10.01-24.02,15.2-26.68"/>
    <path class="st42" d="M284.58,124.21c-.95.44-1.82,2.32,0,2.03,1.81-.29.94-2.47,0-2.03"/>
    <path class="st48" d="M174.15,152.06c.33.67,2.45,2.42,3.36,1.7s-1.38-3.49-1.85-3.54c-.46-.05-1.63,1.62-1.52,1.85"/>
    <path class="st48" d="M178.06,146.06c-.4.62,2.47,1.68,3.23,1.57.76-.12.73-1.47.61-1.54-.56-.14-3.43-.68-3.84-.03"/>
    <path class="st48" d="M280.54,234c-.74-.03-3.01-1.08-2.99-1.75.04-1.16,3.38-.05,3.62.35.24.4-.37,1.41-.63,1.4"/>
    <path class="st48" d="M276.1,235.2c-.74-.08-2.94-1.26-2.88-1.92.12-1.17,3.38.15,3.59.57.21.41-.46,1.38-.71,1.35"/>
    <path class="st48" d="M275.74,238.02c-.73-.14-2.83-1.5-2.71-2.15.2-1.14,3.35.43,3.53.86.18.43-.56,1.34-.82,1.29"/>
    <path class="st48" d="M285.98,233.01c-.74-.04-2.75-.69-2.71-1.36.06-1.17,3.13-.44,3.36-.04.23.41-.39,1.4-.65,1.39"/>
    <path class="st48" d="M310.42,226.81c.53-.62,1.55-2.69,1-3.17-.96-.85-2.73,2.13-2.59,2.62.14.49,1.4.76,1.59.55"/>
    <path class="st11" d="M266.4,437.98c-2.14,2.86-1.89,7.81,4.16,6.89,6.04-.92,11.74-10.43,17.49-14.45-3.81,3.87-10.93,14.49-12.7,17-1.78,2.52-12.26,4.72-13.93,2.52-1.24-1.63,2.09-9.87,4.99-11.96"/>
    <path class="st53" d="M262.13,447.6c2.17-.37,2.14,1.7.83,2.12-1.31.42-1.98-1.93-.83-2.12"/>
  </g>
  <rect class="st10" x="6.8" y="98.56" width="89.03" height="89.03" rx="15.02" ry="15.02"/>
  <rect class="st17" x="6.8" y="98.56" width="89.03" height="89.03" rx="15.02" ry="15.02"/>
  <path class="st28" d="M63,155.41c.29,1.04.23,1.9-.16,2.59-.4.68-.94,1.14-1.64,1.37s-1.46.21-2.29-.08c-.83-.29-1.54-.86-2.15-1.72-1.01.75-1.99,1.28-2.94,1.59-.95.3-2.04.47-3.26.51-1.83.07-3.47-.13-4.9-.62-1.44-.49-2.65-1.21-3.64-2.18-.99-.97-1.72-2.18-2.18-3.64-.47-1.46-.63-3.13-.49-5.04.07-.79.21-1.56.4-2.32.2-.75.42-1.49.67-2.21.29-.79.69-1.63,1.21-2.53s1.05-1.67,1.59-2.32c1.94-2.37,4.36-4.08,7.27-5.12.5-.18,1.19-.34,2.05-.48s1.73-.21,2.61-.19,1.72.13,2.53.35c.81.21,1.41.59,1.8,1.13.32.43.56.81.7,1.13s.23.67.24,1.02c.02.36.02.75,0,1.16s-.03.93-.03,1.53c0,1.01,0,1.99-.03,2.94-.02.95,0,1.91.03,2.88v1.27c0,.52.02,1.07.05,1.64.03.57.08,1.12.13,1.64.05.52.13.94.24,1.27l2.16,4.42h.03ZM51.58,152.98c.39-.25.84-.53,1.35-.83s.95-.65,1.35-1.05c-.32-1.9-.51-3.81-.57-5.71-.05-1.9-.05-3.82.03-5.76-1.62.29-3.07.99-4.36,2.1s-2.19,2.42-2.69,3.93c-.21.61-.4,1.24-.54,1.89s-.2,1.27-.16,1.89c.03.83.25,1.52.65,2.07.4.56.87.98,1.43,1.27.56.29,1.15.45,1.78.48.63.04,1.21-.05,1.75-.27h-.02Z"/>
</svg>