<?xml version="1.0" encoding="UTF-8"?>
<svg id="Layer_1" xmlns="http://www.w3.org/2000/svg" version="1.1" viewBox="0 0 52.87 49.43">
  <!-- Generator: Adobe Illustrator 30.1.0, SVG Export Plug-In . SVG Version: 2.1.1 Build 136)  -->
  <defs>
    <style>
      .st0 {
        fill: #231f20;
      }

      .st1 {
        fill: #fff;
      }

      .st2 {
        fill: none;
        stroke: #74cac1;
      }
    </style>
  </defs>
  <rect class="st1" x="10.51" y="8.78" width="31.86" height="31.86" rx="3.29" ry="3.29"/>
  <rect class="st2" x="10.51" y="8.78" width="31.86" height="31.86" rx="3.29" ry="3.29"/>
  <rect class="st1" x="12.71" y="10.99" width="27.45" height="27.45"/>
  <rect class="st2" x="12.71" y="10.99" width="27.45" height="27.45"/>
  <path class="st0" d="M29.15,28c.21.01.4.07.56.17.16.1.29.22.39.36.1.14.16.3.18.49.02.18-.02.37-.11.56-.04.08-.11.18-.22.29-.11.11-.21.18-.31.2-.75.22-1.53.36-2.32.42-.8.05-1.58.04-2.36-.04-.22-.02-.47-.05-.73-.07-.27-.02-.5-.1-.7-.23-.37-.24-.55-.57-.55-1.01v-7.53c-.13-.09-.24-.21-.32-.35-.08-.14-.13-.29-.15-.45-.02-.16,0-.31.06-.46.06-.15.16-.27.3-.38.24-.19.51-.32.81-.38.31-.06.61-.12.9-.17.61-.09,1.23-.14,1.84-.14s1.24,0,1.87-.02c.19,0,.41-.01.65-.04.25-.03.47,0,.65.06.22.08.4.21.53.39s.21.37.23.57c.02.2-.02.4-.12.58-.1.19-.27.34-.52.44-.29.12-.61.17-.95.16s-.66-.02-.96-.02c-.45,0-.9,0-1.34.02-.45.01-.9.05-1.34.11v2.46c.42.02.85.02,1.27,0,.42-.02.85-.05,1.27-.09.19-.01.38-.03.57-.05.19-.02.38-.02.58,0,.26.04.46.14.6.32s.23.37.26.59c.03.22,0,.43-.12.65-.11.21-.28.37-.51.46-.2.08-.47.14-.81.19-.34.04-.7.07-1.08.09s-.75.03-1.11.03-.67,0-.92-.02v2.17c.65.08,1.3.09,1.96.04.66-.06,1.31-.17,1.94-.34h.12Z"/>
</svg>