<?xml version="1.0" encoding="UTF-8"?>
<svg id="Layer_1" xmlns="http://www.w3.org/2000/svg" version="1.1" viewBox="0 0 662.09 662.09">
  <!-- Generator: Adobe Illustrator 30.0.0, SVG Export Plug-In . SVG Version: 2.1.1 Build 123)  -->
  <defs>
    <style>
      .st0 {
        fill: none;
        stroke: #430f68;
        stroke-miterlimit: 10;
        stroke-width: 8px;
      }

      .st1 {
        fill: #430f68;
      }
    </style>
  </defs>
  <g>
    <path class="st1" d="M662.07,330.99v.04C662.07,148.16,513.91,0,331.04,0S0,148.16,0,331.03s148.16,331.04,331.05,331.06c34.42,0,67.59-5.32,98.79-14.95,93.17-29.16,168.59-98.18,206.24-187.13,16.66-39.71,25.99-83.24,25.99-129.02h-.01.01ZM618.95,452.85c-35.94,84.73-106.82,149.12-194.64,176.62-30.2,9.33-61.56,14.11-93.23,14.11v-.11h-.04c-172.33.01-312.45-140.15-312.45-312.44S158.75,18.59,331.04,18.59s312.45,140.16,312.45,312.45c0,42.19-8.29,83.17-24.54,121.81Z"/>
    <path class="st0" d="M331.01,37.17v-.04l.02-.04h.01c-162.03,0-293.91,131.86-293.91,293.9s131.87,293.91,293.91,293.91c29.79,0,59.33-4.44,87.76-13.22,82.54-25.88,149.31-86.42,183.06-166.08,15.32-36.31,23.06-74.9,23.06-114.52,0-162.03-131.87-293.91-293.91-293.91h0Z"/>
  </g>
  <path class="st1" d="M442.69,318.41l-149.94-149.94c-12.84-12.83-33.84-12.83-46.68,0h0c-12.84,12.84-12.84,33.84,0,46.68l126.62,126.62-126.62,126.62c-12.84,12.84-12.84,33.84,0,46.68h0c12.84,12.84,33.84,12.84,46.68,0l149.94-149.94c6.42-6.42,9.63-14.89,9.63-23.35s-3.2-16.93-9.63-23.35v-.02Z"/>
</svg>