<?xml version="1.0" encoding="UTF-8"?>
<svg id="Layer_1" xmlns="http://www.w3.org/2000/svg" version="1.1" viewBox="0 0 384 318.64">
  <!-- Generator: Adobe Illustrator 30.0.0, SVG Export Plug-In . SVG Version: 2.1.1 Build 123)  -->
  <defs>
    <style>
      .st0 {
        fill: #430f68;
      }
    </style>
  </defs>
  <path class="st0" d="M338.97,8.03H43.93C23.2,8.03,6.4,24.84,6.4,45.57v225.75c0,20.73,16.81,37.54,37.54,37.54h295.04c20.73,0,37.54-16.81,37.54-37.54V45.57c0-20.73-16.81-37.54-37.54-37.54h-.01ZM342.54,276.62H40.36V40.26h302.18v236.36h0Z"/>
  <polygon class="st0" points="191.45 48.47 157.72 91.66 225.19 91.66 191.45 48.47"/>
  <polygon class="st0" points="50.96 158.44 94.16 192.17 94.16 124.71 50.96 158.44"/>
  <polygon class="st0" points="337.6 158.44 294.4 192.17 294.4 124.71 337.6 158.44"/>
  <polygon class="st0" points="192 269.91 158.27 226.71 225.73 226.71 192 269.91"/>
</svg>