<?xml version="1.0" encoding="UTF-8"?>
<svg id="Layer_1" data-name="Layer 1" xmlns="http://www.w3.org/2000/svg" viewBox="0 0 384 384">
  <defs>
    <style>
      .cls-1 {
        fill: #69359b;
      }
    </style>
  </defs>
  <path class="cls-1" d="M384,308.25v7.5c-3.07,12.05-11.01,19.42-23.59,20.28H22.85c-11.78-.93-19.63-8.48-22.85-19.53v-9c3.05-10.44,10.3-17.97,21.38-19.49l339.03-.04c7.99.33,16.13,4.36,19.97,11.53l3.62,8.75Z"/>
  <g>
    <path class="cls-1" d="M384,68.25v7.5c-3.07,12.05-11.01,19.42-23.59,20.28H22.85c-11.78-.93-19.63-8.48-22.85-19.53v-9c3.05-10.44,10.3-17.97,21.38-19.49l339.03-.04c7.99.33,16.13,4.36,19.97,11.53l3.62,8.75Z"/>
    <path class="cls-1" d="M384,188.25v7.5c-3.07,12.05-11.01,19.42-23.59,20.28H22.85c-11.78-.93-19.63-8.48-22.85-19.53v-9c3.05-10.44,10.3-17.97,21.38-19.49l339.03-.04c7.99.33,16.13,4.36,19.97,11.53l3.62,8.75Z"/>
  </g>
</svg>