<?xml version="1.0" encoding="UTF-8"?>
<svg id="Layer_1" xmlns="http://www.w3.org/2000/svg" version="1.1" viewBox="0 0 248 299">
  <!-- Generator: Adobe Illustrator 30.0.0, SVG Export Plug-In . SVG Version: 2.1.1 Build 123)  -->
  <defs>
    <style>
      .st0 {
        fill: #430f68;
      }
    </style>
  </defs>
  <path class="st0" d="M32.97,7.03l129.38.12,75.41,75.01.73,3.01v184.8c-1.04,13.16-11.91,22.5-24.66,24.03H34.65c-12.84-1.44-23.8-11.44-24.65-24.65l.03-238.44c1.15-12.47,10.96-21.62,22.93-23.88h0ZM152.95,19.35H34.68c-.26,0-4.26,1.65-4.88,1.98-4.66,2.48-6.86,6.88-7.31,12.04v234.1c.72,8.28,5.88,13.08,14.04,14.05h175.44c5.38.25,14.02-6.06,14.02-11.57V92.69l-.94-.94h-49.31c-.96,0-7.37-2.57-8.63-3.23-7.52-3.94-14.15-13.32-14.15-22.05V19.35h-.01ZM216.62,79.27l-50.56-50.56v40.26c0,2.44,4.84,7.4,7.05,8.55.52.27,4.26,1.74,4.5,1.74h39.01Z"/>
  <path class="st0" d="M64.78,119.36l120.47.33c5.56,3.23,4.15,11.69-2.65,12.01l-116.73.02c-7.42-.89-8-10.35-1.09-12.35h0Z"/>
  <path class="st0" d="M64.78,219.22l117.82-.14c6.73.29,8.26,8.73,2.65,12.01l-119.38.49c-7.42-.89-8-10.35-1.09-12.35h0Z"/>
  <path class="st0" d="M64.78,169.29l117.82-.14c8.07.43,8.14,12.01,0,12.48l-116.73.02c-7.42-.89-8-10.35-1.09-12.35h0Z"/>
  <path class="st0" d="M64.78,69.43l64.16-.16c7.82.9,7.99,11.56,0,12.51-19.84-1.77-43.71,2.31-63.07,0-7.42-.89-8-10.35-1.09-12.35Z"/>
</svg>