<?xml version="1.0" encoding="UTF-8"?>
<svg id="Layer_1" xmlns="http://www.w3.org/2000/svg" version="1.1" viewBox="0 0 384 299">
  <!-- Generator: Adobe Illustrator 30.0.0, SVG Export Plug-In . SVG Version: 2.1.1 Build 123)  -->
  <defs>
    <style>
      .st0 {
        fill: #430f68;
      }
    </style>
  </defs>
  <path class="st0" d="M339.75,38.52h26.62c1.72,0,4.84,4.29,4.16,6.34l-.37,237.45-3.2,3.55-350.46-.23-2.44-2.81-.61-237.97c-.68-2.04,2.44-6.34,4.16-6.34h26.62V12.64c0-1.02,2.77-3.85,4.14-4.11,4.07-.77,14.81-.23,19.51-.05,42.25,1.62,85.81,12.3,124.34,29.11,38.59-17.04,81.41-27.54,123.85-29.11,4.72-.17,15.42-.72,19.51.05,1.37.26,4.14,3.09,4.14,4.11v25.88h.03ZM186.75,46.77c-41.36-18.12-86.7-27.4-132-27.75v226.5c45.22.79,90.54,9.09,132,27V46.77ZM329.25,19.02c-45.29.41-90.65,9.57-132,27.75v225.75c41.48-17.9,86.78-26.2,132-27V19.02ZM44.25,49.02h-20.25v226.5h140.25l-24.59-8.04c-20.55-5.03-41.62-9.14-62.79-10.71-8.31-.62-20.15.38-27.7-.8-1.68-.26-4.92-2.52-4.92-4.08V49.02ZM360,49.02h-20.25v202.88c0,5.94-15.92,3.88-19.91,4.09-27.29,1.48-54.48,5.64-80.76,12.99l-19.34,6.54h140.25V49.02h.01Z"/>
  <path class="st0" d="M165.54,189.81c-.77.77-3.29,1.67-4.48,1.57-4-.34-13.61-4.4-18.4-5.65-16.52-4.29-33.19-7.57-50.13-9.87-5.76-.78-20.23,1.11-17.37-8.56,1.09-3.68,6.88-2.92,9.96-2.78,14.8.68,33.7,4.61,48.25,8,6.69,1.56,25.82,5.82,30.83,8.92,2.84,1.76,3.83,5.9,1.34,8.36h0Z"/>
  <path class="st0" d="M165.54,73.98c3.85,3.81-.12,10.17-5.35,8.74-26.74-8.64-54.37-13.99-82.37-16.65-5.12-2.05-3.23-9.62,2.08-10.27,21.96,2.15,43.72,5.67,65,11.44,3.53.96,18.85,4.98,20.63,6.74h0Z"/>
  <path class="st0" d="M79.97,92.01c7.05-.49,22.77,2.48,30.43,3.73,10.35,1.69,20.77,3.97,30.91,6.59,5.34,1.38,17.7,4.21,21.96,6.54,6.8,3.72,3.87,10.81-3.84,9.84-8.2-1.03-21.81-6.62-31.05-8.7-16.47-3.71-33.2-5.95-49.99-7.76-5.67-1.87-4.22-9.83,1.58-10.24h0Z"/>
  <path class="st0" d="M165.54,153.81c-.59.59-2.88,1.51-3.78,1.5-22.33-7.3-45.2-12.2-68.49-15.44-5.87-.82-20.97,1.08-18.12-8.56,1.11-3.76,7.52-2.93,10.71-2.78,19.92.96,47.97,7.17,67.13,13.12,4.45,1.38,19.71,4.93,12.55,12.16Z"/>
  <path class="st0" d="M75.95,209.33c-.55-.59-.8-1.68-.89-2.49-.79-7.02,3.81-6.56,9.31-6.31,13.75.6,31.66,4.24,45.24,7.25,8.5,1.89,26.33,5.62,33.55,9.2,6.23,3.09,3.22,10.74-2.08,10.38-4.77-.32-15.81-4.95-21.42-6.38-13.8-3.52-27.79-6.29-41.89-8.36-4.21-.62-19.73-1.07-21.82-3.3h0Z"/>
  <path class="st0" d="M308.05,209.33c-2.02,2.15-17,2.7-21.07,3.3-14.57,2.15-28.99,4.86-43.24,8.51-5.26,1.35-17.15,6.22-21.46,6.34-3.73.11-6.36-3.92-4.99-7.24,1.54-3.72,10.53-5.4,14.45-6.59,16.77-5.08,36.33-9.34,53.73-11.52,4.44-.56,17.23-2.45,20.73-1.45,3.12.89,3.78,6.58,1.84,8.65h.01Z"/>
  <path class="st0" d="M297.6,164.74c3.06-.2,9.55-1.38,11.01,2.04s-.22,7.28-3.88,8.08c-5.17,1.13-12.84.93-18.49,1.76-15.27,2.24-29.98,5.23-44.89,9.11-4.82,1.25-14.34,5.28-18.39,5.63-5.88.5-8.39-6.67-3.14-9.91,3.52-2.18,15.38-4.96,20.04-6.22,17.7-4.79,39.5-9.32,57.76-10.49h-.02Z"/>
  <path class="st0" d="M218.46,73.98c1.79-1.77,17.09-5.78,20.63-6.74,21.26-5.79,43.06-9.3,65-11.44,5.31.65,7.2,8.22,2.08,10.27-27.99,2.69-55.63,8.01-82.37,16.65-5.23,1.42-9.2-4.93-5.35-8.74h0Z"/>
  <path class="st0" d="M218.44,117.82c-2.17-2.06-1.8-6.04.34-8.09,24.87-8.23,52.36-15.26,78.6-17.2,3.39-.25,10.19-1.47,11.46,2.77,1.09,3.67-.29,6.05-3.83,7.1-5.07,1.5-14.44,1.35-20.27,2.23-9.72,1.46-19.54,3.22-29.12,5.38-9.09,2.05-23.08,7.76-31.05,8.71-1.66.2-4.89.27-6.12-.89h-.01Z"/>
  <path class="st0" d="M296.85,128.74c3.1-.2,9.7-1.32,11.45,1.61,2.17,3.63.33,7.41-3.74,8.35-5.23,1.21-13.3,1.07-19.07,1.93-21.48,3.19-42.6,8.03-63.25,14.68-3.58-.39-6.44-3.43-4.93-7.07s10.5-5.6,14.29-6.76c19.39-5.93,45.06-11.44,65.26-12.74h-.01Z"/>
</svg>