<?xml version="1.0" encoding="UTF-8"?>
<svg id="Layer_1" xmlns="http://www.w3.org/2000/svg" version="1.1" viewBox="0 0 384 384">
  <!-- Generator: Adobe Illustrator 30.0.0, SVG Export Plug-In . SVG Version: 2.1.1 Build 123)  -->
  <defs>
    <style>
      .st0 {
        fill: #430f68;
      }
    </style>
  </defs>
  <path class="st0" d="M164.33,0c5.7,1.29,11.63,1.43,17.4,2.47,94.02,16.94,149.06,116.75,115.11,206.22-5.33,14.06-13.32,26.54-21.44,39.08l13.11,13.16c5.61-4.02,12.99-4.37,18.27.44,20.57,23.6,48.82,44.86,68.6,68.62,4.35,5.23,6.9,10.69,8.61,17.26v9.75c-3.2,14.06-12.92,23.83-26.99,27h-9.75c-6.56-1.71-12.03-4.26-17.25-8.62-23.76-19.79-45-48.05-68.6-68.63-4.82-5.28-4.46-12.66-.44-18.28l-13.15-13.12c-8.26,4.84-15.94,10.65-24.51,15.01-92.78,47.24-205.92-10.7-221.46-113.21-.63-4.18-.46-8.92-1.71-12.92.32-6.9-.44-14.14,0-21C4.99,67.49,67.85,4.83,143.34,0h20.99ZM294.25,153.74c0-77.57-62.86-140.45-140.4-140.45S13.46,76.18,13.46,153.74s62.86,140.45,140.4,140.45,140.4-62.88,140.4-140.45h-.01ZM266.67,257.17l-9.45,9.45,13.2,13.2,9.45-9.45-13.2-13.2ZM297.79,270.3l-27.44,27.45,9.07,9.07,27.44-27.45-9.07-9.07ZM315.77,288.31l-27.43,27.44,9.04,9.05,27.43-27.44-9.04-9.05ZM333.5,306.8l-26.66,27.22c10.04,9.15,19.3,21.04,29.54,29.75,7.09,6.03,14.62,9.35,23.81,5.03,13.34-6.27,12.98-21.43,4.35-31.69-8.65-10.27-20.71-19.38-29.61-29.65l-1.42-.65h0Z"/>
  <path class="st0" d="M281.48,153.77c0,70.52-57.15,127.69-127.65,127.69S26.18,224.29,26.18,153.77,83.33,26.08,153.83,26.08s127.65,57.17,127.65,127.69ZM268.7,153.75c0-63.46-51.43-114.91-114.87-114.91s-114.87,51.45-114.87,114.91,51.43,114.91,114.87,114.91,114.87-51.45,114.87-114.91Z"/>
  <path class="st0" d="M143.94,51.97c5.42-.43,16.51-2.03,16.28,6.16s-9.14,5.75-14.25,6.37c-13.48,1.63-25.04,5.34-36.88,11.86-4.36,2.4-14.76,12.16-18.42,3.69-3.3-7.61,11.04-14.62,16.66-17.45,10.93-5.51,24.35-9.66,36.6-10.64h.01Z"/>
  <path class="st0" d="M173.33,134.25h25.12c25.23,0,24.65,39,.75,39h-25.87v25.88c0,23.9-38.99,24.49-38.99-.75v-25.12h-25.87c-23.9,0-24.48-39,.75-39h25.12v-25.12c0-25.24,38.99-24.65,38.99-.75v25.88-.02ZM152.13,102.9c-2.25.49-3.9,2.55-4.25,4.77-1.28,8.21,2.23,31.63-1.87,37.13-1.6,2.14-4.27,2.69-6.8,2.94-10.18,1.03-21.74-.88-32.07.17-4.82,1.31-5.83,7.78-2.09,10.77,4.93,3.94,29.4.75,37.21,1.78,4.03.53,5.22,4.42,5.57,7.93,1.03,10.18-.76,21.87.03,32.22,1.53,4.64,7.95,5.65,10.91,1.95,3.95-4.93.74-29.41,1.78-37.22.34-2.59,2.38-4.54,4.87-4.88,7.82-1.04,32.26,2.18,37.21-1.78,3.71-2.97,2.67-9.39-1.95-10.91-10.21-.7-21.42.86-31.5,0-3.8-.32-8.06-1.28-8.64-5.61-1.06-7.99,2.08-31.46-1.43-36.82-1.45-2.21-4.45-3-6.98-2.45h0Z"/>
</svg>