<?xml version="1.0" encoding="UTF-8"?>
<svg id="Layer_2" data-name="Layer 2" xmlns="http://www.w3.org/2000/svg" viewBox="0 0 38.56 42.77">
  <defs>
    <style>
      .cls-1 {
        fill: #11fb06;
        opacity: .6;
      }
    </style>
  </defs>
  <g id="Layer_8_copy_3" data-name="Layer 8 copy 3">
    <g>
      <path class="cls-1" d="M35.77,1.83l.35-1.83L8.57,7.8,0,29.31l1.18,1.91c.73.9,2.54,1.27,3.94.98.14-.1.28-.2.42-.32.38-.35.72-.74,1.08-1.11-.49-.11-1-.27-1.46-.45-.59-.23-1.18-.53-1.58-1.04-.01-.02-.02-.04-.03-.06-.66-.33-1.41-.81-1.35-1.56.02-.33.35-.7.72-.55.5.2.89.52,1.33.83.23.17.47.32.72.41l-.45-.4c3.3-.15,5.36,1.14,6.38,4.26l1.18.58,14.79-4.38L38.56,2.43l-2.79-.6Z"/>
      <path class="cls-1" d="M10.27,38.71c-.37.42-.81.72-1.31.94-.32.21-.65.4-.97.58-1.55.84-3.29,1.1-5.03,1.03l-1.58.31c.24,3.13,8.89-.72,11.62-1.82.92-.37,2.24-.67,3.07-1.34-1.92.32-3.87.49-5.8.3Z"/>
    </g>
  </g>
</svg>