<?xml version="1.0" encoding="UTF-8"?>
<svg id="Layer_2" data-name="Layer 2" xmlns="http://www.w3.org/2000/svg" viewBox="0 0 232.49 329.04">
  <defs>
    <style>
      .cls-1 {
        fill: #11fb06;
        opacity: .6;
      }
    </style>
  </defs>
  <g id="Layer_36_copy_Image" data-name="Layer 36 copy Image">
    <path class="cls-1" d="M154.65,328.96c-2.44-.31-12.58-3.3-14.19-4.8-.44-.41-1.27-1.02-1.12-1.7,1.53-2.85,12.73-2.1,13.06-3.51.12-4.3-.22-8.66-.05-12.96,1.05-25.66,3.61-51.34,4.58-77.02.1-2.66.48-5.03-1.61-6.94l1.58-27.37c-8.07,7.47-11.75,13.56-23.12,16.27-2.65.63-7.38.71-9.37,1.4-1.38.48-1.42,3.14-3.16,3.62-4.02,1.12-9.88-.02-12.53-3.43-1.59-2.04-.67-3.7-1.24-4.71-.1-.17-2.54-1.43-3.29-2.09-4.54-4.03-8.72-8.86-12.36-13.71l-5.77-9.24c.04,6.14,1.24,12.86.56,18.98-.23,2.08-1.41,3.47-1.67,5.13-3.92,25.64-2.38,56.34-9.83,81.41-.81,2.74-1.04,4.38-3.79,5.83,2,2.45,6.57,1.39,8.65,3.09,1.59,1.29.92,3.89-.86,4.71-2.24,1.04-18.84.04-19.18-1.64-.63-1.87,2.34-5.21,2.31-6.16-.02-.77-1.02-1.37-1.09-2.24-.1-1.31,1.8-8.07,2.13-10.32,2.54-17.48,4.2-35.08,6.32-52.62l-.55-2.54c-4.23,18.93-8,38.1-13.2,56.79-1.38,4.95-2.74,10.45-4.65,15.18-.41,1-1.75,2.08-1.8,2.53-.27,2.31,4.21,6.87,3.09,10.66s-11.74,3.31-14.07.71c-3.97-4.44-.09-9.88,1.12-14.22,7.3-26.2,10.12-55.88,14.76-82.7-3.72-10.66-2.39-21.27-2.82-32.31-.03-.69.43-2.11-.56-1.97-1.13,5.64-2.71,11.22-3.81,16.88-1.27,6.55-1.73,13.4-3.59,19.71-.11.86,5.89,4.42,4.51,10.08-.34,1.41-.9,2.72-1.94,3.76-1.27.24-.79-.55-.84-1.4-.1-1.63.59-3.67-.85-4.82-1.14.96-2.28,2.24-2.43,3.8-.26,2.62,2.81,8.15,2.69,10.08-.06.97-.67.7-1.39.27-1.83-1.1-3.57-2.57-5.45-3.62-1.48-.83-3.46-.83-4.78-2.02-3.44-3.08-2.88-8.03-.93-11.74,1.75-3.34,2.37-2.36,3.21-6.43,3.61-17.41,6.49-35.17,11.91-52.12,2.56-8,5.03-15.6,11.91-20.96,1.96-1.53,6.53-2.8,5.97-5.35-.12-.56-9.22-2.63-10.95-3.3-4.48-1.74-9.79-4.97-13.46-8.08-1.54-1.3-7.14-7.98-7.65-8.22-1.08-.52-1.64,3.47-3.25,3.54-9.13,2.6-19.23-9.51-18.57-17.99.09-1.19,1.09-3.01.84-3.7-.67-1.87-6.35-7.19-7.88-10.23-3.95-7.79,3.32-15.99,7.05-22.63-2.92.96-8.4,2.47-10.45-.61-3.92-5.87,7.41-6.49,11.01-6.2-3-9.86.3-25.81,4.81-5.67,3.24-7.89,6.65-15.93,11.73-22.84,2.01-2.73,4.03-6.56,8-5.37,1.67.5,2.53,3.63,3.5,3.27,4.02-3.86,16.71-20.97,21.66-21.43,4.04-.37,1.6,11.8,2.16,14.07,5.71-5.67,11.63-11.69,18.24-16.33,14.44-10.12,19.72-6.06,14.37,10.96-1.39,4.42-3.87,9.01-5.69,13.29,3.83-.31,8.08-1.36,11.74.45,5.08,2.53-.96,12.19-2.66,15.72,1.39,2.45,3.57,3.8,4.81,6.51,3.67,8.02-1.19,16.04-4.05,23.52,14,17.86,12.14,50.45-11.24,59.23-5.37,2.01-9.42,1.1-14.5,2.61.05,3.96,4.14,4.53,6.58,6.99,4.64,4.67,4.6,10.88,6.48,16.75,3.35,10.44,9.94,28.92,19.09,35.32.52.36,4.17,2.36,4.48,2.38,1.18.09,1.82-.96,2.82-1.13,3.95-.66,6.72.95,9.89,3.11,1.97,1.34.08,2.48,4.76,1.9,14.44-1.77,23.63-22.62,34.07-31.67,2.17-1.88,4.7-1.4,3.6-5.87l-.85-.85c-10.43-.4-27.29-.87-32.78-11.42-4.24-8.13-4.48-17.39-2.39-26.18.75-3.16,3.89-9.2,4.09-11.48.5-5.62-1.94-14.52-1.45-21.58.42-5.99.78-7.8.6-14.15-.2-7.04.51-14.69,3.12-21.24,1.47-3.69,10.21-19.21,14.61-18.07,1.23.32,4.88,5.3,7.92,6.29,4.6,1.5,12.91-3.56,19.34-2.9,8.98.92,38.73,14.32,44.28,21.46,2.39,3.07,1.74,4.5,2.85,7.35,2.86,7.33,5.92,6.2,6.51,16.72,1.48,26.39-6.73,41.88-28.41,56.08-5.25,3.44-11.6,5.94-16.57,9.5-3.26,2.33-6.07,5.89-9.44,8.13l-.33,5.41c2.16.67,3.55,1.23,5.37,2.57,11.1,8.16,26.62,49.09,27.75,62.93.17,2.11-.52,5.48-.33,6.65.23,1.39,2.91,4.22,3.2,6.94.38,3.5-1.62,5.35-3.17,8.18l-5.45-.14-7.14-4.22c1.19-4.63-2.61-13.15,5.04-13.23-2.14-13.25-5.17-28.07-12.23-39.62-.44-.73-2.75-4.76-3.64-4.01.28.66.54,1.2.58,1.97.45,9.46,3.31,21.07.1,29.6,1.67,27.69,10.02,55.75,12.84,83.27.31,3.02-.47,4.45-.45,6.15.01,1.38,2.06,2.88.4,4.68-3.14,2.93-23.13-3.33-23.66-5.83-.56-2.66,9.66-2.86,9.64-3.39-1.79-7.89-3.17-15.9-4.45-23.89-2.28-14.24-3.35-31.45-6.49-45.08-.24-1.02-.8-4.21-2.38-3.84-1.34.31-2.33,9.84-2.55,11.62-2.92,23.52-3.55,47.67-7.34,70.86-.49,2.98,1.06,5.86-1.73,8.19-2.17-.19-4.69.27-6.8,0Z"/>
  </g>
</svg>