<?xml version="1.0" encoding="UTF-8"?>
<svg id="Layer_2" data-name="Layer 2" xmlns="http://www.w3.org/2000/svg" viewBox="0 0 125.29 190.41">
  <defs>
    <style>
      .cls-1 {
        fill: #11fb06;
        opacity: .6;
      }
    </style>
  </defs>
  <g id="Layer_36_copy_Image" data-name="Layer 36 copy Image">
    <path class="cls-1" d="M114.48,0c1.19,3.34,1.6,2.21,3.72,3.35,1.13.61,2,2.22,2.37,2.32.67.19,1.8-.25,2.33.06.79.46.16,5,.66,6.3.34.87,1.92.47,1.7,2.37-.08.68-3.71,7.06-4.29,7.67-1.08,1.14-2.97,1.06-3.07,1.18-.38.46.63,6.51.54,7.57-.14,1.74-1.93,3.09-2.15,4.15-.35,1.72.87,3.92-.15,7.2-1.15,3.73-2.76,2.24-4.21,3.72-.67.69-1.31,3.4-2.09,4.7-2.38,3.97-4.8,3.97-3.88,9.7,6.94-.1,8.83,8.71,10.8,14.2,2.76,7.69,4.6,14.42,5.11,22.66.22,3.53-.62,8.75-.01,11.91.27,1.39,1.54,1.79,2.13,2.97,2.86,5.78.76,7.69-5.27,7.28-1.51-2.53-4.07-4.63-2.23-7.67.58-.95,1.87-1.11,2.24-1.72,1.43-2.31-3.57-18.73-3.12-22.67-.95-.15-.62,1.38-.58,2,.25,4.09,1.88,10.98,1.16,14.72-.27,1.42-2.97,2.27-3.24,4.04,1.62,17.66,2.96,35.47,3.83,53.16.22,4.57-1.12,10.63,1.43,14.44,1.15,1.71,7.5,7.19,1.04,7.96-4.8.57-5.15-1.99-6.5-5.22-.17-.41-.99-.42-1.08-.83-.33-1.52.17-4.89-.11-7.16-2.23-18.48-5.46-36.89-7.85-55.35l-.56,1.97c.12,16.84-.44,33.63-.54,50.47,0,1.22-.62,2.35-.61,3.4.01,1.66,1.61,3.14,1.19,5.03-2.25,1.59-4.66.21-7.13.29-1.76.06-8.75,1.7-9.34-.26-1.18-3.96,9.12-1.68,10.51-5.9l-4.29-62.65c-.19-1.88-2.5-1.63-2.83-3.4-.78-4.16.32-10.94.6-15.28l-.59-5.41c-2.2,9.2-9.15,16.2-15.05,23.22-.3.63,1.63,2.62.58,5.09-.22.51-1.21.93-1.33,1.51-.23,1.16,1.7,1.8.54,3.34-2.47,3.3-5.14-.26-7.42-1.73-.89-.42-5.63,4.06-5.97,4.82-.22.48,1.92,4.05.59,6.25-.71,1.18-4.59,1.8-5.91,2.59-2.29,1.35-3.67,4.35-6.85,5.62-3.88,1.56-6.59.99-10.2-.84-.44.44,2.87,9.96,2.88,12.18,0,1.34-.63,2.59-.63,3.94-.03,12.45.1,24.91-.01,37.36,1.87,1,4.67.92,4.57,3.75h-8.22c-.09,0-1.41-.6-1.46-.93.34-2.84,1.2-6.8,1.22-9.55.06-6.88-1.95-15.44-1.8-22.1.05-2.2,1.27-3.83,1.23-6.23-.06-3.11-2.65-6.68-2.68-7.37-.02-.39,1.06-3.66,1.15-4.73.33-4.08.41-9.6-1.46-13.29-.63-1.24-1.79-1.27-2.19-1.92-1.15-1.86-2.23-6.98-3.07-8.69-.53-1.07-1.96-.85-2.42-1.26-.51-.46-.59-2.09-1.26-2.99-.96-1.29-2.1-1.05-2.69-1.56-.63-.54-.68-2.41-1.86-2.96-1.31-.62-2.81-.01-4.14-.39s-2.12-2.82-4.8-3.18c-1.74-.24-2.89.58-4.33.46-1.93-.17-4.56-2.54-7.14-1.7v-2.83c2.07-2.7,3.62-5.95,6.61-7.84,2.69-1.71,5.37-1.36,7.72-2.48,1.27-.6,2.93-2.44,4.56-3.37,2.99-1.71,5.31-1.71,7.9-2.87,1.54-.69,2.82-2.45,4.79-3.15,12.79-4.57,23.54,5.57,18.86,18.58l-1.13-.28c.14,1.99-.27,4.16.13,6.1.35,1.72,1.87,2.97,2.15,5.21,1.12,9.06-2.56,13.95-11.22,15.44-.71.12-6.76-.24-5.22,1.28,2.76.28,3.93,3.1,6.04,4.45,4.15,2.67,6.85,1.73,10.4-1.32,3.28-2.82,2.13-2.61,2.95-6.12.74-3.19,2.79-2.22,4.83-3.1,2.26-.97,6.83-6.82,8.64-8.93-.94-.81-3.2,1.61-2.83-.84,2.83.14,2.82-2.97,4.3-3.92,2.57-1.66,2.34.16,5-3.5,5.88-8.11,9.36-18.12,12.95-27.29,1.54-3.94,3.48-11.19,7.2-13.21,2.06-1.12,6.72-1.06,5.4-3.67-7.08,2.75-16.21-2.55-17.23-9.96-.67-4.9.36-10.38-2.85-15.13-.72-1.07-2.85-1.86-3.31-4.25-.13-.65.47-5.28.72-5.8.34-.69,1.62-.99,2.22-1.75,1.94-2.44.47-4.86,3.78-7.56,6.2-5.07,10.82-1.81,16.94-4.06,3.21-1.18,2.19-5.94,3.65-7.09l8.28-2.77h2.27Z"/>
  </g>
</svg>