<?xml version="1.0" encoding="UTF-8"?>
<svg id="Layer_2" data-name="Layer 2" xmlns="http://www.w3.org/2000/svg" viewBox="0 0 252.28 368.97">
  <defs>
    <style>
      .cls-1 {
        fill: #11fb06;
        opacity: .6;
      }
    </style>
  </defs>
  <g id="Layer_36_copy_Image" data-name="Layer 36 copy Image">
    <g>
      <path class="cls-1" d="M252.28,34c-1.78,1.44-1.27,5.33-2.21,6.57-.71.93-2.48.83-3.3,1.52-.96.8-2.33,4.26-3.96,5.22,2.42,2.51.52,6.6.94,8.4.14.61,1.55.41,1.77,1.81.24,1.49-.73,5.53-.44,7.29.15.93,1.59,1.63,1.58,3.48,0,1.25-1.91,8.81-2.43,10.07s-2.26,2.99-2.63,4.67c11.27,5.57,2.06,27.17-10.21,23-4.79,10.66-11.82,20.49-20.86,27.95l1.05,6.46c8.03,3.09,12.96,11.81,17.01,18.98,8.65,15.31,11.4,27.93,12.93,45.44.2,2.27-.45,5.95,0,7.81.05.19,2.05,1.49,2.75,2.48,1.58,2.21,4.41,9.03,3.21,11.52s-10.01,2.23-12.43,1.66c-3.01-.71-1.4-2.95-2.3-4.5-.37-.63-1.85-.85-2.28-1.69-1.33-2.62,1.3-7.79,4.18-8.6l-4.16-24.28-4.82-13.02c-.69,4.29,2,21.74.27,24.38-.27.42-1.36.39-1.45.92-.14.86,1.02,5.78,1.17,7.29,2.77,28.11,4.42,56.29,6.8,84.44.18,2.19-.28,4.65.04,6.76.72,4.7,9.73,18.31-1.88,16.62-13.34-1.95-6.85-10.68-4.37-18.82l-13.97-84.22-4.49.58-10.48,75.71,2.79,8.94c-.65,2.01-8.99,3.16-10.97,3.23-2.53.1-12.59-.17-9.42-4.88,2.1-3.11,13.56-6.07,13.68-6.83l1.65-103.36-8.6,13.21c-.64,1.93-4.78,4.85-5.31,6.08-.49,1.13.35,1.97.21,2.98-.18,1.3-1.63,2-1.85,2.64-.49,1.41,1.24,2.6-1.17,5.12-1.61,1.68-3.58,2.16-5.74,1.2-.18-.08-3.16-2.21-3.29-2.36-.29-.34-.21-1.09-.51-1.48-.41-.55-1.55-.44-1.55-1.59,0-1.07,1.49-1.59,1.62-2.34.11-.63-.5-1.48-.44-2.19.18-2.16,6.76-5.01,8.98-4.35,5.39-11.89,13.35-20.94,15.32-34.27,1.02-6.9.24-16.9,4.62-22.58,2.19-2.84,6.05-3.46,5.08-7.67-3.7.52-7.24,2.17-11.03,2.3-14.14.47-31.8-19.15-33.17-32.62-.66-6.55,1.87-10.71.39-17.39-1.59-7.21-8.27-12.69-9.78-19.73-.09-.4-.34-7.57-.3-8.21.12-2.28,2.02-2.41,2.59-3.69.88-1.98.7-4.88,2.1-7.54,2.27-4.31,5.64-4.86,7.84-7.46,1.97-2.33,1.59-6.02,3.94-8.53,1.85-1.98,9.65-6.37,11.92-3.66.03-1.8,1.75-3.36,3.41-3.73,1.25-.28,2.03.35,2.99.22s2.11-1.19,3.21-1.35c1.19-.17,2.39.7,3.43.07,1.66-1.02,3.26-7.07,3.43-9.1.3-3.51-1.32-6.68,1.67-10.04,3.71-4.18,6.99-.76,8.17-1.04.59-.14,2.61-3.66,3.46-4.49,4.53-4.43,12.33-5.19,14.45,1.69,3.63-2.48,7.55-4.15,11.89-2.54,3.06,1.14,6.23,5.51,4.54,8.77,5.82-.11,9.95,3.83,10.64,9.5.12,1-.7,2.3-.37,2.89.08.15,1.99,1.05,2.77,2.07s.87,2.2,1.69,3.12v5.1Z"/>
      <path class="cls-1" d="M68.66,240.28c-.78,12.62.12,27.02,4.27,39.08.37,1.09,3.42,8.13,3.79,8.4.57.41,3.81.61,4.98.97,7.9,2.4,8.25,11.48.56,13.91-.39.41,1.35,2.84-.33,3.35-2.9.88-2.08-2.06-3.32-3.4-1.06-1.14-4.58-1.88-5.67-3.4-1.7-2.39-1.06-6.61-1.58-9.19-.5-2.44-4.22-8.97-5.4-12.17-2.6-7.08-4.56-14.84-6.11-22.23-.37-1.78-.84-13.5-4.84-10.54-1.7,1.26-.52,11.1-.51,13.68.07,10.99,2.82,17.94,4.34,28.47.91,6.33,1.44,13.43-7.6,11.55-1.71-.36.51,4.96.97,5.28.66.46,2.17.42,3.38,1.16,2.02,1.23,2.15,3.62,3.44,4.49.88.6,8.04,1.57,6.22,3.69-.94,1.1-7.99-.76-9.65-.88-1.13.8-.32,11.1-3.11,12.78-1.41-3-.68-6.43-.85-9.63l-1.74.35c-1.43,2.38-2.35,8.7-5.63,7.86-.38-2.81,2.31-6.76,3.4-9.34-1.21-.3-1.27.67-1.82,1.29-1.75,1.93-3.05,4.43-5.27,6.07-1.17.24-.96-.56-.82-1.38.41-2.34,2.84-3.97,3.94-5.97-.75-.71-3.93,3.8-5.66,2.83-.3-2.4,2.29-2.92,3.69-4.52.87-.99,4.47-5.76,4.69-6.68.62-2.51-1.52-4.49-1.59-6.94-1.56-.33-1.38,1.97-2.15,3.23-2.94,4.82-6.28,2.54-9.94.07-2.46-1.66-15.65-13.94-16.85-16.02-.66-1.15-.39-2.94-1.08-3.48-3.78.29-15.87,2.06-14.76-4.46.56-3.26,4.75-2.24,6.96-2.7,4.2-.87,6.66-6.5,11.46.12,1.8-2.42,5.82-5.29,8.15-1.91.73,1.05.57,3.15,1.76,3.61-.6-4.26-2.26-8.25-3.12-12.46-1.62-7.96-1.27-10.96,1.14-18.7,1.63-5.23,3.81-10.43,7.64-14.45-5.11-3.76-7.47-6.47-7.95-13.01-.81-11.2-.55-44.02,5.56-52.86,3.79-5.48,12.63-11.11,18.45-14.42,26.92-15.29,51.55-9.66,69.08,15.56,5.65,8.12,7.73,16.94,11.14,26.07-1.4,4.08-10.9,6.13-12.44,8.01-2.35,2.88-1.75,19.55-.84,23.59.96,4.29,3.7,6.53,5.38,10.39-7.18,5.42-16.62,8.47-25.58,6.41-1.88-.43-5.55-2.45-6.49-2.54s-7.85,3.56-10.67,3.84c-4.67.48-7-1.27-11.05-2.83ZM35.79,229.51c3.91-1.88,1.43-5.18,1.69-8.5l-1.69,8.5ZM26.15,281.09c-1.2-.11-1.45-.98-2.25.28l1.41,1.41h.84s0-1.69,0-1.69ZM79.42,300.35l-1.41-3.96c-1.8,1.19.18,3.34,1.41,3.96Z"/>
      <path class="cls-1" d="M94.72,303.75c-5.11-11.13-2.53-23.99,7.1-31.72,14.1-11.34,24.22-1.74,19.56,14.46-1.3,4.53-4.48,9.85-7.65,13.31-.71.78-4.46,2.93-3.14,3.68l6.41,1.89c7.52-7.48,21.99-16.99,33-16.38,9.71.54,11.83,10.44,6.75,17.56-6.29,8.82-22.17,14.28-32.73,13.05l-.96,2c5.04-.23,9.25-.52,14.29.46,16.21,3.14,26.24,19.71,9.35,29.98-15.25,9.27-34.56.54-34.97-17.68l-11.9,2.27c6.14,14.47-15.71,32.37-28.62,32.35-7.74-.01-12.4-5.78-11.55-13.31.61-5.45,6.32-13.73,10.19-17.57,1.2-1.18,7.42-5.56,7.63-5.99.29-.59-1.99-3.11-.18-4.98,2.44-2.52,3.83,1.98,4.72,2.65,5.5,4.1,25.69,2.46,31.61-1.17,6.85-4.2,7.7-15.19.2-19.3-8.17-4.47-18.15.5-26.17-1.03-3.49-.67-2.27-4.52-1.15-4.52h8.22ZM104.28,303.1c1.35-3.65,5.7-5.72,8.25-9.03,3.59-4.67,6.3-11.73,5.3-17.67-1.64-9.7-12.63-2.28-16.29,2.14-5.92,7.16-6.29,16.07-2.34,24.29l5.08.27ZM123.12,315.02c9.43,1.04,21.14-2.32,28.01-8.99,3.83-3.72,6.51-11.51-.63-12.43-9.28-1.2-24.13,8.34-30.23,15.04l2.85,6.38ZM115.76,332.17c-.1,14.67,13.53,23.58,26.95,17.01,6.79-3.32,10.93-9.71,5.58-16.55-5.62-7.17-18.3-7.37-26.54-6.23-1.58,2.51-3.01,4.75-6,5.77ZM80.65,334.43c-2.74,3.55-6.96,5.9-10.02,9.55-15.41,18.39-.89,27.53,15.6,13.9,5.77-4.77,13.81-13.27,8.5-20.99l-14.09-2.46Z"/>
    </g>
  </g>
</svg>